<svg xmlns="http://www.w3.org/2000/svg" viewBox="0 0 800 500" font-family="Georgia, 'Times New Roman', serif">
  <style>
    .gun{animation:sweep 3s ease-in-out infinite}
    @keyframes sweep{0%,100%{transform:translateX(-90px)}50%{transform:translateX(90px)}}
    .mist i{display:none}
    .mist circle{animation:mist 1s linear infinite;opacity:0}
    .mist circle:nth-child(2){animation-delay:.25s}
    .mist circle:nth-child(3){animation-delay:.5s}
    .mist circle:nth-child(4){animation-delay:.75s}
    @keyframes mist{0%{opacity:.9;transform:translateY(0) scale(.5)}100%{opacity:0;transform:translateY(46px) scale(1.6)}}
    .paint{animation:paint 3s ease-in-out infinite;transform-origin:400px 0}
    @keyframes paint{0%,100%{opacity:.25}50%{opacity:.8}}
    .shine{animation:shine 3.4s linear infinite}
    @keyframes shine{0%{transform:translateX(-360px) skewX(-18deg)}100%{transform:translateX(880px) skewX(-18deg)}}
    @media (prefers-reduced-motion:reduce){*{animation:none!important}}
  </style>

  <rect width="800" height="500" fill="#0B0B0D"/>
  <radialGradient id="bg" cx="50%" cy="42%" r="75%">
    <stop offset="0" stop-color="#1A141E"/><stop offset="1" stop-color="#0B0B0D"/>
  </radialGradient>
  <rect width="800" height="500" fill="url(#bg)"/>
  <rect x="18" y="18" width="764" height="464" fill="none" stroke="#C9A227" stroke-opacity=".35" stroke-width="2"/>

  <!-- スプレーガン（左右にスイープ） -->
  <g class="gun">
    <g transform="translate(400 150)">
      <rect x="-46" y="-20" width="92" height="34" rx="10" fill="#C9A227"/>
      <rect x="-14" y="10" width="26" height="44" rx="8" fill="#1E1E24" stroke="#C9A227" stroke-width="3"/>
      <rect x="-58" y="-12" width="14" height="18" rx="4" fill="#E8D9A0"/>
      <rect x="-6" y="-42" width="14" height="24" rx="5" fill="#26262E" stroke="#C9A227" stroke-width="2.5"/>
      <!-- ミスト -->
      <g class="mist" fill="#E06A2F">
        <circle cx="-18" cy="34" r="7"/>
        <circle cx="0" cy="38" r="8"/>
        <circle cx="18" cy="34" r="7"/>
        <circle cx="8" cy="30" r="5"/>
      </g>
    </g>
  </g>

  <!-- 塗装されるボディシェル（BMW M6クーペ：ロングノーズ＋ノッチバック、スタンド上） -->
  <g>
    <!-- スタンド -->
    <path d="M340 372 L354 350 L372 350 L386 372 Z" fill="#1E1E24" stroke="#C9A227" stroke-width="2.5"/>
    <path d="M620 372 L632 350 L648 350 L660 372 Z" fill="#1E1E24" stroke="#C9A227" stroke-width="2.5"/>
    <path d="M150 348
             L146 328
             C145 317 147 308 153 303
             C159 298 168 295 180 294
             C204 290 232 287 262 284
             C296 282 330 280 360 279
             C376 259 396 246 420 240
             C444 235 468 235 490 239
             C512 244 532 253 550 265
             C558 271 565 275 571 278
             C597 281 622 285 644 289
             C660 292 672 298 678 306
             C684 315 685 330 681 342
             L678 348
             L604 348 A44 44 0 0 1 516 348
             L296 348 A44 44 0 0 1 208 348 Z"
          fill="#26262E" stroke="#C9A227" stroke-width="3.5"/>
    <clipPath id="body"><path d="M150 348 L146 328 C145 317 147 308 153 303 C159 298 168 295 180 294 C204 290 232 287 262 284 C296 282 330 280 360 279 C376 259 396 246 420 240 C444 235 468 235 490 239 C512 244 532 253 550 265 C558 271 565 275 571 278 C597 281 622 285 644 289 C660 292 672 298 678 306 C684 315 685 330 681 342 L678 348 L604 348 A44 44 0 0 1 516 348 L296 348 A44 44 0 0 1 208 348 Z"/></clipPath>
    <g clip-path="url(#body)">
      <rect class="paint" x="130" y="228" width="560" height="144" fill="#D2622D"/>
      <rect class="shine" x="0" y="180" width="90" height="200" fill="#FFFFFF" opacity=".18"/>
    </g>
    <!-- キャビングラス（後退したキャビン＋ノッチバック） -->
    <path d="M372 277 C388 259 408 248 432 243 C452 239 472 240 490 245 C510 251 528 261 544 273 L508 279 C462 280 416 279 372 277 Z" fill="#10171D" stroke="#5A6068" stroke-width="2.5"/>
    <line x1="468" y1="241" x2="472" y2="280" stroke="#5A6068" stroke-width="2.5"/>
    <line x1="516" y1="248" x2="522" y2="278" stroke="#5A6068" stroke-width="2"/>
    <!-- フェンダーパネルライン -->
    <path d="M212 306 A 48 48 0 0 1 292 304" fill="none" stroke="#4A4A52" stroke-width="2"/>
    <path d="M520 302 A 48 48 0 0 1 600 304" fill="none" stroke="#4A4A52" stroke-width="2"/>
    <!-- ドアライン・ハンドル -->
    <path d="M414 282 C412 306 412 328 415 348" fill="none" stroke="#4A4A52" stroke-width="2"/>
    <rect x="428" y="298" width="20" height="6" rx="3" fill="#4A4A52"/>
    <!-- サイドキャラクターライン・ヘッドライト -->
    <path d="M160 320 H 664" stroke="#4A4A52" stroke-width="2.5"/>
    <ellipse cx="170" cy="307" rx="11" ry="6" fill="#E8D9A0"/>
    <rect x="666" y="296" width="12" height="6" rx="3" fill="#F39800"/>
  </g>
  <line x1="90" y1="372" x2="710" y2="372" stroke="#2A2A2A" stroke-width="3"/>

  <text x="400" y="446" text-anchor="middle" fill="#E8D9A0" font-size="30" letter-spacing="10">BODY &amp; PAINT</text>
  <text x="400" y="472" text-anchor="middle" fill="#8A8A8A" font-size="13" letter-spacing="6">TRIDENT COMPANY</text>
</svg>
