<svg xmlns="http://www.w3.org/2000/svg" viewBox="0 0 800 500" font-family="Georgia, 'Times New Roman', serif">
  <style>
    .gun{animation:sweep 3s ease-in-out infinite}
    @keyframes sweep{0%,100%{transform:translateX(-90px)}50%{transform:translateX(90px)}}
    .mist i{display:none}
    .mist circle{animation:mist 1s linear infinite;opacity:0}
    .mist circle:nth-child(2){animation-delay:.25s}
    .mist circle:nth-child(3){animation-delay:.5s}
    .mist circle:nth-child(4){animation-delay:.75s}
    @keyframes mist{0%{opacity:.9;transform:translateY(0) scale(.5)}100%{opacity:0;transform:translateY(46px) scale(1.6)}}
    .paint{animation:paint 3s ease-in-out infinite;transform-origin:400px 0}
    @keyframes paint{0%,100%{opacity:.25}50%{opacity:.8}}
    .shine{animation:shine 3.4s linear infinite}
    @keyframes shine{0%{transform:translateX(-360px) skewX(-18deg)}100%{transform:translateX(880px) skewX(-18deg)}}
    @media (prefers-reduced-motion:reduce){*{animation:none!important}}
  </style>

  <rect width="800" height="500" fill="#0B0B0D"/>
  <radialGradient id="bg" cx="50%" cy="42%" r="75%">
    <stop offset="0" stop-color="#1A141E"/><stop offset="1" stop-color="#0B0B0D"/>
  </radialGradient>
  <rect width="800" height="500" fill="url(#bg)"/>
  <rect x="18" y="18" width="764" height="464" fill="none" stroke="#C9A227" stroke-opacity=".35" stroke-width="2"/>

  <defs>
    <linearGradient id="m6Body" x1="0" y1="215" x2="0" y2="348" gradientUnits="userSpaceOnUse">
      <stop offset="0" stop-color="#4A4C58"/><stop offset=".45" stop-color="#26262E"/><stop offset="1" stop-color="#131318"/>
    </linearGradient>
    <linearGradient id="m6Glass" x1="0" y1="215" x2="0" y2="264" gradientUnits="userSpaceOnUse">
      <stop offset="0" stop-color="#4A5E74"/><stop offset=".5" stop-color="#1C2733"/><stop offset="1" stop-color="#0C1319"/>
    </linearGradient>
  </defs>
  <!-- スプレーガン（左右にスイープ） -->
  <g class="gun">
    <g transform="translate(400 150)">
      <rect x="-46" y="-20" width="92" height="34" rx="10" fill="#C9A227"/>
      <rect x="-14" y="10" width="26" height="44" rx="8" fill="#1E1E24" stroke="#C9A227" stroke-width="3"/>
      <rect x="-58" y="-12" width="14" height="18" rx="4" fill="#E8D9A0"/>
      <rect x="-6" y="-42" width="14" height="24" rx="5" fill="#26262E" stroke="#C9A227" stroke-width="2.5"/>
      <!-- ミスト -->
      <g class="mist" fill="#E06A2F">
        <circle cx="-18" cy="34" r="7"/>
        <circle cx="0" cy="38" r="8"/>
        <circle cx="18" cy="34" r="7"/>
        <circle cx="8" cy="30" r="5"/>
      </g>
    </g>
  </g>

  <!-- 塗装されるボディシェル（BMW M6クーペ：ロングノーズ＋ノッチバック、スタンド上） -->
  <g>
    <!-- スタンド -->
    <path d="M340 372 L354 350 L372 350 L386 372 Z" fill="#1E1E24" stroke="#C9A227" stroke-width="2.5"/>
    <path d="M620 372 L632 350 L648 350 L660 372 Z" fill="#1E1E24" stroke="#C9A227" stroke-width="2.5"/>
    <path d="M166 348
             C162 347 160 344 160 340
             L158 322
             C157 314 158 306 162 300
             C166 293 172 288 181 285
             C192 281 206 279 222 277
             C252 273 285 269 318 266
             C332 265 344 264 356 263
             C378 248 400 234 424 224
             C438 218 454 215 470 215
             C486 216 500 219 512 224
             C530 232 546 241 560 249
             C566 252 572 255 578 257
             C610 259 640 260 666 258
             C676 257 686 256 692 258
             C698 261 701 266 701 272
             L702 300
             C702 318 700 334 696 344
             C694 347 691 348 688 348
             L604 348 A44 44 0 0 0 516 348
             L296 348 A44 44 0 0 0 208 348 Z"
          fill="url(#m6Body)" stroke="#C9A227" stroke-width="3"/>
    <clipPath id="body"><path d="M166 348 C162 347 160 344 160 340 L158 322 C157 314 158 306 162 300 C166 293 172 288 181 285 C192 281 206 279 222 277 C252 273 285 269 318 266 C332 265 344 264 356 263 C378 248 400 234 424 224 C438 218 454 215 470 215 C486 216 500 219 512 224 C530 232 546 241 560 249 C566 252 572 255 578 257 C610 259 640 260 666 258 C676 257 686 256 692 258 C698 261 701 266 701 272 L702 300 C702 318 700 334 696 344 C694 347 691 348 688 348 L604 348 A44 44 0 0 0 516 348 L296 348 A44 44 0 0 0 208 348 Z"/></clipPath>
    <g clip-path="url(#body)">
      <rect x="150" y="322" width="560" height="30" fill="#000" opacity=".3"/>
      <circle cx="252" cy="348" r="48" fill="none" stroke="#000" stroke-width="10" opacity=".4"/>
      <circle cx="560" cy="348" r="48" fill="none" stroke="#000" stroke-width="10" opacity=".4"/>
      <path d="M222 277 C254 273 288 269 322 267 L322 271 C288 273 256 277 224 281 Z" fill="#FFF" opacity=".14"/>
      <rect class="paint" x="140" y="200" width="575" height="160" fill="#D2622D"/>
      <rect class="shine" x="0" y="180" width="90" height="200" fill="#FFFFFF" opacity=".18"/>
    </g>
    <!-- キャビングラス（後退したキャビン＋ノッチバック） -->
    <path d="M362 262 C382 248 404 234 426 226 C440 220 456 218 470 218 C484 219 498 222 510 227 C526 234 542 243 556 251 L520 255 C466 258 410 260 362 262 Z" fill="url(#m6Glass)" stroke="#8A929C" stroke-width="2"/>
    <line x1="460" y1="218" x2="464" y2="257" stroke="#5A6068" stroke-width="2.5"/>
    <line x1="536" y1="240" x2="541" y2="254" stroke="#5A6068" stroke-width="2"/>
    <!-- フェンダーパネルライン -->
    <path d="M212 320 A 46 46 0 0 1 292 318" fill="none" stroke="#4A4A52" stroke-width="2"/>
    <path d="M520 316 A 46 46 0 0 1 600 318" fill="none" stroke="#4A4A52" stroke-width="2"/>
    <!-- ドアライン・ハンドル -->
    <path d="M420 264 C418 292 418 320 421 346" fill="none" stroke="#4A4A52" stroke-width="2"/>
    <rect x="436" y="288" width="20" height="6" rx="3" fill="#4A4A52"/>
    <!-- サイドキャラクターライン・ヘッドライト -->
    <path d="M180 302 C350 295 560 295 692 302" fill="none" stroke="#4A4A52" stroke-width="2.5"/>
    <ellipse cx="178" cy="288" rx="13" ry="6" fill="#E8D9A0" transform="rotate(-6 178 288)"/>
    <rect x="692" y="276" width="9" height="12" rx="2" fill="#F39800"/>
  </g>
  <line x1="90" y1="372" x2="710" y2="372" stroke="#2A2A2A" stroke-width="3"/>

  <text x="400" y="446" text-anchor="middle" fill="#E8D9A0" font-size="30" letter-spacing="10">BODY &amp; PAINT</text>
  <text x="400" y="472" text-anchor="middle" fill="#8A8A8A" font-size="13" letter-spacing="6">TRIDENT COMPANY</text>
</svg>
