<svg xmlns="http://www.w3.org/2000/svg" viewBox="0 0 800 500" font-family="Georgia, 'Times New Roman', serif">
  <style>
    .glow{animation:pulse 2.2s ease-in-out infinite}
    @keyframes pulse{0%,100%{opacity:.28}50%{opacity:.7}}
    .spark{animation:tw 2s ease-in-out infinite;transform-box:fill-box;transform-origin:center}
    .spark.d2{animation-delay:.5s}.spark.d3{animation-delay:1s}.spark.d4{animation-delay:1.5s}
    @keyframes tw{0%,100%{opacity:0;transform:scale(.3) rotate(0deg)}50%{opacity:1;transform:scale(1) rotate(45deg)}}
    .wheel{animation:spin 1.6s linear infinite;transform-box:fill-box;transform-origin:center}
    @keyframes spin{to{transform:rotate(360deg)}}
    .neon{animation:hue 3s ease-in-out infinite}
    @keyframes hue{0%,100%{stroke:#21D4FD}50%{stroke:#C24BF5}}
    @media (prefers-reduced-motion:reduce){*{animation:none!important}}
  </style>

  <rect width="800" height="500" fill="#0B0B0D"/>
  <radialGradient id="bg" cx="50%" cy="45%" r="75%">
    <stop offset="0" stop-color="#101722"/><stop offset="1" stop-color="#0B0B0D"/>
  </radialGradient>
  <rect width="800" height="500" fill="url(#bg)"/>
  <rect x="18" y="18" width="764" height="464" fill="none" stroke="#C9A227" stroke-opacity=".35" stroke-width="2"/>

  <!-- アンダーグロウ -->
  <ellipse class="glow" cx="400" cy="412" rx="250" ry="20" fill="#21D4FD"/>

  <!-- スカイラインGT-R（BNR32）／ガンメタリック：ブリスターフェンダー＋トランクウイング -->
  <g>
    <!-- トランクウイング（BNR32純正リアスポイラー） -->
    <path d="M146 316 L149 302 M188 315 L190 301" stroke="#2B2E33" stroke-width="5" stroke-linecap="round"/>
    <path d="M128 296 L218 293 L219 302 L129 305 Z" fill="#4B4F55" stroke="#2B2E33" stroke-width="3"/>
    <rect x="124" y="292" width="6" height="16" rx="2" fill="#2B2E33"/>
    <!-- ボディ（実車比率：全長532px・3ボックスの箱型シルエット・低いウェッジノーズ） -->
    <path d="M126 380
             C122 379 120 376 120 372
             L120 358
             C120 352 121 346 123 341
             L125 330
             C126 325 129 322 134 321
             C158 318 186 317 214 316
             L242 315
             C254 300 270 285 288 276
             C296 272 306 269 316 268
             C356 266 400 265 436 265
             C444 265 452 266 458 268
             C472 279 486 292 498 303
             L506 308
             C544 311 588 314 624 318
             C636 320 646 322 650 325
             C654 328 656 333 656 339
             L656 352
             C656 360 654 368 650 373
             C648 377 644 380 640 380
             L604 380 A 48 48 0 0 0 508 380
             L298 380 A 48 48 0 0 0 202 380 Z"
          fill="#4B4F55" stroke="#2B2E33" stroke-width="4"/>
    <!-- ブリスターフェンダー -->
    <path d="M206 350 A 50 50 0 0 1 296 348" fill="none" stroke="#5C6169" stroke-width="2.5"/>
    <path d="M510 348 A 50 50 0 0 1 598 350" fill="none" stroke="#5C6169" stroke-width="2.5"/>
    <!-- ウインドウ（細いピラーの直立気味グラスハウス） -->
    <path d="M320 271 L452 268 L492 305 L312 314 C311 299 314 284 320 271 Z" fill="#10171D" stroke="#5A6068" stroke-width="3"/>
    <line x1="450" y1="269" x2="454" y2="307" stroke="#5A6068" stroke-width="2.5"/>
    <line x1="344" y1="271" x2="342" y2="313" stroke="#5A6068" stroke-width="2.5"/>
    <!-- ドアライン・ハンドル・サイドライン -->
    <path d="M498 312 C497 334 497 357 499 378 M354 316 C353 337 353 359 355 380" fill="none" stroke="#33363B" stroke-width="2"/>
    <rect x="410" y="324" width="18" height="5" rx="2.5" fill="#5C6169"/>
    <path d="M134 328 C260 322 420 316 504 312" fill="none" stroke="#33363B" stroke-width="2.5"/>
    <path d="M300 376 H 508" stroke="#2B2E33" stroke-width="5" stroke-linecap="round"/>
    <!-- ランプ類（R32丸型テール・薄型ヘッドライト） -->
    <rect x="630" y="325" width="22" height="9" rx="2" fill="#E8D9A0"/>
    <rect x="648" y="352" width="8" height="6" rx="2" fill="#F39800"/>
    <circle cx="128" cy="340" r="6" fill="#F35B45"/><circle cx="128" cy="340" r="2.5" fill="#7E2018"/>
    <line x1="300" y1="388" x2="508" y2="388" class="neon" stroke-width="3" opacity=".85"/>
  </g>

  <!-- 回転ホイール -->
  <g>
    <circle cx="250" cy="374" r="40" fill="#0B0B0D" stroke="#3A3A3A" stroke-width="11"/>
    <g class="wheel" stroke="#C9A227" stroke-width="4.5" stroke-linecap="round">
      <circle cx="250" cy="374" r="26" fill="#15151A"/>
      <line x1="250" y1="352" x2="250" y2="396"/><line x1="228" y1="374" x2="272" y2="374"/>
      <line x1="234" y1="358" x2="266" y2="390"/><line x1="266" y1="358" x2="234" y2="390"/>
    </g>
    <circle cx="250" cy="374" r="6" fill="#E8D9A0"/>
  </g>
  <g>
    <circle cx="556" cy="374" r="40" fill="#0B0B0D" stroke="#3A3A3A" stroke-width="11"/>
    <g class="wheel" stroke="#C9A227" stroke-width="4.5" stroke-linecap="round">
      <circle cx="556" cy="374" r="26" fill="#15151A"/>
      <line x1="556" y1="352" x2="556" y2="396"/><line x1="534" y1="374" x2="578" y2="374"/>
      <line x1="540" y1="358" x2="572" y2="390"/><line x1="572" y1="358" x2="540" y2="390"/>
    </g>
    <circle cx="556" cy="374" r="6" fill="#E8D9A0"/>
  </g>

  <!-- スパークル -->
  <g fill="#E8D9A0">
    <path class="spark" d="M170 180l6 16 16 6-16 6-6 16-6-16-16-6 16-6z"/>
    <path class="spark d2" d="M640 150l5 13 13 5-13 5-5 13-5-13-13-5 13-5z"/>
    <path class="spark d3" d="M520 210l4 10 10 4-10 4-4 10-4-10-10-4 10-4z"/>
    <path class="spark d4" d="M300 140l4 10 10 4-10 4-4 10-4-10-10-4 10-4z"/>
  </g>

  <text x="400" y="88" text-anchor="middle" fill="#E8D9A0" font-size="30" letter-spacing="12">CUSTOM</text>
  <text x="400" y="114" text-anchor="middle" fill="#8A8A8A" font-size="13" letter-spacing="6">DRESS-UP &amp; TUNING</text>
</svg>
