<svg xmlns="http://www.w3.org/2000/svg" viewBox="0 0 800 500" font-family="Georgia, 'Times New Roman', serif">
  <style>
    .glow{animation:pulse 2.2s ease-in-out infinite}
    @keyframes pulse{0%,100%{opacity:.28}50%{opacity:.7}}
    .spark{animation:tw 2s ease-in-out infinite;transform-box:fill-box;transform-origin:center}
    .spark.d2{animation-delay:.5s}.spark.d3{animation-delay:1s}.spark.d4{animation-delay:1.5s}
    @keyframes tw{0%,100%{opacity:0;transform:scale(.3) rotate(0deg)}50%{opacity:1;transform:scale(1) rotate(45deg)}}
    .wheel{animation:spin 1.6s linear infinite;transform-box:fill-box;transform-origin:center}
    @keyframes spin{to{transform:rotate(360deg)}}
    .neon{animation:hue 3s ease-in-out infinite}
    @keyframes hue{0%,100%{stroke:#21D4FD}50%{stroke:#C24BF5}}
    @media (prefers-reduced-motion:reduce){*{animation:none!important}}
  </style>

  <rect width="800" height="500" fill="#0B0B0D"/>
  <radialGradient id="bg" cx="50%" cy="45%" r="75%">
    <stop offset="0" stop-color="#101722"/><stop offset="1" stop-color="#0B0B0D"/>
  </radialGradient>
  <rect width="800" height="500" fill="url(#bg)"/>
  <rect x="18" y="18" width="764" height="464" fill="none" stroke="#C9A227" stroke-opacity=".35" stroke-width="2"/>

  <!-- アンダーグロウ -->
  <ellipse class="glow" cx="400" cy="412" rx="250" ry="20" fill="#21D4FD"/>

  <!-- スカイラインGT-R（BNR32）／ガンメタリック：ブリスターフェンダー＋トランクウイング -->
  <g>
    <!-- トランクウイング -->
    <path d="M214 314 V297 M270 312 V296" stroke="#2B2E33" stroke-width="5" stroke-linecap="round"/>
    <path d="M186 288 L302 285 L303 296 L187 299 Z" fill="#4B4F55" stroke="#2B2E33" stroke-width="3"/>
    <rect x="182" y="283" width="6" height="18" rx="2" fill="#2B2E33"/>
    <!-- ボディ（3ボックスの箱型シルエット・低いウェッジノーズ） -->
    <path d="M180 378
             C174 372 172 362 175 352
             L178 331
             C179 325 183 321 190 319
             C216 315 248 313 280 312
             L312 310
             C322 297 334 289 348 285
             C354 283 360 282 367 281
             C394 279 422 279 446 280
             C452 280 458 282 463 285
             C476 292 488 301 499 310
             L508 313
             C552 316 600 322 640 328
             C652 330 660 334 663 340
             L668 352
             C670 362 668 372 662 378
             L660 380
             L604 380 A 48 48 0 0 1 508 380
             L298 380 A 48 48 0 0 1 202 380 Z"
          fill="#4B4F55" stroke="#2B2E33" stroke-width="4"/>
    <!-- ブリスターフェンダー -->
    <path d="M206 344 A 52 52 0 0 1 294 344" fill="none" stroke="#5C6169" stroke-width="2.5"/>
    <path d="M512 346 A 52 52 0 0 1 600 346" fill="none" stroke="#5C6169" stroke-width="2.5"/>
    <!-- ウインドウ（細いピラーの直立気味グラスハウス） -->
    <path d="M358 287 C384 285 420 285 446 286 L474 310 L326 308 C334 298 345 291 358 287 Z" fill="#10171D" stroke="#5A6068" stroke-width="3"/>
    <line x1="412" y1="285" x2="414" y2="309" stroke="#5A6068" stroke-width="2.5"/>
    <!-- ドアライン・ハンドル・サイドライン -->
    <path d="M420 315 C419 336 419 358 421 378" fill="none" stroke="#33363B" stroke-width="2"/>
    <rect x="398" y="330" width="18" height="5" rx="2.5" fill="#5C6169"/>
    <path d="M198 352 H 648" stroke="#33363B" stroke-width="2.5"/>
    <path d="M300 376 H 508" stroke="#2B2E33" stroke-width="5" stroke-linecap="round"/>
    <!-- ランプ類 -->
    <rect x="640" y="334" width="20" height="9" rx="2" fill="#E8D9A0"/>
    <circle cx="188" cy="344" r="6" fill="#F35B45"/><circle cx="188" cy="344" r="2.5" fill="#7E2018"/>
    <line x1="300" y1="388" x2="508" y2="388" class="neon" stroke-width="3" opacity=".85"/>
  </g>

  <!-- 回転ホイール -->
  <g>
    <circle cx="250" cy="374" r="40" fill="#0B0B0D" stroke="#3A3A3A" stroke-width="11"/>
    <g class="wheel" stroke="#C9A227" stroke-width="4.5" stroke-linecap="round">
      <circle cx="250" cy="374" r="26" fill="#15151A"/>
      <line x1="250" y1="352" x2="250" y2="396"/><line x1="228" y1="374" x2="272" y2="374"/>
      <line x1="234" y1="358" x2="266" y2="390"/><line x1="266" y1="358" x2="234" y2="390"/>
    </g>
    <circle cx="250" cy="374" r="6" fill="#E8D9A0"/>
  </g>
  <g>
    <circle cx="556" cy="374" r="40" fill="#0B0B0D" stroke="#3A3A3A" stroke-width="11"/>
    <g class="wheel" stroke="#C9A227" stroke-width="4.5" stroke-linecap="round">
      <circle cx="556" cy="374" r="26" fill="#15151A"/>
      <line x1="556" y1="352" x2="556" y2="396"/><line x1="534" y1="374" x2="578" y2="374"/>
      <line x1="540" y1="358" x2="572" y2="390"/><line x1="572" y1="358" x2="540" y2="390"/>
    </g>
    <circle cx="556" cy="374" r="6" fill="#E8D9A0"/>
  </g>

  <!-- スパークル -->
  <g fill="#E8D9A0">
    <path class="spark" d="M170 180l6 16 16 6-16 6-6 16-6-16-16-6 16-6z"/>
    <path class="spark d2" d="M640 150l5 13 13 5-13 5-5 13-5-13-13-5 13-5z"/>
    <path class="spark d3" d="M520 210l4 10 10 4-10 4-4 10-4-10-10-4 10-4z"/>
    <path class="spark d4" d="M300 140l4 10 10 4-10 4-4 10-4-10-10-4 10-4z"/>
  </g>

  <text x="400" y="88" text-anchor="middle" fill="#E8D9A0" font-size="30" letter-spacing="12">CUSTOM</text>
  <text x="400" y="114" text-anchor="middle" fill="#8A8A8A" font-size="13" letter-spacing="6">DRESS-UP &amp; TUNING</text>
</svg>
