<svg xmlns="http://www.w3.org/2000/svg" viewBox="0 0 800 500" font-family="Georgia, 'Times New Roman', serif">
  <style>
    .glow{animation:pulse 2.2s ease-in-out infinite}
    @keyframes pulse{0%,100%{opacity:.28}50%{opacity:.7}}
    .spark{animation:tw 2s ease-in-out infinite;transform-box:fill-box;transform-origin:center}
    .spark.d2{animation-delay:.5s}.spark.d3{animation-delay:1s}.spark.d4{animation-delay:1.5s}
    @keyframes tw{0%,100%{opacity:0;transform:scale(.3) rotate(0deg)}50%{opacity:1;transform:scale(1) rotate(45deg)}}
    .wheel{animation:spin 1.6s linear infinite;transform-box:fill-box;transform-origin:center}
    @keyframes spin{to{transform:rotate(360deg)}}
    .neon{animation:hue 3s ease-in-out infinite}
    @keyframes hue{0%,100%{stroke:#21D4FD}50%{stroke:#C24BF5}}
    @media (prefers-reduced-motion:reduce){*{animation:none!important}}
  </style>

  <rect width="800" height="500" fill="#0B0B0D"/>
  <radialGradient id="bg" cx="50%" cy="45%" r="75%">
    <stop offset="0" stop-color="#101722"/><stop offset="1" stop-color="#0B0B0D"/>
  </radialGradient>
  <rect width="800" height="500" fill="url(#bg)"/>
  <rect x="18" y="18" width="764" height="464" fill="none" stroke="#C9A227" stroke-opacity=".35" stroke-width="2"/>

  <!-- アンダーグロウ -->
  <ellipse class="glow" cx="400" cy="412" rx="250" ry="20" fill="#21D4FD"/>

  <!-- スカイラインGT-R（BNR32）／ガンメタリック：実写トレース -->
  <defs>
    <linearGradient id="r32Body" x1="0" y1="260" x2="0" y2="412" gradientUnits="userSpaceOnUse">
      <stop offset="0" stop-color="#A6ACB4"/><stop offset=".16" stop-color="#7A8087"/>
      <stop offset=".45" stop-color="#4B4F55"/><stop offset=".78" stop-color="#303338"/><stop offset="1" stop-color="#1B1D20"/>
    </linearGradient>
    <linearGradient id="r32Glass" x1="0" y1="263" x2="0" y2="313" gradientUnits="userSpaceOnUse">
      <stop offset="0" stop-color="#55697F"/><stop offset=".5" stop-color="#202C38"/><stop offset="1" stop-color="#0C1319"/>
    </linearGradient>
    <linearGradient id="r32Wing" x1="0" y1="289" x2="0" y2="306" gradientUnits="userSpaceOnUse">
      <stop offset="0" stop-color="#7A8087"/><stop offset=".5" stop-color="#3A3E44"/><stop offset="1" stop-color="#1B1D20"/>
    </linearGradient>
    <radialGradient id="tireGR">
  <stop offset=".55" stop-color="#131418"/>
  <stop offset=".8" stop-color="#212329"/>
  <stop offset=".93" stop-color="#0B0C0E"/>
  <stop offset="1" stop-color="#050506"/>
</radialGradient>
<linearGradient id="rimGR" x1="0" y1="0" x2="1" y2="1">
  <stop offset="0" stop-color="#EED98B"/>
  <stop offset=".5" stop-color="#C9A227"/>
  <stop offset="1" stop-color="#8A6E16"/>
</linearGradient>
<filter id="softGR" x="-60%" y="-60%" width="220%" height="220%"><feGaussianBlur stdDeviation="6"/></filter>
    <clipPath id="r32Clip"><path d="M128 392 C122 391 119 388 119 384 L118 344 C118 337 120 331 124 328 C126 324 130 321 136 320 C160 317 186 316 210 315 L218 314 C240 296 260 281 280 272 C290 267 302 264 314 263 C346 261 380 261 410 263 C418 263 424 265 428 267 C446 279 464 291 480 302 L488 306 C524 309 560 313 592 317 C602 318 610 320 616 322 C624 325 630 329 633 334 C637 341 639 350 639 358 L638 374 C638 381 636 387 632 391 C629 394 625 396 620 396 L618 398 A 62 62 0 0 0 494 398 L440 398 C400 399 360 399 312 398 A 62 62 0 0 0 188 398 L150 397 C140 396 132 395 128 392 Z"/></clipPath>
    <clipPath id="r32GlassClip"><path d="M224 313 C243 298 263 283 284 273 C293 268 304 265 316 264 C348 262 380 262 410 264 C418 264 424 266 428 268 C446 277 464 289 480 301 L482 303 C400 307 310 310 224 313 Z"/></clipPath>
  </defs>
  <g>
    <!-- トランクスポイラー（BNR32純正） -->
    <path d="M152 316 L158 298 M186 314 L192 296" stroke="#23262B" stroke-width="5" stroke-linecap="round"/>
    <rect x="115" y="291" width="7" height="17" rx="2" fill="#23262B"/>
    <path d="M119 297 L216 289 L218 298 L121 306 Z" fill="url(#r32Wing)" stroke="#17191C" stroke-width="2"/>
    <path d="M120 297 L216 289 L216.5 292.5 L120.5 300.5 Z" fill="#A6ACB4" opacity=".7"/>
    <!-- ボディ（実写トレース輪郭） -->
    <path d="M128 392 C122 391 119 388 119 384 L118 344 C118 337 120 331 124 328 C126 324 130 321 136 320 C160 317 186 316 210 315 L218 314 C240 296 260 281 280 272 C290 267 302 264 314 263 C346 261 380 261 410 263 C418 263 424 265 428 267 C446 279 464 291 480 302 L488 306 C524 309 560 313 592 317 C602 318 610 320 616 322 C624 325 630 329 633 334 C637 341 639 350 639 358 L638 374 C638 381 636 387 632 391 C629 394 625 396 620 396 L618 398 A 62 62 0 0 0 494 398 L440 398 C400 399 360 399 312 398 A 62 62 0 0 0 188 398 L150 397 C140 396 132 395 128 392 Z" fill="url(#r32Body)" stroke="#17191C" stroke-width="2.5"/>
    <g clip-path="url(#r32Clip)">
      <rect x="110" y="378" width="560" height="24" fill="#000" opacity=".32"/>
      <circle cx="250" cy="380" r="66" fill="none" stroke="#000" stroke-width="13" opacity=".38"/>
      <circle cx="556" cy="380" r="66" fill="none" stroke="#000" stroke-width="13" opacity=".38"/>
      <path d="M492 309 C532 312 572 316 606 320 L604 325 C570 320 530 316 492 314 Z" fill="#FFF" opacity=".14"/>
      <path d="M316 266 C348 264 380 264 408 266 L408 270 C380 268 350 268 318 270 Z" fill="#FFF" opacity=".12"/>
      <path d="M138 322 C162 320 186 318 208 317 L208 321 C186 323 164 325 140 327 Z" fill="#FFF" opacity=".10"/>
      <path d="M228 316 C300 312 400 308 478 305 L478 309 C400 312 300 316 230 320 Z" fill="#FFF" opacity=".08"/>
      <rect x="112" y="322" width="16" height="70" fill="#000" opacity=".15"/>
    </g>
    <!-- パネルシーム -->
    <g fill="none" stroke="#26282C" stroke-width="1.8" opacity=".9">
      <path d="M486 308 C485 336 485 366 486 396"/>
      <path d="M352 313 C351 340 351 368 352 398"/>
      <path d="M218 315 C217 340 217 368 219 394"/>
    </g>
    <!-- DLOガラス -->
    <path d="M224 313 C243 298 263 283 284 273 C293 268 304 265 316 264 C348 262 380 262 410 264 C418 264 424 266 428 268 C446 277 464 289 480 301 L482 303 C400 307 310 310 224 313 Z" fill="url(#r32Glass)" stroke="#8A929C" stroke-width="2"/>
    <g clip-path="url(#r32GlassClip)">
      <path d="M330 266 L356 264 L300 312 L276 313 Z" fill="#FFF" opacity=".13"/>
      <path d="M400 264 L414 265 L368 308 L352 310 Z" fill="#FFF" opacity=".09"/>
    </g>
    <line x1="350" y1="263" x2="354" y2="310" stroke="#38424C" stroke-width="2.5"/>
    <line x1="296" y1="269" x2="292" y2="312" stroke="#38424C" stroke-width="2.5"/>
    <!-- ハンドル・ミラー -->
    <rect x="414" y="322" width="18" height="5" rx="2.5" fill="#6A7078" stroke="#26282C" stroke-width=".8"/>
    <path d="M476 306 L484 298" stroke="#17191C" stroke-width="3"/>
    <rect x="482" y="290" width="19" height="12" rx="4" fill="#3A3E44" stroke="#17191C" stroke-width="1.2" transform="rotate(12 491 296)"/>
    <rect x="490" y="293" width="9" height="7" rx="2" fill="#141A20" transform="rotate(12 494 296)"/>
    <!-- ランプ類（薄型ヘッド・丸型テール2灯・ウインカー） -->
    <rect x="606" y="319" width="26" height="10" rx="2" fill="#E8D9A0" stroke="#B9A75E" stroke-width="1.5"/>
    <rect x="610" y="321" width="9" height="6" rx="1" fill="#FFF7DE"/>
    <rect x="632" y="338" width="7" height="6" rx="1.5" fill="#F39800"/>
    <rect x="118" y="330" width="10" height="24" rx="2" fill="#17191C"/>
    <circle cx="124" cy="336" r="6" fill="#F35B45" opacity=".5" filter="url(#softGR)"/>
    <circle cx="124" cy="336" r="6" fill="#F35B45"/><circle cx="124" cy="336" r="2.5" fill="#7E2018"/>
    <circle cx="124" cy="348" r="5" fill="#F35B45"/><circle cx="124" cy="348" r="2" fill="#7E2018"/>
    <rect x="124" y="386" width="12" height="6" rx="3" fill="#8A9099"/>
    <!-- スカート・フロントリップ -->
    <path d="M310 396 L500 396 L500 403 L310 403 Z" fill="#1B1D20"/>
    <path d="M628 392 L652 390 L654 398 L634 401 Z" fill="#141518"/>
    <line x1="200" y1="406" x2="600" y2="406" class="neon" stroke-width="3" opacity=".85"/>
<g>
<circle cx="250" cy="374" r="38.0" fill="url(#tireGR)"/>
<circle cx="250" cy="374" r="38.0" fill="none" stroke="#000" stroke-width="1.0" opacity=".6"/>
<circle cx="250" cy="374" r="25.1" fill="#08090B"/>
<circle cx="250" cy="374" r="15.5" fill="#575B60"/>
<circle cx="250" cy="374" r="15.5" fill="none" stroke="#3E4247" stroke-width="1.3"/>
<circle cx="250" cy="374" r="8.5" fill="#34373B"/>
<rect x="232.6" y="368.2" width="4.5" height="11.6" rx="1.9" fill="#C9A227" stroke="#7E6414" stroke-width="0.8"/>
<g class="wheel">
<circle cx="250" cy="374" r="23.2" fill="none" stroke="url(#rimGR)" stroke-width="2.9"/>
<line x1="255.4" y1="375.0" x2="272.2" y2="372.5" stroke="url(#rimGR)" stroke-width="2.1" stroke-linecap="round"/>
<line x1="253.8" y1="377.9" x2="268.8" y2="385.8" stroke="url(#rimGR)" stroke-width="2.1" stroke-linecap="round"/>
<line x1="250.8" y1="379.4" x2="258.3" y2="394.6" stroke="url(#rimGR)" stroke-width="2.1" stroke-linecap="round"/>
<line x1="247.4" y1="378.8" x2="244.6" y2="395.6" stroke="url(#rimGR)" stroke-width="2.1" stroke-linecap="round"/>
<line x1="245.1" y1="376.4" x2="233.0" y2="388.3" stroke="url(#rimGR)" stroke-width="2.1" stroke-linecap="round"/>
<line x1="244.6" y1="373.0" x2="227.8" y2="375.5" stroke="url(#rimGR)" stroke-width="2.1" stroke-linecap="round"/>
<line x1="246.2" y1="370.1" x2="231.2" y2="362.2" stroke="url(#rimGR)" stroke-width="2.1" stroke-linecap="round"/>
<line x1="249.2" y1="368.6" x2="241.7" y2="353.4" stroke="url(#rimGR)" stroke-width="2.1" stroke-linecap="round"/>
<line x1="252.6" y1="369.2" x2="255.4" y2="352.4" stroke="url(#rimGR)" stroke-width="2.1" stroke-linecap="round"/>
<line x1="254.9" y1="371.6" x2="267.0" y2="359.7" stroke="url(#rimGR)" stroke-width="2.1" stroke-linecap="round"/>
<circle cx="250" cy="374" r="5.5" fill="#C9A227" stroke="#7E6414" stroke-width="1.0"/>
<circle cx="250" cy="374" r="2.3" fill="#3A3020"/>
</g></g>
<g>
<circle cx="556" cy="374" r="38.0" fill="url(#tireGR)"/>
<circle cx="556" cy="374" r="38.0" fill="none" stroke="#000" stroke-width="1.0" opacity=".6"/>
<circle cx="556" cy="374" r="25.1" fill="#08090B"/>
<circle cx="556" cy="374" r="15.5" fill="#575B60"/>
<circle cx="556" cy="374" r="15.5" fill="none" stroke="#3E4247" stroke-width="1.3"/>
<circle cx="556" cy="374" r="8.5" fill="#34373B"/>
<rect x="538.6" y="368.2" width="4.5" height="11.6" rx="1.9" fill="#C9A227" stroke="#7E6414" stroke-width="0.8"/>
<g class="wheel">
<circle cx="556" cy="374" r="23.2" fill="none" stroke="url(#rimGR)" stroke-width="2.9"/>
<line x1="561.4" y1="375.0" x2="578.2" y2="372.5" stroke="url(#rimGR)" stroke-width="2.1" stroke-linecap="round"/>
<line x1="559.8" y1="377.9" x2="574.8" y2="385.8" stroke="url(#rimGR)" stroke-width="2.1" stroke-linecap="round"/>
<line x1="556.8" y1="379.4" x2="564.3" y2="394.6" stroke="url(#rimGR)" stroke-width="2.1" stroke-linecap="round"/>
<line x1="553.4" y1="378.8" x2="550.6" y2="395.6" stroke="url(#rimGR)" stroke-width="2.1" stroke-linecap="round"/>
<line x1="551.1" y1="376.4" x2="539.0" y2="388.3" stroke="url(#rimGR)" stroke-width="2.1" stroke-linecap="round"/>
<line x1="550.6" y1="373.0" x2="533.8" y2="375.5" stroke="url(#rimGR)" stroke-width="2.1" stroke-linecap="round"/>
<line x1="552.2" y1="370.1" x2="537.2" y2="362.2" stroke="url(#rimGR)" stroke-width="2.1" stroke-linecap="round"/>
<line x1="555.2" y1="368.6" x2="547.7" y2="353.4" stroke="url(#rimGR)" stroke-width="2.1" stroke-linecap="round"/>
<line x1="558.6" y1="369.2" x2="561.4" y2="352.4" stroke="url(#rimGR)" stroke-width="2.1" stroke-linecap="round"/>
<line x1="560.9" y1="371.6" x2="573.0" y2="359.7" stroke="url(#rimGR)" stroke-width="2.1" stroke-linecap="round"/>
<circle cx="556" cy="374" r="5.5" fill="#C9A227" stroke="#7E6414" stroke-width="1.0"/>
<circle cx="556" cy="374" r="2.3" fill="#3A3020"/>
</g></g>
  </g>

  <!-- スパークル -->
  <g fill="#E8D9A0">
    <path class="spark" d="M170 180l6 16 16 6-16 6-6 16-6-16-16-6 16-6z"/>
    <path class="spark d2" d="M640 150l5 13 13 5-13 5-5 13-5-13-13-5 13-5z"/>
    <path class="spark d3" d="M520 210l4 10 10 4-10 4-4 10-4-10-10-4 10-4z"/>
    <path class="spark d4" d="M300 140l4 10 10 4-10 4-4 10-4-10-10-4 10-4z"/>
  </g>

  <text x="400" y="88" text-anchor="middle" fill="#E8D9A0" font-size="30" letter-spacing="12">CUSTOM</text>
  <text x="400" y="114" text-anchor="middle" fill="#8A8A8A" font-size="13" letter-spacing="6">DRESS-UP &amp; TUNING</text>
</svg>
