<svg xmlns="http://www.w3.org/2000/svg" viewBox="0 0 800 500" font-family="Georgia, 'Times New Roman', serif">
  <style>
    .glow{animation:pulse 2.2s ease-in-out infinite}
    @keyframes pulse{0%,100%{opacity:.28}50%{opacity:.7}}
    .spark{animation:tw 2s ease-in-out infinite;transform-box:fill-box;transform-origin:center}
    .spark.d2{animation-delay:.5s}.spark.d3{animation-delay:1s}.spark.d4{animation-delay:1.5s}
    @keyframes tw{0%,100%{opacity:0;transform:scale(.3) rotate(0deg)}50%{opacity:1;transform:scale(1) rotate(45deg)}}
    .wheel{animation:spin 1.6s linear infinite;transform-box:fill-box;transform-origin:center}
    @keyframes spin{to{transform:rotate(360deg)}}
    .neon{animation:hue 3s ease-in-out infinite}
    @keyframes hue{0%,100%{stroke:#21D4FD}50%{stroke:#C24BF5}}
    @media (prefers-reduced-motion:reduce){*{animation:none!important}}
  </style>

  <rect width="800" height="500" fill="#0B0B0D"/>
  <radialGradient id="bg" cx="50%" cy="45%" r="75%">
    <stop offset="0" stop-color="#101722"/><stop offset="1" stop-color="#0B0B0D"/>
  </radialGradient>
  <rect width="800" height="500" fill="url(#bg)"/>
  <rect x="18" y="18" width="764" height="464" fill="none" stroke="#C9A227" stroke-opacity=".35" stroke-width="2"/>

  <!-- アンダーグロウ -->
  <ellipse class="glow" cx="400" cy="412" rx="250" ry="20" fill="#21D4FD"/>

  <!-- スカイラインGT-R（BNR32）／ガンメタリック：リアル描画 -->
  <defs>
    <linearGradient id="r32Body" x1="0" y1="264" x2="0" y2="414" gradientUnits="userSpaceOnUse">
      <stop offset="0" stop-color="#A6ACB4"/><stop offset=".16" stop-color="#7A8087"/>
      <stop offset=".45" stop-color="#4B4F55"/><stop offset=".78" stop-color="#303338"/><stop offset="1" stop-color="#1B1D20"/>
    </linearGradient>
    <linearGradient id="r32Glass" x1="0" y1="266" x2="0" y2="315" gradientUnits="userSpaceOnUse">
      <stop offset="0" stop-color="#55697F"/><stop offset=".5" stop-color="#202C38"/><stop offset="1" stop-color="#0C1319"/>
    </linearGradient>
    <radialGradient id="tireGR">
  <stop offset=".55" stop-color="#131418"/>
  <stop offset=".8" stop-color="#212329"/>
  <stop offset=".93" stop-color="#0B0C0E"/>
  <stop offset="1" stop-color="#050506"/>
</radialGradient>
<linearGradient id="rimGR" x1="0" y1="0" x2="1" y2="1">
  <stop offset="0" stop-color="#EED98B"/>
  <stop offset=".5" stop-color="#C9A227"/>
  <stop offset="1" stop-color="#8A6E16"/>
</linearGradient>
<filter id="softGR" x="-60%" y="-60%" width="220%" height="220%"><feGaussianBlur stdDeviation="6"/></filter>
    <clipPath id="r32Clip"><path d="M126 380 C122 379 120 376 120 372 L120 358 C120 352 121 346 123 341 L125 330 C126 325 129 322 134 321 C158 318 186 317 214 316 L242 315 C254 300 270 285 288 276 C296 272 306 269 316 268 C356 266 400 265 436 265 C444 265 452 266 458 268 C472 279 486 292 498 303 L506 308 C544 311 588 314 624 318 C636 320 646 322 650 325 C654 328 656 333 656 339 L656 352 C656 360 654 368 650 373 C648 377 644 380 640 380 L604 380 A 48 48 0 0 0 508 380 L298 380 A 48 48 0 0 0 202 380 Z"/></clipPath>
    <clipPath id="r32GlassClip"><path d="M320 271 L452 268 L492 305 L312 314 C311 299 314 284 320 271 Z"/></clipPath>
  </defs>
  <g>
    <!-- トランクスポイラー -->
    <path d="M146 316 L149 301 M188 315 L190 300" stroke="#23262B" stroke-width="5" stroke-linecap="round"/>
    <path d="M128 296 L218 293 L219 302 L129 305 Z" fill="#3A3E44" stroke="#17191C" stroke-width="2"/>
    <path d="M128 296 L218 293 L218.5 296.5 L128.5 299.5 Z" fill="#7A8087" opacity=".7"/>
    <rect x="123" y="291" width="6" height="17" rx="2" fill="#23262B"/>
    <!-- ボディ -->
    <path d="M126 380 C122 379 120 376 120 372 L120 358 C120 352 121 346 123 341 L125 330 C126 325 129 322 134 321 C158 318 186 317 214 316 L242 315 C254 300 270 285 288 276 C296 272 306 269 316 268 C356 266 400 265 436 265 C444 265 452 266 458 268 C472 279 486 292 498 303 L506 308 C544 311 588 314 624 318 C636 320 646 322 650 325 C654 328 656 333 656 339 L656 352 C656 360 654 368 650 373 C648 377 644 380 640 380 L604 380 A 48 48 0 0 0 508 380 L298 380 A 48 48 0 0 0 202 380 Z" fill="url(#r32Body)" stroke="#17191C" stroke-width="2.5"/>
    <g clip-path="url(#r32Clip)">
      <rect x="110" y="392" width="560" height="24" fill="#000" opacity=".33"/>
      <circle cx="250" cy="374" r="52" fill="none" stroke="#000" stroke-width="12" opacity=".38"/>
      <circle cx="556" cy="374" r="52" fill="none" stroke="#000" stroke-width="12" opacity=".38"/>
      <path d="M508 312 C556 315 606 318 640 322 L638 327 C606 322 556 319 508 317 Z" fill="#FFF" opacity=".14"/>
      <path d="M318 270 C356 268 398 267 436 267 L436 271 C398 271 358 272 320 274 Z" fill="#FFF" opacity=".12"/>
      <path d="M136 324 C162 322 190 320 214 319 L214 323 C190 325 164 327 138 329 Z" fill="#FFF" opacity=".10"/>
      <rect x="112" y="322" width="20" height="70" fill="#000" opacity=".15"/>
    </g>
    <!-- パネルシーム -->
    <g fill="none" stroke="#26282C" stroke-width="1.8" opacity=".9">
      <path d="M354 316 C353 337 353 359 355 380"/>
      <path d="M498 312 C497 334 497 357 499 378"/>
      <path d="M506 309 C504 330 504 352 506 374"/>
      <path d="M242 316 C243 322 243 328 244 334"/>
    </g>
    <!-- ブリスターフェンダー -->
    <path d="M206 350 A 50 50 0 0 1 296 348" fill="none" stroke="#6A7078" stroke-width="2"/>
    <path d="M510 348 A 50 50 0 0 1 598 350" fill="none" stroke="#6A7078" stroke-width="2"/>
    <!-- ガラス -->
    <path d="M320 271 L452 268 L492 305 L312 314 C311 299 314 284 320 271 Z" fill="url(#r32Glass)" stroke="#8A929C" stroke-width="2"/>
    <g clip-path="url(#r32GlassClip)">
      <path d="M352 270 L378 269 L338 313 L318 313 Z" fill="#FFF" opacity=".13"/>
      <path d="M408 268 L420 268 L388 312 L374 312 Z" fill="#FFF" opacity=".09"/>
    </g>
    <line x1="450" y1="269" x2="454" y2="307" stroke="#38424C" stroke-width="2.5"/>
    <line x1="344" y1="271" x2="342" y2="313" stroke="#38424C" stroke-width="2.5"/>
    <!-- ハンドル・ベルトライン -->
    <rect x="410" y="324" width="18" height="5" rx="2.5" fill="#6A7078" stroke="#26282C" stroke-width=".8"/>
    <path d="M134 328 C260 322 420 316 504 312" fill="none" stroke="#26282C" stroke-width="2"/>
    <path d="M514 314 l-4 -8 q-2 -4 -7 -4 l-5 0 q-4 0 -4 4 q0 4 4 4 l16 4 z" fill="#3A3E44" stroke="#17191C" stroke-width="1"/>
    <!-- ランプ類 -->
    <rect x="630" y="325" width="22" height="9" rx="2" fill="#E8D9A0" stroke="#B9A75E" stroke-width="1.5"/>
    <rect x="633" y="327" width="7" height="5" rx="1" fill="#FFF7DE"/>
    <rect x="648" y="352" width="8" height="6" rx="2" fill="#F39800"/>
    <rect x="121" y="328" width="10" height="24" rx="2" fill="#17191C"/>
    <circle cx="126" cy="336" r="6" fill="#F35B45" opacity=".5" filter="url(#softGR)"/>
    <circle cx="126" cy="336" r="6" fill="#F35B45"/><circle cx="126" cy="336" r="2.5" fill="#7E2018"/>
    <circle cx="126" cy="347" r="5" fill="#F35B45"/><circle cx="126" cy="347" r="2" fill="#7E2018"/>
    <!-- スカート・ロッカー -->
    <path d="M300 374 L508 374 L508 380 L300 380 Z" fill="#1B1D20"/>
    <line x1="300" y1="388" x2="508" y2="388" class="neon" stroke-width="3" opacity=".85"/>
<g>
<circle cx="250" cy="374" r="45.4" fill="url(#tireGR)"/>
<circle cx="250" cy="374" r="45.4" fill="none" stroke="#000" stroke-width="1.2" opacity=".6"/>
<circle cx="250" cy="374" r="30.0" fill="#08090B"/>
<circle cx="250" cy="374" r="18.5" fill="#575B60"/>
<circle cx="250" cy="374" r="18.5" fill="none" stroke="#3E4247" stroke-width="1.5"/>
<circle cx="250" cy="374" r="10.2" fill="#34373B"/>
<rect x="229.2" y="367.1" width="5.4" height="13.9" rx="2.3" fill="#C9A227" stroke="#7E6414" stroke-width="0.9"/>
<g class="wheel">
<circle cx="250" cy="374" r="27.7" fill="none" stroke="url(#rimGR)" stroke-width="3.5"/>
<line x1="256.4" y1="375.1" x2="276.5" y2="372.1" stroke="url(#rimGR)" stroke-width="2.5" stroke-linecap="round"/>
<line x1="254.5" y1="378.7" x2="272.5" y2="388.1" stroke="url(#rimGR)" stroke-width="2.5" stroke-linecap="round"/>
<line x1="250.9" y1="380.5" x2="260.0" y2="398.6" stroke="url(#rimGR)" stroke-width="2.5" stroke-linecap="round"/>
<line x1="246.9" y1="379.8" x2="243.6" y2="399.8" stroke="url(#rimGR)" stroke-width="2.5" stroke-linecap="round"/>
<line x1="244.1" y1="376.9" x2="229.7" y2="391.1" stroke="url(#rimGR)" stroke-width="2.5" stroke-linecap="round"/>
<line x1="243.6" y1="372.9" x2="223.5" y2="375.9" stroke="url(#rimGR)" stroke-width="2.5" stroke-linecap="round"/>
<line x1="245.5" y1="369.3" x2="227.5" y2="359.9" stroke="url(#rimGR)" stroke-width="2.5" stroke-linecap="round"/>
<line x1="249.1" y1="367.5" x2="240.0" y2="349.4" stroke="url(#rimGR)" stroke-width="2.5" stroke-linecap="round"/>
<line x1="253.1" y1="368.2" x2="256.4" y2="348.2" stroke="url(#rimGR)" stroke-width="2.5" stroke-linecap="round"/>
<line x1="255.9" y1="371.1" x2="270.3" y2="356.9" stroke="url(#rimGR)" stroke-width="2.5" stroke-linecap="round"/>
<circle cx="250" cy="374" r="6.5" fill="#C9A227" stroke="#7E6414" stroke-width="1.2"/>
<circle cx="250" cy="374" r="2.7" fill="#3A3020"/>
</g></g>
<g>
<circle cx="556" cy="374" r="45.4" fill="url(#tireGR)"/>
<circle cx="556" cy="374" r="45.4" fill="none" stroke="#000" stroke-width="1.2" opacity=".6"/>
<circle cx="556" cy="374" r="30.0" fill="#08090B"/>
<circle cx="556" cy="374" r="18.5" fill="#575B60"/>
<circle cx="556" cy="374" r="18.5" fill="none" stroke="#3E4247" stroke-width="1.5"/>
<circle cx="556" cy="374" r="10.2" fill="#34373B"/>
<rect x="535.2" y="367.1" width="5.4" height="13.9" rx="2.3" fill="#C9A227" stroke="#7E6414" stroke-width="0.9"/>
<g class="wheel">
<circle cx="556" cy="374" r="27.7" fill="none" stroke="url(#rimGR)" stroke-width="3.5"/>
<line x1="562.4" y1="375.1" x2="582.5" y2="372.1" stroke="url(#rimGR)" stroke-width="2.5" stroke-linecap="round"/>
<line x1="560.5" y1="378.7" x2="578.5" y2="388.1" stroke="url(#rimGR)" stroke-width="2.5" stroke-linecap="round"/>
<line x1="556.9" y1="380.5" x2="566.0" y2="398.6" stroke="url(#rimGR)" stroke-width="2.5" stroke-linecap="round"/>
<line x1="552.9" y1="379.8" x2="549.6" y2="399.8" stroke="url(#rimGR)" stroke-width="2.5" stroke-linecap="round"/>
<line x1="550.1" y1="376.9" x2="535.7" y2="391.1" stroke="url(#rimGR)" stroke-width="2.5" stroke-linecap="round"/>
<line x1="549.6" y1="372.9" x2="529.5" y2="375.9" stroke="url(#rimGR)" stroke-width="2.5" stroke-linecap="round"/>
<line x1="551.5" y1="369.3" x2="533.5" y2="359.9" stroke="url(#rimGR)" stroke-width="2.5" stroke-linecap="round"/>
<line x1="555.1" y1="367.5" x2="546.0" y2="349.4" stroke="url(#rimGR)" stroke-width="2.5" stroke-linecap="round"/>
<line x1="559.1" y1="368.2" x2="562.4" y2="348.2" stroke="url(#rimGR)" stroke-width="2.5" stroke-linecap="round"/>
<line x1="561.9" y1="371.1" x2="576.3" y2="356.9" stroke="url(#rimGR)" stroke-width="2.5" stroke-linecap="round"/>
<circle cx="556" cy="374" r="6.5" fill="#C9A227" stroke="#7E6414" stroke-width="1.2"/>
<circle cx="556" cy="374" r="2.7" fill="#3A3020"/>
</g></g>
  </g>

  <!-- スパークル -->
  <g fill="#E8D9A0">
    <path class="spark" d="M170 180l6 16 16 6-16 6-6 16-6-16-16-6 16-6z"/>
    <path class="spark d2" d="M640 150l5 13 13 5-13 5-5 13-5-13-13-5 13-5z"/>
    <path class="spark d3" d="M520 210l4 10 10 4-10 4-4 10-4-10-10-4 10-4z"/>
    <path class="spark d4" d="M300 140l4 10 10 4-10 4-4 10-4-10-10-4 10-4z"/>
  </g>

  <text x="400" y="88" text-anchor="middle" fill="#E8D9A0" font-size="30" letter-spacing="12">CUSTOM</text>
  <text x="400" y="114" text-anchor="middle" fill="#8A8A8A" font-size="13" letter-spacing="6">DRESS-UP &amp; TUNING</text>
</svg>
