<svg xmlns="http://www.w3.org/2000/svg" viewBox="0 0 800 500" font-family="Georgia, 'Times New Roman', serif">
  <style>
    .lift{animation:lift 4s ease-in-out infinite}
    @keyframes lift{0%,100%{transform:translateY(0)}50%{transform:translateY(-46px)}}
    .arm{animation:lift 4s ease-in-out infinite}
    .wrench{animation:turn 2.4s ease-in-out infinite;transform-box:fill-box;transform-origin:center}
    @keyframes turn{0%,100%{transform:rotate(-14deg)}50%{transform:rotate(16deg)}}
    .spark{animation:tw 1.8s ease-in-out infinite;transform-box:fill-box;transform-origin:center}
    .spark.d2{animation-delay:.6s}.spark.d3{animation-delay:1.2s}
    @keyframes tw{0%,100%{opacity:0;transform:scale(.4)}50%{opacity:1;transform:scale(1)}}
    @media (prefers-reduced-motion:reduce){*{animation:none!important}}
  </style>

  <rect width="800" height="500" fill="#0B0B0D"/>
  <radialGradient id="bg" cx="50%" cy="40%" r="75%">
    <stop offset="0" stop-color="#151A1E"/><stop offset="1" stop-color="#0B0B0D"/>
  </radialGradient>
  <rect width="800" height="500" fill="url(#bg)"/>
  <rect x="18" y="18" width="764" height="464" fill="none" stroke="#C9A227" stroke-opacity=".35" stroke-width="2"/>

  <!-- リフト支柱 -->
  <rect x="150" y="120" width="26" height="300" fill="#1E1E24" stroke="#C9A227" stroke-width="3"/>
  <rect x="624" y="120" width="26" height="300" fill="#1E1E24" stroke="#C9A227" stroke-width="3"/>
  <rect x="130" y="410" width="66" height="16" rx="4" fill="#26262E" stroke="#C9A227" stroke-width="2.5"/>
  <rect x="604" y="410" width="66" height="16" rx="4" fill="#26262E" stroke="#C9A227" stroke-width="2.5"/>

  <!-- リフトアーム＋車（昇降） -->
  <g class="lift">
    <rect x="176" y="330" width="448" height="12" rx="5" fill="#C9A227"/>
    <!-- 車体（Porsche 987 Cayman／キャララホワイト・右向き：丸いルーフとリアハッチ、ウイングレス） -->
    <g transform="translate(832 0) scale(-1 1)">
    <defs>
      <linearGradient id="pBody" x1="0" y1="237" x2="0" y2="354" gradientUnits="userSpaceOnUse">
        <stop offset="0" stop-color="#FFFFFF"/><stop offset=".22" stop-color="#F4F2EC"/>
        <stop offset=".5" stop-color="#E9E7E2"/><stop offset=".78" stop-color="#C7C4BA"/><stop offset="1" stop-color="#97948A"/>
      </linearGradient>
      <linearGradient id="pGlass" x1="0" y1="239" x2="0" y2="284" gradientUnits="userSpaceOnUse">
        <stop offset="0" stop-color="#5A6E84"/><stop offset=".5" stop-color="#22303E"/><stop offset="1" stop-color="#0C1319"/>
      </linearGradient>
      <radialGradient id="tireGP">
  <stop offset=".55" stop-color="#131418"/>
  <stop offset=".8" stop-color="#212329"/>
  <stop offset=".93" stop-color="#0B0C0E"/>
  <stop offset="1" stop-color="#050506"/>
</radialGradient>
<linearGradient id="rimGP" x1="0" y1="0" x2="1" y2="1">
  <stop offset="0" stop-color="#EED98B"/>
  <stop offset=".5" stop-color="#C9A227"/>
  <stop offset="1" stop-color="#8A6E16"/>
</linearGradient>
<filter id="softGP" x="-60%" y="-60%" width="220%" height="220%"><feGaussianBlur stdDeviation="6"/></filter>
      <clipPath id="pClip"><path d="M226 336 C222 335 220 332 220 328 L219 314 C219 306 222 299 228 294 C236 288 248 284 262 282 C276 280 292 279 306 280 C318 281 328 282 336 284 C346 269 359 255 374 247 C384 241 396 238 407 239 C418 240 428 244 436 249 C452 259 468 269 482 277 C494 283 508 287 522 290 C540 293 556 296 570 300 C588 305 600 311 604 318 C607 324 606 330 600 334 C597 336 593 336 589 336 L554 336 A 30 30 0 0 0 494 336 L338 336 A 30 30 0 0 0 278 336 Z"/></clipPath>
      <clipPath id="pGlassClip"><path d="M342 283 C352 268 364 256 378 249 C388 244 398 242 408 243 C418 244 427 248 434 253 C448 262 462 272 474 279 C428 281 384 282 342 283 Z"/></clipPath>
    </defs>
    <path d="M226 336 C222 335 220 332 220 328 L219 314 C219 306 222 299 228 294 C236 288 248 284 262 282 C276 280 292 279 306 280 C318 281 328 282 336 284 C346 269 359 255 374 247 C384 241 396 238 407 239 C418 240 428 244 436 249 C452 259 468 269 482 277 C494 283 508 287 522 290 C540 293 556 296 570 300 C588 305 600 311 604 318 C607 324 606 330 600 334 C597 336 593 336 589 336 L554 336 A 30 30 0 0 0 494 336 L338 336 A 30 30 0 0 0 278 336 Z" fill="url(#pBody)" stroke="#8E8B80" stroke-width="2"/>
    <g clip-path="url(#pClip)">
      <rect x="210" y="326" width="400" height="14" fill="#000" opacity=".22"/>
      <circle cx="308" cy="330" r="34" fill="none" stroke="#000" stroke-width="9" opacity=".28"/>
      <circle cx="524" cy="330" r="34" fill="none" stroke="#000" stroke-width="9" opacity=".28"/>
      <path d="M262 282 C278 280 294 279 308 280 L308 284 C294 283 278 284 264 286 Z" fill="#FFF" opacity=".5"/>
      <path d="M480 278 C500 284 522 289 544 293 L542 297 C520 293 498 288 478 282 Z" fill="#FFF" opacity=".35"/>
      <path d="M226 300 C300 296 420 296 500 300 L500 316 C420 310 300 310 226 316 Z" fill="#8E8B82" opacity=".18"/>
    </g>
    <g fill="none" stroke="#B5B2A8" stroke-width="1.6" opacity=".95">
      <path d="M340 286 C338 302 338 318 340 334"/>
      <path d="M460 292 C459 306 459 320 461 334"/>
      <path d="M336 285 C326 282 316 281 306 281"/>
    </g>
    <path d="M284 311 A 28 28 0 0 1 332 309" fill="none" stroke="#B5B2A8" stroke-width="1.6"/>
    <path d="M498 306 A 30 30 0 0 1 550 309" fill="none" stroke="#B5B2A8" stroke-width="1.6"/>
    <path d="M342 283 C352 268 364 256 378 249 C388 244 398 242 408 243 C418 244 427 248 434 253 C448 262 462 272 474 279 C428 281 384 282 342 283 Z" fill="url(#pGlass)" stroke="#8A929C" stroke-width="1.8"/>
    <g clip-path="url(#pGlassClip)">
      <path d="M382 248 L400 246 L368 282 L352 282 Z" fill="#FFF" opacity=".14"/>
    </g>
    <line x1="430" y1="252" x2="436" y2="277" stroke="#38424C" stroke-width="2"/>
    <!-- サイドインテーク -->
    <path d="M462 292 L486 289 L490 312 L468 314 Z" fill="#0C0D10"/>
    <path d="M466 296 L486 293 M467 303 L487 300" stroke="#1E2126" stroke-width="1.6" fill="none"/>
    <rect x="396" y="292" width="16" height="5" rx="2.5" fill="#D5D2C9" stroke="#8E8B80" stroke-width="1"/>
    <!-- ランプ類 -->
    <ellipse cx="246" cy="292" rx="13" ry="7" fill="#E8D9A0" stroke="#B9A75E" stroke-width="1.5" transform="rotate(-22 246 292)"/>
    <circle cx="242" cy="294" r="3.5" fill="#FFF7DE" stroke="#8A7A3C" stroke-width="1"/>
    <rect x="596" y="315" width="10" height="6" rx="2.5" fill="#F35B45" opacity=".5" filter="url(#softGP)"/>
    <rect x="596" y="315" width="10" height="6" rx="2.5" fill="#F35B45"/>
    <!-- フロント下部・ロッカー -->
    <path d="M222 324 L246 321 L247 331 L223 333 Z" fill="#0C0D10"/>
    <path d="M340 330 L460 330 L460 336 L340 336 Z" fill="#0C0D10"/>
<g>
<circle cx="308" cy="330" r="28.0" fill="url(#tireGP)"/>
<circle cx="308" cy="330" r="28.0" fill="none" stroke="#000" stroke-width="0.7" opacity=".6"/>
<circle cx="308" cy="330" r="18.5" fill="#08090B"/>
<circle cx="308" cy="330" r="11.4" fill="#575B60"/>
<circle cx="308" cy="330" r="11.4" fill="none" stroke="#3E4247" stroke-width="0.9"/>
<circle cx="308" cy="330" r="6.3" fill="#34373B"/>
<rect x="295.2" y="325.7" width="3.3" height="8.5" rx="1.4" fill="#C9A227" stroke="#7E6414" stroke-width="0.6"/>
<g class="wheelless">
<circle cx="308" cy="330" r="17.1" fill="none" stroke="url(#rimGP)" stroke-width="2.1"/>
<line x1="312.0" y1="330.7" x2="324.3" y2="328.9" stroke="url(#rimGP)" stroke-width="1.5" stroke-linecap="round"/>
<line x1="310.8" y1="332.9" x2="321.9" y2="338.7" stroke="url(#rimGP)" stroke-width="1.5" stroke-linecap="round"/>
<line x1="308.6" y1="334.0" x2="314.1" y2="345.2" stroke="url(#rimGP)" stroke-width="1.5" stroke-linecap="round"/>
<line x1="306.1" y1="333.6" x2="304.0" y2="345.9" stroke="url(#rimGP)" stroke-width="1.5" stroke-linecap="round"/>
<line x1="304.4" y1="331.8" x2="295.4" y2="340.5" stroke="url(#rimGP)" stroke-width="1.5" stroke-linecap="round"/>
<line x1="304.0" y1="329.3" x2="291.7" y2="331.1" stroke="url(#rimGP)" stroke-width="1.5" stroke-linecap="round"/>
<line x1="305.2" y1="327.1" x2="294.1" y2="321.3" stroke="url(#rimGP)" stroke-width="1.5" stroke-linecap="round"/>
<line x1="307.4" y1="326.0" x2="301.9" y2="314.8" stroke="url(#rimGP)" stroke-width="1.5" stroke-linecap="round"/>
<line x1="309.9" y1="326.4" x2="312.0" y2="314.1" stroke="url(#rimGP)" stroke-width="1.5" stroke-linecap="round"/>
<line x1="311.6" y1="328.2" x2="320.6" y2="319.5" stroke="url(#rimGP)" stroke-width="1.5" stroke-linecap="round"/>
<circle cx="308" cy="330" r="4.0" fill="#C9A227" stroke="#7E6414" stroke-width="0.7"/>
<circle cx="308" cy="330" r="1.7" fill="#3A3020"/>
</g></g>
<g>
<circle cx="524" cy="330" r="28.0" fill="url(#tireGP)"/>
<circle cx="524" cy="330" r="28.0" fill="none" stroke="#000" stroke-width="0.7" opacity=".6"/>
<circle cx="524" cy="330" r="18.5" fill="#08090B"/>
<circle cx="524" cy="330" r="11.4" fill="#575B60"/>
<circle cx="524" cy="330" r="11.4" fill="none" stroke="#3E4247" stroke-width="0.9"/>
<circle cx="524" cy="330" r="6.3" fill="#34373B"/>
<rect x="511.2" y="325.7" width="3.3" height="8.5" rx="1.4" fill="#C9A227" stroke="#7E6414" stroke-width="0.6"/>
<g class="wheelless">
<circle cx="524" cy="330" r="17.1" fill="none" stroke="url(#rimGP)" stroke-width="2.1"/>
<line x1="528.0" y1="330.7" x2="540.3" y2="328.9" stroke="url(#rimGP)" stroke-width="1.5" stroke-linecap="round"/>
<line x1="526.8" y1="332.9" x2="537.9" y2="338.7" stroke="url(#rimGP)" stroke-width="1.5" stroke-linecap="round"/>
<line x1="524.6" y1="334.0" x2="530.1" y2="345.2" stroke="url(#rimGP)" stroke-width="1.5" stroke-linecap="round"/>
<line x1="522.1" y1="333.6" x2="520.0" y2="345.9" stroke="url(#rimGP)" stroke-width="1.5" stroke-linecap="round"/>
<line x1="520.4" y1="331.8" x2="511.4" y2="340.5" stroke="url(#rimGP)" stroke-width="1.5" stroke-linecap="round"/>
<line x1="520.0" y1="329.3" x2="507.7" y2="331.1" stroke="url(#rimGP)" stroke-width="1.5" stroke-linecap="round"/>
<line x1="521.2" y1="327.1" x2="510.1" y2="321.3" stroke="url(#rimGP)" stroke-width="1.5" stroke-linecap="round"/>
<line x1="523.4" y1="326.0" x2="517.9" y2="314.8" stroke="url(#rimGP)" stroke-width="1.5" stroke-linecap="round"/>
<line x1="525.9" y1="326.4" x2="528.0" y2="314.1" stroke="url(#rimGP)" stroke-width="1.5" stroke-linecap="round"/>
<line x1="527.6" y1="328.2" x2="536.6" y2="319.5" stroke="url(#rimGP)" stroke-width="1.5" stroke-linecap="round"/>
<circle cx="524" cy="330" r="4.0" fill="#C9A227" stroke="#7E6414" stroke-width="0.7"/>
<circle cx="524" cy="330" r="1.7" fill="#3A3020"/>
</g></g>
    </g>
  </g>

  <!-- レンチ（揺れる） -->
  <g class="wrench">
    <path d="M700 396l-44 44a12 12 0 0 1-17-17l44-44a26 26 0 0 1 34-34l-14 14 17 17 14-14a26 26 0 0 1-34 34z" fill="#C9A227" opacity=".92"/>
  </g>

  <!-- スパーク -->
  <g fill="#E8D9A0">
    <path class="spark" d="M120 200l4 10 10 4-10 4-4 10-4-10-10-4 10-4z"/>
    <path class="spark d2" d="M690 160l4 10 10 4-10 4-4 10-4-10-10-4 10-4z"/>
    <path class="spark d3" d="M400 120l3 8 8 3-8 3-3 8-3-8-8-3 8-3z"/>
  </g>

  <text x="400" y="78" text-anchor="middle" fill="#E8D9A0" font-size="30" letter-spacing="10">MAINTENANCE</text>
  <text x="400" y="106" text-anchor="middle" fill="#8A8A8A" font-size="13" letter-spacing="6">SERVICE &amp; REPAIR</text>
</svg>
