<svg xmlns="http://www.w3.org/2000/svg" viewBox="0 0 800 500" font-family="Georgia, 'Times New Roman', serif">
  <style>
    .lift{animation:lift 4s ease-in-out infinite}
    @keyframes lift{0%,100%{transform:translateY(0)}50%{transform:translateY(-46px)}}
    .arm{animation:lift 4s ease-in-out infinite}
    .wrench{animation:turn 2.4s ease-in-out infinite;transform-box:fill-box;transform-origin:center}
    @keyframes turn{0%,100%{transform:rotate(-14deg)}50%{transform:rotate(16deg)}}
    .spark{animation:tw 1.8s ease-in-out infinite;transform-box:fill-box;transform-origin:center}
    .spark.d2{animation-delay:.6s}.spark.d3{animation-delay:1.2s}
    @keyframes tw{0%,100%{opacity:0;transform:scale(.4)}50%{opacity:1;transform:scale(1)}}
    @media (prefers-reduced-motion:reduce){*{animation:none!important}}
  </style>

  <rect width="800" height="500" fill="#0B0B0D"/>
  <radialGradient id="bg" cx="50%" cy="40%" r="75%">
    <stop offset="0" stop-color="#151A1E"/><stop offset="1" stop-color="#0B0B0D"/>
  </radialGradient>
  <rect width="800" height="500" fill="url(#bg)"/>
  <rect x="18" y="18" width="764" height="464" fill="none" stroke="#C9A227" stroke-opacity=".35" stroke-width="2"/>

  <!-- リフト支柱 -->
  <rect x="150" y="120" width="26" height="300" fill="#1E1E24" stroke="#C9A227" stroke-width="3"/>
  <rect x="624" y="120" width="26" height="300" fill="#1E1E24" stroke="#C9A227" stroke-width="3"/>
  <rect x="130" y="410" width="66" height="16" rx="4" fill="#26262E" stroke="#C9A227" stroke-width="2.5"/>
  <rect x="604" y="410" width="66" height="16" rx="4" fill="#26262E" stroke="#C9A227" stroke-width="2.5"/>

  <!-- リフトアーム＋車（昇降） -->
  <g class="lift">
    <rect x="176" y="330" width="448" height="12" rx="5" fill="#C9A227"/>
    <!-- 車体（Porsche 987 Cayman／キャララホワイト・右向き：丸いルーフとリアハッチ、ウイングレス） -->
    <g transform="translate(832 0) scale(-1 1)">
      <path d="M262 336
               C255 331 252 323 255 315
               C257 308 262 303 270 300
               C286 295 304 292 322 290
               L352 288
               C364 273 380 264 400 260
               C416 257 431 258 445 263
               C463 270 480 279 496 289
               C512 295 528 301 542 308
               C554 314 562 320 566 326
               C569 331 568 334 563 336
               L554 336 A 30 30 0 0 1 494 336
               L338 336 A 30 30 0 0 1 278 336 Z"
            fill="#E9E7E2" stroke="#9A988F" stroke-width="3"/>
      <!-- フェンダーアーチの峰 -->
      <path d="M282 313 A 30 30 0 0 1 334 311" fill="none" stroke="#C6C3B9" stroke-width="2"/>
      <path d="M500 310 A 34 34 0 0 1 552 313" fill="none" stroke="#C6C3B9" stroke-width="2"/>
      <!-- キャビングラス -->
      <path d="M358 288 C370 275 385 267 403 264 C418 262 432 264 444 269 C460 276 476 285 490 294 L456 297 C422 294 388 291 358 288 Z" fill="#10171D" stroke="#5A6068" stroke-width="2.5"/>
      <line x1="440" y1="267" x2="444" y2="294" stroke="#5A6068" stroke-width="2"/>
      <!-- サイドインテーク・ドアライン -->
      <path d="M470 300 L498 297 L502 322 L478 324 Z" fill="#141418" stroke="#26262A" stroke-width="2"/>
      <path d="M370 290 C368 304 368 318 371 332" fill="none" stroke="#C6C3B9" stroke-width="2"/>
      <rect x="436" y="300" width="16" height="5" rx="2.5" fill="#D5D2C9" stroke="#9A988F" stroke-width="1.2"/>
      <ellipse cx="274" cy="308" rx="10" ry="5.5" fill="#E8D9A0" stroke="#B9A75E" stroke-width="1.5"/>
      <rect x="556" y="308" width="12" height="5" rx="2.5" fill="#F35B45"/>
      <circle cx="308" cy="330" r="24" fill="#0B0B0D" stroke="#C9A227" stroke-width="4"/>
      <circle cx="308" cy="330" r="8" fill="#15151A" stroke="#E8D9A0" stroke-width="3"/>
      <circle cx="524" cy="330" r="24" fill="#0B0B0D" stroke="#C9A227" stroke-width="4"/>
      <circle cx="524" cy="330" r="8" fill="#15151A" stroke="#E8D9A0" stroke-width="3"/>
    </g>
  </g>

  <!-- レンチ（揺れる） -->
  <g class="wrench">
    <path d="M700 396l-44 44a12 12 0 0 1-17-17l44-44a26 26 0 0 1 34-34l-14 14 17 17 14-14a26 26 0 0 1-34 34z" fill="#C9A227" opacity=".92"/>
  </g>

  <!-- スパーク -->
  <g fill="#E8D9A0">
    <path class="spark" d="M120 200l4 10 10 4-10 4-4 10-4-10-10-4 10-4z"/>
    <path class="spark d2" d="M690 160l4 10 10 4-10 4-4 10-4-10-10-4 10-4z"/>
    <path class="spark d3" d="M400 120l3 8 8 3-8 3-3 8-3-8-8-3 8-3z"/>
  </g>

  <text x="400" y="78" text-anchor="middle" fill="#E8D9A0" font-size="30" letter-spacing="10">MAINTENANCE</text>
  <text x="400" y="106" text-anchor="middle" fill="#8A8A8A" font-size="13" letter-spacing="6">SERVICE &amp; REPAIR</text>
</svg>
