<svg xmlns="http://www.w3.org/2000/svg" viewBox="0 0 800 500" font-family="Georgia, 'Times New Roman', serif">
  <style>
    .lift{animation:lift 4s ease-in-out infinite}
    @keyframes lift{0%,100%{transform:translateY(0)}50%{transform:translateY(-46px)}}
    .arm{animation:lift 4s ease-in-out infinite}
    .wrench{animation:turn 2.4s ease-in-out infinite;transform-box:fill-box;transform-origin:center}
    @keyframes turn{0%,100%{transform:rotate(-14deg)}50%{transform:rotate(16deg)}}
    .spark{animation:tw 1.8s ease-in-out infinite;transform-box:fill-box;transform-origin:center}
    .spark.d2{animation-delay:.6s}.spark.d3{animation-delay:1.2s}
    @keyframes tw{0%,100%{opacity:0;transform:scale(.4)}50%{opacity:1;transform:scale(1)}}
    @media (prefers-reduced-motion:reduce){*{animation:none!important}}
  </style>

  <rect width="800" height="500" fill="#0B0B0D"/>
  <radialGradient id="bg" cx="50%" cy="40%" r="75%">
    <stop offset="0" stop-color="#151A1E"/><stop offset="1" stop-color="#0B0B0D"/>
  </radialGradient>
  <rect width="800" height="500" fill="url(#bg)"/>
  <rect x="18" y="18" width="764" height="464" fill="none" stroke="#C9A227" stroke-opacity=".35" stroke-width="2"/>

  <!-- リフト支柱 -->
  <rect x="150" y="120" width="26" height="300" fill="#1E1E24" stroke="#C9A227" stroke-width="3"/>
  <rect x="624" y="120" width="26" height="300" fill="#1E1E24" stroke="#C9A227" stroke-width="3"/>
  <rect x="130" y="410" width="66" height="16" rx="4" fill="#26262E" stroke="#C9A227" stroke-width="2.5"/>
  <rect x="604" y="410" width="66" height="16" rx="4" fill="#26262E" stroke="#C9A227" stroke-width="2.5"/>

  <!-- リフトアーム＋車（昇降） -->
  <g class="lift">
    <rect x="176" y="330" width="448" height="12" rx="5" fill="#C9A227"/>
    <!-- 車体（Porsche 987 Cayman／キャララホワイト・右向き：丸いルーフとリアハッチ、ウイングレス） -->
    <g transform="translate(832 0) scale(-1 1)">
      <path d="M226 336
               C222 335 220 332 220 328
               L219 314
               C219 306 222 299 228 294
               C236 288 248 284 262 282
               C276 280 292 279 306 280
               C318 281 328 282 336 284
               C346 269 359 255 374 247
               C384 241 396 238 407 239
               C418 240 428 244 436 249
               C452 259 468 269 482 277
               C494 283 508 287 522 290
               C540 293 556 296 570 300
               C588 305 600 311 604 318
               C607 324 606 330 600 334
               C597 336 593 336 589 336
               L554 336 A 30 30 0 0 0 494 336
               L338 336 A 30 30 0 0 0 278 336 Z"
            fill="#E9E7E2" stroke="#9A988F" stroke-width="3"/>
      <!-- フェンダーアーチの峰 -->
      <path d="M284 311 A 28 28 0 0 1 332 309" fill="none" stroke="#C6C3B9" stroke-width="2"/>
      <path d="M498 306 A 30 30 0 0 1 550 309" fill="none" stroke="#C6C3B9" stroke-width="2"/>
      <!-- キャビングラス -->
      <path d="M342 283 C352 268 364 256 378 249 C388 244 398 242 408 243 C418 244 427 248 434 253 C448 262 462 272 474 279 C428 281 384 282 342 283 Z" fill="#10171D" stroke="#5A6068" stroke-width="2.5"/>
      <line x1="430" y1="252" x2="436" y2="277" stroke="#5A6068" stroke-width="2"/>
      <!-- サイドインテーク・ドアライン -->
      <path d="M462 292 L486 289 L490 312 L468 314 Z" fill="#141418" stroke="#26262A" stroke-width="2"/>
      <path d="M340 286 C338 302 338 318 340 334 M460 292 C459 306 459 320 461 334" fill="none" stroke="#C6C3B9" stroke-width="2"/>
      <rect x="396" y="292" width="16" height="5" rx="2.5" fill="#D5D2C9" stroke="#9A988F" stroke-width="1.2"/>
      <ellipse cx="246" cy="292" rx="13" ry="7" fill="#E8D9A0" stroke="#B9A75E" stroke-width="1.5" transform="rotate(-22 246 292)"/>
      <rect x="598" y="316" width="9" height="6" rx="2.5" fill="#F35B45"/>
      <circle cx="308" cy="330" r="24" fill="#0B0B0D" stroke="#C9A227" stroke-width="4"/>
      <circle cx="308" cy="330" r="8" fill="#15151A" stroke="#E8D9A0" stroke-width="3"/>
      <circle cx="524" cy="330" r="24" fill="#0B0B0D" stroke="#C9A227" stroke-width="4"/>
      <circle cx="524" cy="330" r="8" fill="#15151A" stroke="#E8D9A0" stroke-width="3"/>
    </g>
  </g>

  <!-- レンチ（揺れる） -->
  <g class="wrench">
    <path d="M700 396l-44 44a12 12 0 0 1-17-17l44-44a26 26 0 0 1 34-34l-14 14 17 17 14-14a26 26 0 0 1-34 34z" fill="#C9A227" opacity=".92"/>
  </g>

  <!-- スパーク -->
  <g fill="#E8D9A0">
    <path class="spark" d="M120 200l4 10 10 4-10 4-4 10-4-10-10-4 10-4z"/>
    <path class="spark d2" d="M690 160l4 10 10 4-10 4-4 10-4-10-10-4 10-4z"/>
    <path class="spark d3" d="M400 120l3 8 8 3-8 3-3 8-3-8-8-3 8-3z"/>
  </g>

  <text x="400" y="78" text-anchor="middle" fill="#E8D9A0" font-size="30" letter-spacing="10">MAINTENANCE</text>
  <text x="400" y="106" text-anchor="middle" fill="#8A8A8A" font-size="13" letter-spacing="6">SERVICE &amp; REPAIR</text>
</svg>
