<svg xmlns="http://www.w3.org/2000/svg" viewBox="0 0 800 500" font-family="Georgia, 'Times New Roman', serif">
  <style>
    .rays{animation:spin 14s linear infinite;transform-box:fill-box;transform-origin:center}
    @keyframes spin{to{transform:rotate(360deg)}}
    .tag{animation:swing 2.6s ease-in-out infinite;transform-origin:648px 128px}
    @keyframes swing{0%,100%{transform:rotate(-8deg)}50%{transform:rotate(8deg)}}
    .shine{animation:shine 3.6s linear infinite}
    @keyframes shine{0%{transform:translateX(-420px) skewX(-20deg)}100%{transform:translateX(900px) skewX(-20deg)}}
    .spark{animation:tw 2.2s ease-in-out infinite;transform-box:fill-box;transform-origin:center}
    .spark.d2{animation-delay:.7s}.spark.d3{animation-delay:1.4s}
    @keyframes tw{0%,100%{opacity:0;transform:scale(.3)}50%{opacity:1;transform:scale(1)}}
    @media (prefers-reduced-motion:reduce){*{animation:none!important}}
  </style>

  <rect width="800" height="500" fill="#0B0B0D"/>
  <radialGradient id="bg" cx="50%" cy="42%" r="75%">
    <stop offset="0" stop-color="#1B1710"/><stop offset="1" stop-color="#0B0B0D"/>
  </radialGradient>
  <rect width="800" height="500" fill="url(#bg)"/>
  <rect x="18" y="18" width="764" height="464" fill="none" stroke="#C9A227" stroke-opacity=".35" stroke-width="2"/>

  <!-- 背景の回転光条 -->
  <g class="rays" opacity=".12">
    <g fill="#E8D9A0" transform="translate(400 300)">
      <path d="M0 0L-40 -300h80z"/><path d="M0 0L-40 -300h80z" transform="rotate(60)"/>
      <path d="M0 0L-40 -300h80z" transform="rotate(120)"/><path d="M0 0L-40 -300h80z" transform="rotate(180)"/>
      <path d="M0 0L-40 -300h80z" transform="rotate(240)"/><path d="M0 0L-40 -300h80z" transform="rotate(300)"/>
    </g>
  </g>

  <!-- ショーケース台座 -->
  <ellipse cx="400" cy="400" rx="290" ry="34" fill="#15151A" stroke="#C9A227" stroke-width="3"/>
  <ellipse cx="400" cy="392" rx="252" ry="26" fill="#1E1E24" stroke="#C9A227" stroke-width="2" stroke-opacity=".6"/>

  <!-- 展示車両（Maserati GranTurismo／ビアンコアルピ：ロングノーズの流麗なファストバック） -->
  <g>
    <path d="M196 372
             C189 367 185 359 187 351
             C184 346 185 339 190 334
             C197 328 208 323 222 320
             C258 314 300 310 340 307
             L358 306
             C372 289 390 278 412 274
             C432 270 452 271 470 277
             C494 286 516 297 536 309
             C556 318 576 327 592 336
             C602 343 608 352 606 361
             L603 372
             L578 372 A 38 38 0 0 1 502 372
             L310 372 A 38 38 0 0 1 234 372 Z"
          fill="#EFEDE6" stroke="#A8A496" stroke-width="3.5"/>
    <clipPath id="carbody"><path d="M196 372 C189 367 185 359 187 351 C184 346 185 339 190 334 C197 328 208 323 222 320 C258 314 300 310 340 307 L358 306 C372 289 390 278 412 274 C432 270 452 271 470 277 C494 286 516 297 536 309 C556 318 576 327 592 336 C602 343 608 352 606 361 L603 372 L578 372 A 38 38 0 0 1 502 372 L310 372 A 38 38 0 0 1 234 372 Z"/></clipPath>
    <g clip-path="url(#carbody)"><rect class="shine" x="0" y="240" width="110" height="150" fill="#FFFFFF" opacity=".35"/></g>
    <!-- フェンダーパネルライン -->
    <path d="M238 340 A 42 42 0 0 1 306 338" fill="none" stroke="#CFCBBE" stroke-width="2"/>
    <path d="M506 334 A 42 42 0 0 1 574 338" fill="none" stroke="#CFCBBE" stroke-width="2"/>
    <!-- キャビングラス（流麗なファストバック） -->
    <path d="M364 304 C376 289 392 280 412 277 C430 274 448 275 464 281 C486 290 506 300 524 310 L484 313 C440 310 398 307 364 304 Z" fill="#10171D" stroke="#5A6068" stroke-width="2.5"/>
    <line x1="458" y1="279" x2="462" y2="309" stroke="#5A6068" stroke-width="2"/>
    <!-- フロントグリル・3連サイドベント -->
    <ellipse cx="190" cy="344" rx="7" ry="11" fill="#15161A"/>
    <g fill="#8A867A"><rect x="314" y="330" width="5" height="10" rx="2"/><rect x="324" y="329" width="5" height="10" rx="2"/><rect x="334" y="328" width="5" height="10" rx="2"/></g>
    <!-- キャラクターライン・ドア -->
    <path d="M206 346 C320 338 470 340 596 350" fill="none" stroke="#CFCBBE" stroke-width="2"/>
    <path d="M368 306 C366 328 366 350 369 370" fill="none" stroke="#CFCBBE" stroke-width="2"/>
    <rect x="416" y="322" width="18" height="5" rx="2.5" fill="#C9C5B8" stroke="#A8A496" stroke-width="1.2"/>
    <ellipse cx="212" cy="315" rx="12" ry="5" fill="#E8D9A0" stroke="#B9A75E" stroke-width="1.5"/>
    <rect x="596" y="324" width="12" height="6" rx="3" fill="#F35B45"/>
    <circle cx="272" cy="366" r="30" fill="#0B0B0D" stroke="#C9A227" stroke-width="4"/>
    <circle cx="272" cy="366" r="10" fill="#15151A" stroke="#E8D9A0" stroke-width="3"/>
    <circle cx="540" cy="366" r="30" fill="#0B0B0D" stroke="#C9A227" stroke-width="4"/>
    <circle cx="540" cy="366" r="10" fill="#15151A" stroke="#E8D9A0" stroke-width="3"/>
  </g>

  <!-- 揺れるプライスタグ -->
  <g class="tag">
    <line x1="648" y1="128" x2="648" y2="170" stroke="#C9A227" stroke-width="3"/>
    <g transform="rotate(-6 648 210)">
      <rect x="606" y="170" width="84" height="52" rx="8" fill="#C9A227"/>
      <circle cx="648" cy="182" r="5" fill="#0B0B0D"/>
      <text x="648" y="208" text-anchor="middle" fill="#0B0B0D" font-size="20" font-weight="bold" letter-spacing="2">SALE</text>
    </g>
  </g>
  <circle cx="648" cy="126" r="5" fill="#E8D9A0"/>

  <!-- スパークル -->
  <g fill="#E8D9A0">
    <path class="spark" d="M150 160l6 15 15 6-15 6-6 15-6-15-15-6 15-6z"/>
    <path class="spark d2" d="M230 110l4 11 11 4-11 4-4 11-4-11-11-4 11-4z"/>
    <path class="spark d3" d="M560 140l4 11 11 4-11 4-4 11-4-11-11-4 11-4z"/>
  </g>

  <text x="400" y="82" text-anchor="middle" fill="#E8D9A0" font-size="30" letter-spacing="12">SALES</text>
  <text x="400" y="108" text-anchor="middle" fill="#8A8A8A" font-size="13" letter-spacing="6">USED &amp; IMPORT CARS</text>
</svg>
