<svg xmlns="http://www.w3.org/2000/svg" viewBox="0 0 800 500" font-family="Georgia, 'Times New Roman', serif">
  <style>
    .spark{animation:tw 2.2s ease-in-out infinite;transform-box:fill-box;transform-origin:center}
    .spark.d2{animation-delay:.7s}.spark.d3{animation-delay:1.4s}
    @keyframes tw{0%,100%{opacity:0;transform:scale(.3)}50%{opacity:1;transform:scale(1)}}
    .cheer{animation:cheer 1.5s ease-in-out infinite;transform-origin:656px 242px}
    @keyframes cheer{0%,100%{transform:rotate(0deg)}50%{transform:rotate(-10deg)}}
    .hop{animation:hop 1.5s ease-in-out infinite}
    @keyframes hop{0%,100%{transform:translateY(0)}50%{transform:translateY(-4px)}}
    @media (prefers-reduced-motion:reduce){*{animation:none!important}}
  </style>

  <rect width="800" height="500" fill="#0B0B0D"/>
  <radialGradient id="bg" cx="50%" cy="45%" r="75%">
    <stop offset="0" stop-color="#181410"/><stop offset="1" stop-color="#0B0B0D"/>
  </radialGradient>
  <rect width="800" height="500" fill="url(#bg)"/>
  <rect x="18" y="18" width="764" height="464" fill="none" stroke="#C9A227" stroke-opacity=".35" stroke-width="2"/>

  <!-- 地面 -->
  <ellipse cx="360" cy="408" rx="300" ry="22" fill="#15151A"/>
  <ellipse cx="648" cy="410" rx="66" ry="10" fill="#15151A"/>

  <!-- 納車された86（写真トレースのフラットベクターイラスト） -->
  <g transform="translate(118 183.2) scale(0.3833)">
<g transform="translate(0.000000,576.000000) scale(1.000000,-1.000000)" fill="#7A807F"><path d="M468 566 c0 -1 -2 -4 -3 -6 -4 -9 0 -8 -47 -8 -34 0 -41 0 -44 -1 -5
-3 -23 -3 -29 -1 -4 2 -4 2 -7 0 -2 -1 -8 -1 -34 -1 -25 0 -32 0 -35 -1 -3 -2
-10 -2 -31 -2 -20 0 -27 0 -30 -2 -6 -2 -26 -2 -32 1 -6 2 -65 2 -71 0 -2 -1
-6 -2 -10 -2 -3 -1 -7 -2 -9 -2 -3 -2 -8 -2 -20 -2 -12 0 -17 0 -19 -1 -2 -2
-6 -2 -16 -2 -19 0 -19 0 -19 -15 0 -6 0 -11 -1 -11 -2 -2 -1 -5 3 -7 4 -3 9
-4 12 -2 2 2 6 10 6 12 0 3 4 8 8 9 2 1 18 1 41 1 30 0 37 0 39 2 4 2 34 2 38
0 5 -3 10 -11 12 -17 1 -4 3 -9 5 -14 1 -2 1 -7 1 -14 0 -13 -2 -17 -9 -25 -3
-2 -6 -6 -7 -8 -1 -2 -3 -5 -5 -6 -2 -2 -4 -5 -5 -7 -1 -2 -9 -11 -18 -19 -15
-15 -17 -16 -23 -18 -4 -1 -7 -3 -9 -4 -1 0 -3 -1 -4 -1 -5 0 -28 -13 -31 -18
-2 -4 -6 -15 -7 -21 0 -3 -2 -8 -3 -11 -5 -10 -10 -27 -10 -31 0 -2 -1 -6 -1
-8 -1 -2 -2 -5 -2 -8 0 -3 -1 -8 -2 -11 -1 -3 -2 -8 -2 -12 0 -3 -1 -7 -1 -9
-3 -6 -3 -125 0 -131 1 -2 1 -7 1 -14 0 -9 0 -11 3 -20 2 -6 4 -12 4 -13 0 -2
1 -5 1 -6 1 -1 2 -4 2 -5 0 -8 9 -22 17 -26 l6 -3 18 0 c13 0 20 0 22 1 2 1
11 2 30 2 32 1 30 0 35 10 5 9 5 9 22 10 10 0 15 0 19 -1 3 -1 10 -2 16 -2 6
-1 12 -2 15 -2 2 -1 7 -2 14 -2 6 0 11 -1 13 -1 3 -2 9 -2 28 -2 16 0 25 0 27
-1 1 -1 8 -2 14 -2 l11 0 4 -4 c2 -3 4 -6 6 -9 7 -22 22 -33 43 -29 6 1 12 5
23 15 l9 8 17 0 c10 0 18 1 19 2 5 2 73 1 80 -1 4 -1 6 -1 15 1 9 1 25 1 53 0
4 -1 22 -1 40 -2 24 0 31 -1 33 -2 4 -2 31 -2 37 0 5 2 9 2 43 2 29 0 39 0 40
1 2 1 22 2 84 2 44 1 83 1 87 1 11 1 20 -3 29 -11 8 -6 13 -8 26 -9 5 0 11 -1
14 -2 5 -1 18 -1 25 0 3 1 8 2 12 2 4 0 8 1 10 2 2 0 5 1 7 1 4 0 14 5 23 10
7 6 13 12 18 21 3 5 9 10 15 10 6 1 11 6 10 9 -1 1 -1 4 -2 6 0 3 -2 8 -4 12
-1 3 -3 9 -3 11 0 2 -1 5 -2 7 -1 1 -1 8 -1 18 l0 17 3 3 c2 2 4 3 7 4 5 0 11
3 14 6 2 2 2 3 2 10 0 8 0 9 -6 19 -5 10 -8 18 -10 26 0 1 -1 3 -2 5 0 1 -1 3
-1 6 -1 2 -2 6 -4 8 -3 4 -9 15 -9 19 -1 1 -2 5 -4 8 -2 4 -3 7 -3 8 0 2 -4
10 -8 16 -3 4 -7 11 -9 16 -5 8 -6 10 -19 22 -8 7 -15 15 -16 17 -2 4 -18 20
-23 22 -6 4 -20 10 -24 10 -3 1 -5 2 -6 2 0 1 -4 1 -8 2 -4 0 -9 1 -10 2 -1 0
-3 1 -5 1 -1 0 -5 1 -7 2 -2 0 -5 1 -6 1 -2 0 -6 1 -9 3 -4 2 -8 3 -8 3 -3 0
-18 8 -19 10 -2 3 -1 12 1 13 1 1 3 2 6 2 7 0 13 3 16 7 2 5 0 6 -11 7 -8 1
-11 1 -21 4 -3 1 -5 1 -8 0 -7 -2 -9 -2 -17 -1 l-7 0 -15 15 c-8 8 -19 20 -24
25 -5 6 -12 12 -15 14 -3 2 -12 10 -21 18 -8 8 -15 15 -16 15 -1 0 -4 2 -6 4
-8 6 -15 10 -22 14 -3 2 -6 3 -6 4 -2 2 -10 6 -18 8 -4 1 -9 3 -11 3 -11 5
-14 5 -38 5 -19 0 -24 0 -27 2 -3 1 -9 1 -30 1 -21 0 -27 0 -29 2 -2 0 -5 1
-10 1 -5 0 -8 -1 -10 -1 -2 -2 -14 -2 -74 -2 l-72 0 -5 4 c-7 7 -14 10 -17 7z
m-234 -46 c0 -5 0 -5 -3 -7 -2 -1 -7 -4 -11 -7 -8 -5 -8 -5 -16 -5 -8 0 -11 1
-14 6 -3 5 -3 14 0 16 3 3 4 3 24 3 l20 0 0 -6z"/></g><g transform="translate(0.000000,576.000000) scale(1.000000,-1.000000)" fill="#000000"><path d="M468 566 c0 -1 -2 -4 -3 -6 -4 -9 0 -8 -47 -8 -34 0 -41 0 -44 -1 -5
-3 -23 -3 -29 -1 -4 2 -4 2 -7 0 -3 -1 -8 -1 -34 -1 -25 0 -31 0 -35 -1 -3 -2
-10 -2 -31 -2 -20 0 -27 0 -30 -2 -6 -1 -26 -2 -32 0 -6 2 -65 3 -71 1 -2 -1
-7 -2 -10 -2 -3 -1 -7 -2 -9 -2 -3 -2 -8 -2 -20 -2 -11 0 -16 0 -19 -1 -2 -2
-7 -2 -17 -2 -18 0 -18 0 -18 -15 0 -6 0 -11 -1 -11 -2 -2 -1 -5 3 -7 4 -3 9
-4 12 -2 2 2 6 10 6 12 0 1 1 3 2 5 2 4 7 5 17 5 8 0 8 0 8 2 0 4 4 5 9 4 3
-1 9 -1 18 1 2 1 7 1 9 0 5 0 14 -4 14 -6 0 -2 8 -1 11 1 2 0 6 1 13 1 5 0 10
0 10 1 1 1 11 7 12 7 2 0 3 0 4 -1 2 -1 1 -2 -1 -4 -2 -2 -2 -3 -1 -4 6 -2 13
-13 16 -27 0 -1 1 -4 2 -5 1 -1 1 -6 1 -13 0 -13 -2 -17 -9 -25 -3 -2 -6 -6
-7 -8 -1 -2 -3 -5 -5 -6 -2 -2 -4 -5 -5 -7 -1 -2 -9 -11 -18 -19 -15 -15 -17
-16 -23 -18 -4 -1 -7 -3 -8 -3 -2 -1 -4 -2 -6 -2 -2 -1 -4 -2 -4 -2 0 -1 -1
-1 -1 -1 -4 0 -22 -11 -25 -15 -2 -4 -6 -15 -7 -21 0 -3 -2 -8 -3 -11 -5 -10
-10 -27 -10 -31 0 -2 -1 -6 -1 -8 -1 -2 -2 -5 -2 -8 0 -3 -1 -8 -2 -11 -2 -7
-3 -12 0 -12 2 0 2 -7 -1 -11 -1 -2 -2 -3 -2 -4 0 -1 -1 -1 -1 1 0 1 -1 -22
-1 -54 l0 -56 3 -2 c3 -2 7 -7 9 -12 1 -3 1 -4 -1 -7 -2 -2 -2 -4 -1 -5 0 -2
0 -4 0 -5 0 -2 0 -6 1 -9 1 -5 1 -5 -1 -8 l-3 -3 2 -6 c1 -5 1 -6 5 -5 4 0 8
-3 11 -8 3 -6 0 -9 -8 -9 -3 0 -3 -1 -2 -3 3 -7 10 -15 15 -18 l6 -3 18 0 c13
0 20 0 22 1 2 1 11 2 30 2 32 1 30 0 35 10 5 9 5 9 22 10 10 0 15 0 19 -1 3
-1 10 -2 16 -2 6 -1 12 -2 15 -2 2 -1 7 -2 14 -2 6 0 11 -1 13 -2 3 -1 9 -1
28 -1 17 0 24 0 27 -1 1 -1 8 -2 14 -2 l11 0 4 -4 c2 -3 4 -6 6 -9 7 -22 22
-33 43 -29 6 1 12 5 23 15 l9 8 17 0 c10 0 18 1 19 2 2 0 5 1 8 1 4 0 5 0 3 1
-1 0 -2 2 -3 4 0 1 -3 5 -5 8 -4 4 -4 5 -10 5 -8 1 -12 3 -14 6 l-3 4 4 -1 c9
-1 16 -2 17 -3 0 -1 4 -1 7 0 2 1 4 1 8 0 3 -1 6 -1 7 0 1 1 2 0 4 -1 2 -1 4
-1 10 0 4 1 8 1 8 0 1 0 4 1 7 2 7 2 11 2 17 -1 l4 -1 -3 -2 c-4 -4 -7 -5 -13
-5 -9 0 -13 -3 -15 -11 0 -2 -1 -5 0 -5 0 0 8 0 18 0 14 0 20 -1 24 -2 4 -1 6
-1 15 1 11 1 27 1 71 -2 6 0 10 0 10 1 -1 1 2 4 4 4 0 0 3 1 6 3 5 2 5 2 7 1
2 -2 2 -3 2 -6 l-1 -3 11 0 c7 0 11 -1 15 -2 7 -2 32 -2 38 0 5 2 9 2 43 2 30
0 38 0 42 1 3 2 16 2 79 2 73 0 76 0 76 2 2 4 5 6 14 7 11 0 17 -2 17 -8 0 -2
1 -3 3 -4 2 -1 6 -4 9 -6 8 -7 13 -9 26 -10 5 0 11 -1 14 -2 5 -1 18 -1 25 0
3 1 8 2 12 2 4 0 8 1 10 2 2 0 5 1 7 1 4 0 14 5 23 10 7 6 13 12 18 21 1 2 3
4 4 5 1 1 1 2 -1 2 -4 1 -4 8 0 10 4 2 11 -2 10 -6 -1 -1 -1 -1 1 -1 1 1 3 1
4 1 0 0 3 1 4 3 3 3 4 4 3 5 -1 1 -1 4 -2 6 0 3 -2 8 -4 12 -1 3 -3 9 -3 11 0
2 -1 5 -2 7 0 1 -1 8 -1 16 l0 15 -3 -1 c-2 0 -4 -1 -5 -2 -1 -2 -2 -2 -2 -1
0 0 0 1 1 1 1 1 0 2 -1 4 -3 5 -4 12 -2 14 2 1 2 2 1 5 -2 4 -3 5 -8 3 -3 -2
-5 -2 -12 0 -7 1 -9 1 -10 0 -1 -1 -1 -1 0 1 2 5 4 9 4 12 0 9 7 20 12 20 1 0
3 1 5 3 1 2 4 3 5 3 1 0 7 4 13 10 l3 3 1 -2 c2 -3 2 -6 1 -6 -3 -2 0 -23 4
-29 8 -12 11 -22 7 -25 -3 -3 -1 -2 4 0 7 4 8 5 8 14 0 8 0 9 -6 19 -5 10 -8
18 -10 26 0 1 -1 3 -2 5 0 1 -1 3 -1 6 -1 3 -2 6 -4 8 -2 2 -3 4 -3 5 0 1 -1
1 -1 0 -1 0 -1 0 -1 1 1 0 0 3 -1 5 -2 3 -3 6 -3 7 -1 2 -2 6 -4 9 -2 4 -3 7
-3 8 0 2 -4 10 -8 16 -3 4 -7 11 -9 16 -5 8 -6 10 -19 22 -8 7 -15 15 -16 17
-2 4 -18 20 -23 22 -6 4 -20 10 -24 10 -3 1 -5 2 -6 2 0 1 -4 1 -8 2 -4 0 -9
1 -10 2 -1 0 -3 1 -5 1 -1 0 -5 1 -7 2 -2 0 -5 1 -6 1 -2 0 -6 1 -9 3 -4 2 -8
3 -8 3 -2 0 -15 7 -20 10 -6 4 -7 8 -2 8 1 0 2 1 2 2 0 3 3 5 8 5 7 0 13 3 16
7 2 5 0 6 -11 7 -5 0 -10 1 -11 2 -4 1 -6 1 -6 0 0 -3 -5 -5 -9 -5 -3 1 -5 1
-7 -1 -3 -1 -3 -1 -6 1 -1 2 -2 3 -2 4 -1 1 -13 3 -13 2 0 -2 2 -5 6 -11 7 -8
9 -19 6 -21 -2 -1 -7 -1 -9 0 -1 0 -3 0 -6 -1 -3 -1 -8 -1 -16 -1 l-11 1 -2 3
c-1 2 -3 6 -4 9 -2 5 -3 7 -13 15 -12 11 -25 19 -30 20 -6 1 -16 -1 -19 -4 -3
-4 -3 -6 2 -14 5 -10 6 -31 1 -32 -4 -1 -37 -3 -55 -4 -9 0 -21 0 -26 -1 -5 0
-25 -1 -45 -2 -20 -1 -44 -2 -53 -2 -36 -2 -58 -2 -59 -1 -2 2 -7 2 -10 0 -1
-1 -4 -1 -9 -1 -13 0 -38 -2 -40 -3 -2 -1 -13 -1 -31 -1 -16 0 -31 0 -34 -1
-3 0 -13 -1 -23 0 -24 0 -38 -1 -46 -4 -6 -2 -7 -2 -11 -1 -9 2 -17 4 -18 3
-1 -1 -5 -1 -8 -2 l-7 0 -3 5 c-5 7 -7 15 -10 32 -1 7 -3 16 -4 20 -1 4 -2 14
-2 24 0 9 -1 18 -2 19 -1 2 0 4 1 7 2 6 2 7 1 9 -1 2 -1 3 1 5 1 2 3 6 3 9 3
9 5 13 10 16 l3 2 5 -2 c6 -2 6 -2 21 -1 8 1 17 3 21 3 4 1 10 2 15 2 4 1 12
2 18 3 15 2 47 4 62 5 8 0 17 0 20 1 7 1 28 2 68 4 12 1 26 1 31 2 5 0 11 0
13 0 1 -1 10 -1 20 -2 10 0 19 0 20 -1 2 0 3 0 3 1 1 1 5 1 10 1 5 0 11 1 15
1 5 1 6 0 8 -1 2 -2 4 -2 7 -2 l5 0 2 -5 c4 -8 6 -11 17 -16 12 -6 12 -7 19
-20 7 -15 9 -16 22 -11 12 6 20 5 31 -5 5 -4 9 -4 13 -1 7 5 13 6 19 1 1 -1 7
-4 12 -6 9 -5 9 -5 13 -4 3 1 5 4 5 7 0 2 -9 11 -18 19 -9 8 -11 11 -10 15 1
2 1 3 -2 5 -1 1 -3 2 -3 2 -1 0 -4 2 -6 4 -8 6 -15 10 -22 14 -3 2 -6 3 -6 4
-1 1 -11 6 -13 6 -2 1 -4 1 -5 2 -2 1 -4 1 -4 0 -1 0 -1 0 -1 1 1 1 0 1 -1 1
-1 0 -3 1 -5 1 -10 4 -14 5 -38 5 -19 0 -24 0 -27 2 -3 1 -9 1 -30 1 -21 0
-27 0 -29 2 -2 0 -5 1 -10 1 -5 0 -8 -1 -10 -1 -2 -2 -14 -2 -74 -2 l-72 0 -5
4 c-7 7 -14 10 -17 7z m-247 -34 c2 -2 4 -3 8 -3 2 0 6 0 8 -1 2 0 4 0 6 0 4
1 9 -2 6 -4 -2 -1 -3 -2 -4 -2 -1 0 -4 -1 -6 -3 -1 -2 -7 -5 -11 -7 -4 -3 -8
-6 -10 -7 -1 -1 -2 -2 -3 -2 0 0 -4 -3 -7 -6 -7 -7 -16 -13 -18 -12 -1 1 -3 8
-3 11 0 2 -2 8 -4 15 -6 17 -5 19 3 19 2 0 3 0 4 1 0 1 4 1 10 1 7 0 9 0 11 1
2 3 7 2 10 -1z m563 1 c10 0 30 -2 32 -2 2 -1 5 -9 4 -12 -1 -2 -1 -2 -7 -2
-19 3 -24 3 -30 2 -5 0 -10 0 -14 1 -4 1 -8 2 -10 2 -4 0 -8 4 -8 7 0 4 4 5 9
4 2 0 5 0 7 1 1 0 4 1 5 0 1 0 7 0 12 -1z m-553 -39 c0 -2 -2 -5 -4 -5 0 0 -1
1 -2 3 -1 2 -1 2 1 3 4 1 5 1 5 -1z m-10 -31 c1 -2 1 -3 0 -10 -1 -6 -1 -7 1
-9 3 -6 9 -7 16 -6 2 1 3 0 8 -3 l6 -4 9 1 c4 0 11 0 15 0 4 0 11 0 16 0 l10
0 8 4 c10 6 14 7 15 3 0 -2 0 -3 0 -4 -1 0 0 -2 1 -4 1 -2 1 -4 0 -6 -1 -2 -1
-4 0 -6 2 -11 3 -15 4 -22 0 -15 5 -31 9 -32 6 -2 6 -4 3 -10 -1 -2 -3 -5 -4
-5 -2 0 -4 -7 -3 -11 1 -3 1 -4 -3 -8 l-4 -4 -2 2 c-2 2 -5 5 -7 8 -4 5 -5 5
-4 9 0 6 -2 7 -9 6 -3 -1 -4 -1 -8 5 l-6 5 -6 -2 c-4 -2 -8 -4 -9 -4 -3 -1 -3
-1 -8 2 -3 2 -8 5 -10 6 -6 3 -10 6 -10 8 0 2 8 7 15 9 12 4 13 4 16 8 7 8 5
10 -9 10 -7 0 -12 -1 -35 -6 -5 -1 -10 -2 -13 -3 -5 0 -7 -2 -8 -7 0 -4 -3 -5
-10 -4 -16 3 -31 13 -33 22 0 2 -1 4 -2 5 -1 1 -1 4 -1 6 -1 3 -2 7 -3 10 -3
7 -1 9 7 9 l5 0 3 6 c3 7 10 17 15 21 1 2 4 2 7 2 3 0 6 1 8 3 5 4 7 4 10 0z
m147 -111 c2 -1 5 -2 7 -2 2 0 5 -1 8 -2 4 -2 4 -2 4 -6 0 -4 -5 -13 -8 -14
-2 0 -4 -2 -6 -4 -5 -4 -7 -4 -11 2 -2 3 -2 5 -1 6 2 4 1 7 -5 11 -4 2 -7 4
-7 5 -1 0 3 8 4 8 3 1 11 -1 15 -4z m-125 -43 c3 -1 4 -2 4 -7 0 -4 -1 -8 -2
-10 l-1 -5 -8 0 c-9 0 -11 2 -7 8 4 5 4 8 3 13 0 2 -1 4 0 4 0 1 7 -1 11 -3z
m847 2 c0 -4 -1 -6 -3 -6 -1 0 -4 -1 -6 -3 -2 -2 -3 -3 -4 -3 0 0 -1 -1 -1 -2
-2 -6 -15 -6 -15 -1 0 3 5 6 9 6 2 0 3 1 3 2 1 0 3 2 5 3 2 1 5 2 6 4 4 2 6 3
6 0z m-910 -1 c1 -2 1 -2 0 -5 -2 -3 -4 -4 -7 -2 -1 2 -1 4 1 6 2 2 3 2 6 1z
m353 -14 c2 0 7 -2 10 -3 5 -2 8 -3 13 -3 6 0 8 0 11 -2 1 -2 4 -2 6 -3 5 0
15 -3 19 -6 1 -1 5 -2 7 -2 7 -1 7 -2 7 -5 -2 -6 -5 -6 -11 -3 -3 2 -5 2 -11
2 -7 0 -8 0 -11 2 -3 3 -9 5 -14 5 -1 0 -5 1 -7 3 -5 2 -5 2 -12 1 -6 -1 -7
-1 -9 0 -1 1 -4 3 -6 4 -6 3 -11 8 -11 9 0 1 1 2 2 3 2 2 2 2 7 0 2 -1 7 -2
10 -2z m573 0 c1 -1 2 -4 3 -5 0 -2 3 -6 6 -9 5 -5 6 -6 6 -9 -2 -7 -16 -14
-28 -13 -8 1 -15 0 -16 -3 0 -1 -1 -2 -3 -2 -2 0 -2 1 -2 3 0 2 -1 4 -2 5 -2
3 -2 3 6 11 4 4 8 9 8 10 1 1 4 5 7 8 5 7 11 8 15 4z m-900 -4 c2 0 3 -2 3 -3
0 -2 0 -2 3 -6 3 -4 3 -11 0 -12 -3 -1 -10 2 -12 6 -3 3 -2 10 0 14 2 3 2 4 6
1z m-119 -16 c2 -2 3 -5 3 -7 0 -4 0 -4 -4 -4 -5 1 -10 3 -10 6 0 1 6 8 8 8 0
0 2 -2 3 -3z m456 -2 c6 -2 8 -3 15 -9 9 -8 14 -11 18 -11 3 1 4 0 7 -3 l4 -3
4 2 c5 4 5 4 19 0 7 -3 13 -4 17 -4 4 0 6 0 7 -1 1 -1 2 -2 3 -2 1 0 2 -1 3
-2 2 -3 0 -4 -6 -7 -6 -3 -34 -3 -42 -1 -5 1 -5 1 -8 -1 -1 -1 -3 -2 -5 -2 -1
0 -2 -1 -3 -3 -1 -2 -2 -3 -6 -3 -2 -1 -6 -2 -8 -3 -12 -5 -34 -3 -40 3 -1 1
-3 2 -5 3 -2 1 -6 3 -8 5 -3 3 -6 5 -7 7 -4 2 -3 4 2 8 3 1 5 2 6 2 2 -1 6 2
6 5 0 1 1 4 3 6 2 2 5 5 6 7 4 5 8 10 10 10 0 -1 4 -2 8 -3z m117 -15 c3 -2 6
-3 7 -4 1 -1 2 -2 4 -2 5 0 11 -5 12 -9 2 -9 2 -10 -4 -10 l-5 0 -4 7 -4 7 -7
1 c-4 1 -8 2 -11 3 -5 0 -6 2 -6 7 l1 3 6 0 c3 -1 8 -2 11 -3z m-433 -1 c3 1
3 1 6 -2 3 -3 3 -4 0 -5 -2 -1 -3 -1 -6 1 -2 1 -3 1 -4 0 -5 -4 -14 -2 -14 2
0 6 1 6 8 4 7 -2 7 -2 10 0z m903 -1 c0 -1 -1 -3 -2 -3 -1 -1 -2 -3 -2 -4 0
-1 -1 -2 -2 -4 -2 -4 -5 -4 -9 -1 -3 4 -2 8 3 10 2 0 5 2 7 3 4 1 5 1 5 -1z
m-888 -18 c2 -7 2 -10 0 -15 -4 -13 -3 -15 17 -18 7 -2 19 -5 25 -7 14 -4 15
-4 25 1 11 6 16 6 24 2 3 -2 7 -3 10 -3 6 0 8 -6 6 -16 -2 -7 -2 -19 0 -24 0
-3 1 -6 1 -8 0 -3 1 -5 3 -8 2 -3 4 -6 4 -8 1 -3 3 -8 5 -12 l4 -7 -4 -5 c-4
-6 -4 -8 1 -12 5 -5 5 -8 2 -15 -2 -4 -2 -6 -1 -10 l1 -5 -4 -3 c-3 -2 -5 -3
-5 -3 -1 0 -2 8 -3 26 -1 10 -1 20 -2 24 0 3 -1 9 -1 13 0 7 -2 12 -5 12 -3 0
-8 -7 -8 -11 0 -6 -3 -18 -4 -20 -2 -2 -7 -1 -12 4 -5 5 -6 5 -9 5 -2 -1 -5
-1 -7 -2 -7 -1 -8 -1 -11 -4 l-4 -3 -8 2 c-11 2 -20 3 -27 3 -4 0 -9 1 -19 4
-39 12 -40 12 -46 26 -2 4 -6 10 -8 13 -2 3 -4 6 -4 6 0 1 -2 5 -5 10 -9 17
-14 33 -10 40 2 4 7 9 12 12 5 2 24 3 26 1 2 -3 4 -2 4 2 1 2 2 4 2 4 1 0 3 1
4 3 4 3 7 5 14 6 4 1 7 2 9 3 2 2 2 2 5 0 2 -1 3 -2 3 -3z m773 -30 c11 -5 16
-9 20 -14 4 -5 15 -27 15 -29 0 -1 2 -4 3 -6 2 -3 4 -7 5 -10 1 -2 2 -7 3 -9
1 -6 1 -12 -2 -16 -1 -1 -2 -3 -3 -4 0 -1 -1 -3 -2 -4 -4 -4 -8 -10 -8 -12 0
-2 -1 -3 -2 -4 -2 -2 -14 -8 -16 -8 -4 0 -3 2 2 5 8 4 11 8 15 16 2 3 4 7 5 8
2 3 0 11 -5 22 -7 14 -10 21 -11 24 0 3 -6 9 -12 12 -7 4 -15 5 -42 5 -14 0
-26 0 -27 1 -3 0 -5 0 -7 -1 -3 -1 -3 -1 -7 4 -4 4 -13 9 -17 9 -7 0 -15 -4
-18 -8 -5 -6 -8 -7 -20 -8 -7 0 -16 0 -22 -1 -11 0 -13 0 -20 6 -5 5 -9 6 -13
5 -1 0 -3 0 -4 0 -7 1 -11 -1 -16 -7 -5 -4 -6 -5 -10 -6 -2 0 -5 -1 -7 -2 -2
-1 -6 -1 -22 -1 -11 0 -22 0 -26 -1 -4 -1 -9 -1 -13 -1 -8 0 -15 -2 -20 -7 -2
-1 -4 -3 -5 -3 -2 0 -12 -9 -12 -11 0 -1 -1 -4 -2 -5 -4 -4 -20 -29 -20 -31 0
-1 -3 -6 -6 -11 -1 -1 -4 2 -5 5 -2 3 -2 3 1 8 4 9 4 14 -1 24 -4 9 -5 14 -3
14 1 0 4 -1 7 -2 5 -1 5 -1 8 1 3 3 9 11 9 13 0 1 2 3 5 5 2 2 7 6 9 9 3 4 7
7 8 8 4 1 22 7 24 7 1 0 4 1 8 3 l7 3 25 0 25 1 7 -4 8 -3 20 1 c11 0 27 0 34
1 7 1 23 1 34 1 15 -1 23 0 29 1 4 1 12 1 18 1 l10 1 6 4 7 4 16 0 c8 -1 17
-1 19 0 6 1 7 1 14 -3z m-567 -19 c2 -3 1 -7 -1 -7 -1 0 -3 4 -3 8 0 3 1 3 4
-1z m70 -15 c7 0 13 -3 17 -7 l3 -3 -2 -3 c-3 -4 -3 -5 2 -10 5 -4 5 -7 3 -11
-3 -4 -9 -6 -13 -4 -1 1 -3 1 -4 0 -1 0 -4 -1 -6 -1 -2 -1 -7 -2 -9 -3 -3 -1
-6 -2 -6 -2 -1 0 -8 13 -8 15 0 1 -1 6 -2 11 -4 11 -4 11 1 15 5 5 7 5 24 3z
m-54 -16 c2 -2 5 -6 7 -8 3 -3 5 -5 7 -5 6 -2 9 -11 5 -15 -1 -2 -7 4 -12 11
-3 4 -6 8 -8 10 -4 3 -8 10 -8 12 0 2 5 -1 9 -5z m-392 -7 c3 -2 7 -8 10 -14
3 -4 2 -11 -1 -19 -2 -6 -2 -7 -2 -16 1 -10 1 -11 -3 -11 -3 0 -9 5 -10 9 -2
3 -2 4 -1 10 1 8 2 24 1 33 -1 8 1 10 6 8z m81 -20 c3 -3 6 -5 8 -5 1 -1 3 -2
4 -4 2 -3 7 -6 16 -9 3 -2 8 -4 11 -5 2 -1 6 -2 9 -2 3 -1 7 -2 10 -3 2 -1 6
-2 9 -2 2 0 6 -1 10 -2 4 -1 9 -2 14 -2 3 0 11 -1 17 -2 6 -1 15 -3 21 -4 5 0
13 -2 16 -3 l7 -1 3 -6 c2 -4 4 -10 5 -14 l2 -7 -4 0 c-2 0 -6 1 -9 2 -3 1 -7
2 -9 2 -2 0 -5 0 -7 1 -5 1 -20 4 -24 4 -2 0 -4 -1 -6 -3 -3 -4 -7 -3 -11 2
-3 3 -8 4 -11 2 -2 -2 -3 -2 -4 -1 -2 3 -18 3 -22 1 -4 -3 -7 -3 -11 1 -4 3
-6 4 -9 2 -2 -2 -4 -2 -9 0 -3 0 -9 2 -15 3 -6 0 -11 1 -12 2 -1 0 -6 1 -11 1
-12 1 -15 2 -16 9 -1 2 -2 5 -3 7 -1 2 -3 8 -4 13 -1 5 -3 11 -3 13 -3 7 -2 8
5 8 6 0 7 0 12 3 11 7 12 7 21 -1z m242 -3 c3 -3 3 -4 4 -20 0 -3 2 -9 3 -12
2 -8 2 -11 -2 -12 -3 0 -6 1 -9 5 -2 3 -2 3 -1 10 2 5 2 6 1 9 -1 2 -2 4 -2 4
0 1 -1 2 -1 3 -3 2 -2 11 0 14 2 3 4 3 7 -1z m60 -5 c1 -2 8 -6 11 -6 2 0 12
-5 13 -7 2 -2 -2 -5 -7 -5 -4 0 -7 3 -10 9 -3 4 -5 6 -9 6 -3 -1 -3 -1 -3 1 0
3 3 4 5 2z m713 -29 c0 -7 -2 -7 -13 -8 -11 0 -12 2 -3 3 2 1 6 3 9 5 6 4 7 4
7 0z m-301 -14 c2 -2 2 -2 0 -4 0 -1 -2 -2 -2 -2 -1 0 -7 6 -6 7 1 2 5 1 8 -1z
m-160 -2 l4 -1 -5 -1 c-4 -1 -6 -1 -8 -1 l-3 1 2 2 c3 1 4 1 10 0z m307 -1 c2
-1 2 -1 2 -7 -1 -4 -1 -7 -1 -7 0 0 -2 -1 -5 -2 -3 -1 -6 -3 -6 -4 -2 -1 -3
-1 -7 -1 -7 1 -10 4 -8 10 0 2 1 4 0 6 0 3 2 5 8 6 3 1 13 0 17 -1z m-69 -4
c2 -2 3 -3 3 -6 0 -2 1 -4 4 -6 6 -6 3 -11 -8 -9 -4 0 -6 0 -8 -1 -1 -1 -11
-1 -24 -2 l-21 0 -4 2 c-4 2 -10 11 -10 13 0 2 6 4 11 4 2 1 6 2 8 3 4 1 12
-2 12 -6 0 -2 1 -4 2 -5 4 -6 13 -2 13 5 0 3 2 5 11 8 7 2 7 2 11 0z m-170 -8
c3 -1 3 -2 3 -7 l0 -5 -6 -4 c-6 -3 -7 -3 -10 -2 -3 1 -4 1 -8 0 -4 -2 -5 -2
-8 -1 -2 1 -9 2 -15 2 -15 1 -18 2 -18 10 0 7 0 7 13 7 4 0 9 0 12 1 6 1 34 1
37 -1z m75 1 c5 -1 5 -2 2 -5 -2 -2 -6 -3 -10 0 -7 3 -1 7 8 5z m-221 -2 c4 0
7 -2 5 -3 -2 -1 -13 -1 -17 0 l-4 1 2 2 c2 2 3 2 6 2 2 -1 5 -1 8 -2z m-31 -2
c8 -2 8 -3 1 -5 -5 -2 -6 -2 -15 -1 -5 1 -11 1 -12 1 -4 -2 -15 2 -13 5 3 2
31 3 39 0z m73 0 c3 -2 0 -3 -5 -2 -2 0 -4 0 -4 -1 -1 -1 -7 -1 -7 0 0 1 2 2
8 3 2 0 5 1 5 1 1 0 2 0 3 -1z m422 -2 c6 -5 2 -9 -13 -10 -15 -2 -16 -2 -19
1 -4 4 -4 6 -1 9 l3 3 14 0 c13 0 14 0 16 -3z m-721 -5 c4 -3 3 -11 -2 -12 -3
-1 -3 -1 -6 2 -4 4 -4 4 0 9 2 3 6 4 8 1z"/><path d="M562 242 c-1 -1 -4 -1 -8 -1 -6 0 -9 -2 -9 -6 0 -3 4 -4 8 -3 3 1 6
1 11 0 8 -1 10 0 10 4 0 4 -8 9 -12 6z"/><path d="M516 516 c-3 -1 -32 -4 -39 -4 -3 0 -7 -1 -9 -2 -5 -2 -10 -3 -17 -1
-4 1 -6 1 -12 -1 -6 -2 -10 -2 -22 -3 -15 0 -17 0 -25 -3 -2 0 -6 -1 -8 -1 -7
0 -17 -7 -16 -11 1 -3 4 -3 11 -2 5 2 5 2 11 0 13 -6 35 -4 53 4 7 4 7 4 17 3
7 0 12 0 18 2 9 1 9 1 17 -1 8 -2 9 -2 15 -1 4 2 10 2 18 2 21 0 25 0 33 2 3
1 9 2 12 2 17 0 28 5 24 12 -3 4 -9 4 -21 3 -9 -2 -13 -2 -21 -1 -7 1 -10 1
-15 -1 -5 -1 -6 -1 -12 1 -8 2 -8 2 -12 1z"/><path d="M606 402 c-2 -3 -1 -5 3 -5 3 1 4 3 1 5 -2 3 -3 2 -4 0z"/></g><g transform="translate(0.000000,576.000000) scale(1.000000,-1.000000)" fill="#989794"><path d="M468 566 c0 -1 -2 -4 -3 -7 -4 -7 -1 -7 -45 -7 -27 0 -40 -1 -41 -1
-4 -2 -26 -2 -32 -1 -5 1 -6 1 -8 0 -2 -1 -10 -1 -34 -1 -26 0 -32 0 -36 -1
-3 -2 -9 -2 -31 -2 -20 0 -27 0 -30 -2 -6 -2 -26 -2 -32 0 -4 2 -7 2 -15 1 -6
0 -12 0 -13 0 -4 0 -5 0 -28 0 -16 -1 -29 -2 -34 -4 -3 -2 -8 -2 -19 -2 -20 0
-25 -1 -24 -7 1 -2 1 -5 1 -6 l0 -3 8 0 c7 0 7 0 7 2 0 4 4 5 9 4 3 -1 9 -1
18 1 2 1 7 1 9 0 5 0 14 -4 14 -6 0 -2 8 -1 11 1 2 0 6 1 13 1 5 0 10 0 10 1
1 1 10 7 13 7 1 1 2 0 2 -1 1 -1 4 -1 9 0 5 1 5 1 8 -1 2 -3 3 -3 8 -2 3 0 6
1 7 1 0 1 5 1 10 1 6 0 9 0 10 1 3 2 8 2 11 -1 2 -2 4 -3 8 -3 2 0 6 0 8 -1 2
0 4 0 6 0 4 1 9 -2 6 -4 -2 -1 -3 -2 -4 -2 -1 0 -4 -1 -6 -3 -1 -2 -7 -5 -11
-7 -4 -3 -8 -6 -10 -7 -1 -1 -2 -2 -3 -2 0 0 -4 -3 -7 -6 -4 -4 -9 -8 -13 -10
-3 -2 -6 -4 -6 -5 -1 -1 -4 -3 -7 -5 -4 -3 -6 -5 -6 -6 0 -4 -5 -11 -9 -16 -3
-2 -6 -6 -7 -8 -1 -2 -3 -5 -5 -6 -2 -2 -4 -5 -5 -7 -2 -3 -5 -7 -25 -26 -8
-8 -10 -9 -16 -11 -4 -1 -7 -3 -9 -4 -1 0 -2 -1 -3 -1 -1 0 -2 -1 -13 -5 -7
-3 -17 -10 -19 -13 -2 -4 -6 -15 -7 -21 0 -3 -2 -8 -3 -11 -5 -10 -10 -27 -10
-31 0 -2 -1 -6 -1 -8 -1 -2 -2 -5 -2 -8 0 -3 -1 -8 -2 -11 -3 -7 -3 -12 0 -12
2 0 9 11 9 14 0 4 9 9 16 9 5 0 12 -5 16 -10 2 -3 4 -6 6 -9 2 -2 3 -5 3 -7 0
-2 1 -5 2 -7 3 -5 8 -19 9 -27 1 -4 2 -10 3 -13 0 -3 1 -7 1 -9 0 -2 1 -6 2
-10 2 -13 3 -25 1 -32 -1 -6 -1 -7 2 -21 3 -17 4 -20 8 -21 5 0 8 0 14 4 11 7
12 7 21 -1 3 -3 6 -5 8 -5 1 -1 3 -2 4 -4 2 -3 7 -6 16 -9 3 -2 8 -4 11 -5 2
-1 6 -2 9 -2 3 -1 7 -2 10 -3 2 -1 6 -2 9 -2 2 0 6 -1 10 -2 4 -1 9 -2 14 -2
3 0 11 -1 17 -2 6 -1 15 -3 21 -4 5 0 13 -2 16 -3 l7 -1 3 -7 c2 -4 4 -9 5
-13 1 -5 2 -6 4 -8 7 -3 29 -5 34 -3 3 2 4 6 3 15 -1 5 -1 13 -1 19 0 7 0 13
-1 15 -1 2 -1 9 -2 15 -1 17 -3 20 -10 14 -2 -3 -3 -5 -3 -8 0 -6 -3 -18 -4
-20 -2 -2 -7 -1 -12 4 -5 5 -6 5 -9 5 -2 -1 -5 -1 -7 -2 -7 -1 -8 -1 -11 -4
l-4 -3 -8 2 c-11 2 -20 3 -27 3 -4 0 -9 1 -19 4 -39 12 -40 12 -46 26 -2 4 -6
10 -8 13 -2 3 -4 6 -4 6 0 1 -2 5 -5 10 -9 17 -14 33 -10 40 2 4 7 9 12 12 5
2 24 3 26 1 2 -3 4 -2 4 2 1 2 2 4 2 4 1 0 3 1 4 3 4 3 7 5 14 6 4 1 7 2 9 3
2 2 2 2 5 0 2 -1 3 -2 3 -3 2 -7 2 -10 0 -15 -4 -13 -3 -15 17 -18 7 -2 19 -5
25 -7 14 -4 15 -4 25 1 11 6 16 6 24 2 10 -5 14 -4 14 4 0 2 1 5 2 7 1 2 1 7
1 11 1 14 11 35 21 43 13 10 32 2 41 -18 3 -5 6 -11 8 -14 2 -3 5 -8 6 -10 2
-6 9 -19 14 -25 2 -2 4 -4 4 -5 0 0 1 -2 3 -4 3 -4 3 -5 2 -6 -3 -5 3 -17 10
-22 3 -2 8 -7 10 -10 4 -4 7 -7 9 -7 6 -3 8 -7 6 -14 -1 -2 -1 -3 4 -8 3 -4 4
-7 4 -8 -1 -2 -8 -6 -10 -6 -1 0 -2 -1 -4 -2 -5 -4 -12 -2 -16 7 -4 7 -9 8
-13 2 -2 -3 -2 -4 -1 -7 1 -5 3 -23 3 -34 1 -9 1 -10 7 -10 4 0 13 -2 14 -3 2
-1 5 -1 8 0 2 1 4 1 8 0 3 -1 6 -1 7 0 1 1 2 0 4 -1 2 -1 4 -1 10 0 4 1 8 1 8
0 1 0 4 1 7 2 7 2 12 2 17 -1 3 -1 14 -1 24 1 10 2 26 1 34 -1 9 -3 9 -3 14 1
5 3 5 3 12 2 3 -1 7 -2 8 -2 1 0 6 -2 11 -2 9 -2 10 -2 12 -1 2 1 5 2 9 2 17
0 23 0 32 1 6 1 16 2 23 2 6 0 14 0 18 1 10 2 34 1 37 -1 3 -2 4 -2 6 0 1 1 3
1 4 1 1 -1 5 0 8 0 5 1 6 1 10 -1 4 -2 5 -2 10 -2 7 1 8 1 16 1 6 -1 7 -1 10
1 5 2 7 2 12 1 4 -2 5 -2 9 1 l5 3 6 -3 c5 -2 5 -2 9 -1 2 1 6 2 8 3 2 0 6 1
8 2 3 1 4 1 8 -2 4 -2 4 -2 7 0 2 2 3 2 7 0 4 -1 4 -1 8 1 3 1 7 3 10 4 5 1 5
1 9 -1 3 -3 3 -3 6 -1 3 1 16 3 34 3 3 1 7 1 8 2 3 2 16 2 20 0 3 -1 4 -1 10
1 4 1 7 2 8 2 7 -3 17 -4 25 -2 5 1 14 2 22 3 7 0 15 0 18 1 3 1 9 1 12 1 9 0
35 3 37 4 1 1 4 2 7 2 2 1 7 3 10 6 l5 4 0 5 c-1 2 -1 11 -2 18 -1 16 -1 16
-4 16 -3 0 -5 -2 -8 -11 -2 -7 -9 -14 -14 -16 -1 0 -6 -2 -9 -3 -11 -5 -25 -4
-30 1 l-2 3 3 5 c1 3 3 7 4 8 1 2 2 4 2 5 0 4 8 21 13 28 5 6 7 10 8 18 2 11
7 19 12 19 1 0 3 1 5 3 1 2 4 3 5 3 1 0 7 4 12 10 3 2 3 3 3 12 -1 10 -2 17
-4 21 -1 1 -2 3 -2 4 -1 2 -2 6 -4 9 -2 4 -3 7 -3 8 0 2 -4 10 -8 16 -3 4 -7
10 -9 15 -4 8 -6 10 -19 23 -8 8 -16 16 -16 18 -2 3 -18 19 -23 21 -6 4 -20
10 -24 10 -3 1 -5 2 -6 2 0 1 -4 1 -8 2 -4 0 -9 1 -10 2 -1 0 -3 1 -4 1 -4 0
-16 3 -23 6 -4 2 -8 3 -8 3 -5 0 -25 12 -25 15 0 1 -3 3 -6 5 -5 3 -12 10 -12
12 0 1 -1 2 -2 4 -2 2 -3 3 -3 4 -1 1 -13 3 -13 2 0 -2 2 -5 6 -11 7 -8 9 -19
6 -21 -2 -1 -7 -1 -9 0 -1 0 -3 0 -6 -1 -3 -1 -8 -1 -16 -1 l-11 1 -2 3 c-1 2
-3 6 -4 9 -2 5 -3 7 -13 15 -12 11 -25 19 -30 20 -6 1 -16 -1 -19 -4 -3 -4 -3
-6 2 -14 5 -10 6 -31 1 -32 -4 -1 -37 -3 -55 -4 -9 0 -21 0 -26 -1 -5 0 -25
-1 -45 -2 -20 -1 -44 -2 -53 -2 -36 -2 -58 -2 -59 -1 -2 2 -7 2 -10 0 -1 -1
-4 -1 -9 -1 -13 0 -38 -2 -40 -3 -2 -1 -13 -1 -31 -1 -16 0 -31 0 -34 -1 -3 0
-13 -1 -23 0 -24 0 -38 -1 -46 -4 -6 -2 -7 -2 -11 -1 -9 2 -17 4 -18 3 -1 -1
-5 -1 -8 -2 l-7 0 -3 5 c-5 7 -7 15 -10 32 -1 7 -3 16 -4 20 -1 4 -2 14 -2 24
0 9 -1 18 -2 19 -1 2 0 4 1 7 2 6 2 7 1 9 -1 2 -1 3 1 5 1 2 3 6 3 9 3 9 5 13
10 16 l3 2 5 -2 c6 -2 6 -2 21 -1 8 1 17 3 21 3 4 1 10 2 15 2 4 1 12 2 18 3
15 2 47 4 62 5 8 0 17 0 20 1 7 1 28 2 68 4 12 1 26 1 31 2 5 0 11 0 13 0 1
-1 10 -1 20 -2 10 0 19 0 20 -1 2 0 3 0 3 1 1 1 5 1 10 1 5 0 11 1 15 1 5 1 6
0 8 -1 2 -2 4 -2 7 -2 l5 0 2 -5 c4 -8 6 -11 17 -16 12 -6 12 -7 19 -20 7 -15
9 -16 22 -11 12 6 20 5 31 -5 5 -4 9 -4 13 -1 7 5 13 6 19 1 1 -1 7 -4 12 -6
9 -5 9 -5 13 -4 3 1 5 4 5 7 0 2 -9 11 -18 19 -9 8 -11 11 -10 15 1 2 1 3 -2
5 -1 1 -3 2 -3 2 -1 0 -4 2 -6 4 -8 6 -15 10 -22 14 -3 2 -6 3 -7 4 -1 2 -12
7 -15 6 -1 0 -4 1 -8 3 -11 6 -14 6 -41 7 -19 0 -26 0 -29 2 -3 1 -10 1 -30 1
-21 0 -27 0 -29 2 -2 0 -5 1 -10 1 -5 0 -8 -1 -10 -1 -2 -2 -14 -2 -74 -2
l-72 0 -5 4 c-7 7 -14 10 -17 7z m316 -33 c10 0 30 -2 32 -2 2 -1 5 -9 4 -12
-1 -2 -1 -2 -7 -2 -19 3 -24 3 -30 2 -5 0 -10 0 -14 1 -4 1 -8 2 -10 2 -4 0
-8 4 -8 7 0 4 4 5 9 4 2 0 5 0 7 1 1 0 4 1 5 0 1 0 7 0 12 -1z m-553 -39 c0
-2 -5 -7 -12 -11 -11 -7 -20 -15 -20 -20 -1 -4 7 -4 12 0 9 6 12 2 10 -10 -1
-6 -1 -7 1 -9 3 -6 9 -7 16 -6 2 1 3 0 8 -3 l6 -4 9 1 c4 0 11 0 15 0 4 0 11
0 16 0 l10 0 8 4 c10 6 14 7 15 3 0 -2 0 -3 0 -4 -1 0 0 -2 1 -4 1 -2 1 -4 0
-6 -1 -2 -1 -4 0 -6 2 -11 3 -15 4 -22 0 -8 2 -17 4 -26 2 -4 3 -5 5 -6 2 -1
4 -2 5 -3 1 -1 2 -2 2 -2 1 0 3 -1 4 -2 1 -1 2 -2 4 -2 4 0 9 -1 14 -4 2 -1 5
-2 7 -2 2 0 5 -1 8 -2 4 -2 4 -2 4 -6 0 -4 -5 -13 -8 -14 -2 0 -4 -2 -6 -4 -2
-1 -5 -3 -6 -3 0 0 -2 -1 -4 -2 -4 -3 -8 -3 -18 -1 -9 2 -10 3 -17 9 -11 11
-14 15 -13 19 0 5 -1 6 -6 6 -5 0 -7 -2 -7 -6 -1 -3 -2 -5 -6 -7 -5 -5 -8 -5
-14 -1 -6 4 -7 7 -7 12 1 5 2 4 -12 12 -3 1 -7 4 -10 6 -3 2 -6 3 -8 3 -5 0
-22 4 -26 6 -2 1 -6 2 -9 2 -15 0 -36 12 -38 22 0 2 -1 4 -2 5 -1 1 -1 4 -1 6
-1 3 -2 7 -3 10 -2 4 -2 5 0 7 1 1 1 4 2 6 0 7 4 14 12 23 5 5 9 10 11 12 1 2
3 4 4 5 1 0 5 3 8 5 10 9 20 15 27 16 0 0 1 -1 1 -2z m-4 -180 c2 -1 5 -2 7
-2 3 0 6 -1 8 -2 4 -2 5 -3 5 -8 0 -4 0 -8 -2 -10 -1 -3 -1 -7 -2 -10 0 -6 -2
-10 -6 -13 -5 -4 -5 -4 -14 0 -7 3 -8 3 -11 2 -3 -1 -9 2 -12 6 -2 3 -2 10 -1
13 1 2 2 6 2 11 0 9 0 11 4 13 5 3 16 2 22 0z m863 -3 c0 -4 -1 -6 -3 -6 -1 0
-4 -1 -6 -3 -2 -2 -3 -3 -4 -3 0 0 -1 -1 -1 -2 -2 -6 -15 -6 -15 -1 0 3 5 6 9
6 2 0 3 1 3 2 1 0 3 2 5 3 2 1 5 2 6 4 4 2 6 3 6 0z m-910 -1 c1 -2 1 -2 0 -5
-2 -3 -4 -4 -7 -2 -1 2 -1 4 1 6 2 2 3 2 6 1z m353 -14 c2 0 7 -2 10 -3 5 -2
8 -3 13 -3 6 0 8 0 11 -2 1 -2 4 -2 6 -3 5 0 15 -3 19 -6 1 -1 5 -2 7 -2 7 -1
7 -2 7 -5 -2 -6 -5 -6 -11 -3 -3 2 -5 2 -11 2 -7 0 -8 0 -11 2 -3 3 -9 5 -14
5 -1 0 -5 1 -7 3 -5 2 -5 2 -12 1 -6 -1 -7 -1 -9 0 -1 1 -4 3 -6 4 -6 3 -11 8
-11 9 0 1 1 2 2 3 2 2 2 2 7 0 2 -1 7 -2 10 -2z m573 0 c1 -1 2 -4 3 -5 0 -2
3 -6 6 -9 5 -5 6 -6 6 -9 -2 -7 -16 -14 -28 -13 -8 1 -15 0 -16 -3 0 -1 -1 -2
-3 -2 -1 0 -4 -1 -6 -1 -6 -3 -15 -2 -17 1 -1 4 9 12 14 12 3 -1 4 0 11 7 4 4
8 9 8 10 1 1 4 5 7 8 5 7 11 8 15 4z m-563 -22 c6 -2 8 -3 15 -9 9 -8 14 -11
18 -11 3 1 4 0 7 -3 l4 -3 4 2 c5 4 5 4 19 0 7 -3 13 -4 17 -4 4 0 6 0 7 -1 1
-1 2 -2 3 -2 1 0 2 -1 3 -2 2 -3 0 -4 -6 -7 -6 -3 -34 -3 -42 -1 -5 1 -5 1 -8
-1 -1 -1 -3 -2 -5 -2 -1 0 -2 -1 -3 -3 -1 -2 -2 -3 -6 -3 -2 -1 -6 -2 -8 -3
-12 -5 -34 -3 -40 3 -1 1 -3 2 -5 3 -2 1 -6 3 -8 5 -3 3 -6 5 -7 7 -4 2 -3 4
2 8 3 1 5 2 6 2 2 -1 6 2 6 5 0 1 1 4 3 6 2 2 5 5 6 7 4 5 8 10 10 10 0 -1 4
-2 8 -3z m117 -15 c3 -2 6 -3 7 -4 1 -1 2 -2 4 -2 5 0 11 -5 12 -9 2 -9 2 -10
-4 -10 l-5 0 -4 7 -4 7 -7 1 c-4 1 -8 2 -11 3 -5 0 -6 2 -6 7 l1 3 6 0 c3 -1
8 -2 11 -3z m-433 -1 c3 1 3 1 6 -2 3 -3 3 -4 0 -5 -2 -1 -3 -1 -6 1 -2 1 -3
1 -4 0 -5 -4 -14 -2 -14 2 0 6 1 6 8 4 7 -2 7 -2 10 0z m903 -1 c0 -1 -1 -3
-2 -3 -1 -1 -2 -3 -2 -4 0 -1 -1 -2 -2 -4 -2 -4 -5 -4 -9 -1 -3 4 -2 8 3 10 2
0 5 2 7 3 4 1 5 1 5 -1z m-115 -48 c11 -5 16 -9 20 -14 4 -5 15 -27 15 -29 0
-1 2 -4 3 -6 2 -3 4 -7 5 -10 1 -2 2 -7 3 -9 1 -6 1 -12 -2 -16 -1 -1 -2 -3
-3 -4 0 -1 -1 -3 -2 -4 -4 -4 -8 -10 -8 -12 0 -6 -11 -11 -25 -12 -7 0 -12 -1
-15 -2 -3 -1 -11 -2 -23 -3 -27 -2 -36 -3 -40 -4 -2 -1 -3 -1 -5 -1 -1 1 -9 1
-16 1 -7 0 -15 0 -17 0 -3 0 -11 0 -19 -1 -15 -2 -16 -3 -18 -5 -3 -4 -3 -4
-7 1 l-4 3 -11 -1 c-6 -1 -18 -1 -26 -1 -9 -1 -16 -1 -17 -1 -2 -2 -20 -2 -24
0 -3 1 -6 1 -14 0 -13 -1 -19 -1 -36 0 -14 0 -18 0 -24 -2 -5 -2 -9 -1 -18 3
-5 3 -19 18 -22 24 0 2 -1 3 -2 3 0 0 -2 2 -2 3 -2 4 -2 4 1 9 4 9 4 14 -1 24
-2 5 -4 10 -4 12 0 1 -1 4 -1 5 -5 8 1 18 9 17 3 0 8 -2 11 -3 l7 -3 5 4 c3 2
7 6 9 9 2 3 6 6 7 7 4 1 22 7 24 7 1 0 4 1 8 3 l7 3 25 0 25 1 7 -4 8 -3 20 1
c11 0 27 0 34 1 7 1 23 1 34 1 15 -1 23 0 29 1 4 1 12 1 18 1 l10 1 6 4 7 4
16 0 c8 -1 17 -1 19 0 6 1 7 1 14 -3z m-496 -34 c7 -1 12 -3 17 -7 2 -2 7 -6
11 -9 4 -3 9 -8 12 -12 8 -10 15 -17 39 -39 12 -10 15 -15 14 -19 -1 -5 -15
-6 -39 -2 -10 1 -11 1 -14 -1 -3 -2 -22 0 -28 3 -2 1 -5 2 -5 2 -3 0 -10 7
-15 16 -2 5 -5 10 -7 12 -2 3 -2 5 -1 8 0 3 0 5 -4 10 -2 3 -4 7 -4 9 0 1 -1
6 -3 11 -2 8 -2 14 0 18 1 2 17 2 27 0z"/><path d="M335 346 c-1 -3 -1 -4 0 -7 1 -4 1 -4 9 -6 13 -3 18 -3 18 3 0 3 -10
11 -16 12 -2 1 -5 1 -6 2 -3 0 -3 0 -5 -4z"/><path d="M211 291 c-2 -1 -2 -5 1 -8 l3 -3 5 1 c8 3 10 4 8 8 -1 2 -2 3 -9 3
-3 0 -7 0 -8 -1z"/><path d="M562 242 c-1 -1 -4 -1 -8 -1 -6 0 -9 -2 -9 -6 0 -3 4 -4 8 -3 3 1 6
1 11 0 8 -1 10 0 10 4 0 4 -8 9 -12 6z"/><path d="M516 516 c-3 -1 -32 -4 -39 -4 -3 0 -7 -1 -9 -2 -5 -2 -10 -3 -17 -1
-4 1 -6 1 -12 -1 -6 -2 -10 -2 -22 -3 -15 0 -17 0 -25 -3 -2 0 -6 -1 -8 -1 -7
0 -17 -7 -16 -11 1 -3 4 -3 11 -2 5 2 5 2 11 0 13 -6 35 -4 53 4 7 4 7 4 17 3
7 0 12 0 18 2 9 1 9 1 17 -1 8 -2 9 -2 15 -1 4 2 10 2 18 2 21 0 25 0 33 2 3
1 9 2 12 2 17 0 28 5 24 12 -3 4 -9 4 -21 3 -9 -2 -13 -2 -21 -1 -7 1 -10 1
-15 -1 -5 -1 -6 -1 -12 1 -8 2 -8 2 -12 1z"/><path d="M606 402 c-2 -3 -1 -5 3 -5 3 1 4 3 1 5 -2 3 -3 2 -4 0z"/></g><g transform="translate(0.000000,576.000000) scale(1.000000,-1.000000)" fill="#E3E3E3"><path d="M468 566 c0 -1 -2 -4 -3 -7 -4 -7 -2 -7 -40 -7 -33 0 -34 0 -34 -2
-1 -2 -1 -2 -6 -2 -3 1 -12 1 -20 1 -9 0 -16 0 -19 1 -3 1 -5 1 -7 0 -2 -1
-11 -1 -34 -1 -18 0 -33 0 -34 -1 -3 -1 0 -3 7 -5 8 -3 9 -9 2 -10 -13 -3 -28
-7 -32 -10 -1 0 -3 -1 -4 -1 0 0 -3 -1 -5 -3 -1 -2 -7 -5 -11 -7 -4 -3 -8 -6
-10 -7 -1 -1 -2 -2 -3 -2 0 0 -4 -3 -7 -6 -4 -4 -9 -8 -13 -10 -7 -4 -8 -6 -4
-10 3 -4 5 -3 12 3 7 7 17 13 22 15 4 1 6 2 9 6 6 6 20 12 38 17 7 2 14 3 15
4 1 1 11 -2 19 -6 11 -5 19 -18 18 -31 0 -4 0 -7 2 -10 2 -4 2 -5 1 -9 -2 -6
-3 -30 -1 -35 1 -2 1 -4 0 -6 -1 -2 -1 -4 0 -6 2 -11 3 -15 4 -22 0 -8 2 -17
4 -26 2 -4 3 -5 5 -6 2 -1 4 -2 5 -3 1 -1 2 -2 2 -2 1 0 3 -1 4 -2 1 -1 2 -2
4 -2 4 0 9 -1 14 -4 2 -1 5 -2 7 -2 2 0 5 -1 8 -2 4 -2 4 -2 4 -6 0 -4 -5 -13
-8 -14 -2 0 -4 -2 -6 -4 -2 -1 -5 -3 -6 -3 0 0 -2 -1 -4 -2 -4 -3 -8 -3 -18
-1 -11 3 -15 5 -26 19 -4 4 -5 5 -11 5 -6 1 -7 1 -11 -3 -6 -5 -9 -5 -15 -1
-5 4 -7 7 -7 11 0 5 -2 7 -11 12 -3 2 -8 5 -11 7 -3 2 -6 3 -8 3 -5 0 -22 4
-26 6 -2 1 -6 2 -9 2 -15 0 -36 12 -38 22 0 2 -1 4 -2 5 -1 1 -1 4 -1 6 -1 7
-4 14 -7 15 -1 0 -6 -1 -11 -3 -5 -2 -10 -3 -11 -3 -1 0 -6 -4 -13 -11 -10
-10 -12 -11 -18 -13 -4 -1 -7 -3 -9 -3 -1 -1 -3 -2 -5 -2 -2 -1 -4 -3 -8 -9
-8 -11 -8 -12 -10 -21 0 -5 -3 -12 -6 -19 -8 -17 -8 -21 3 -29 3 -1 8 -7 13
-12 10 -12 13 -14 17 -12 1 1 3 3 4 4 1 0 4 3 7 4 2 2 7 7 11 11 11 13 24 25
31 27 3 1 5 1 11 0 11 -2 13 -4 14 -7 2 -3 2 -3 -2 -10 l-3 -7 2 -2 c2 -1 3
-2 5 -1 2 1 7 1 11 2 4 0 7 1 7 1 0 4 17 5 25 2 2 -1 5 -2 7 -2 3 0 6 -1 8 -3
9 -5 15 -7 22 -8 3 0 9 -1 13 -3 3 -1 11 -3 18 -5 7 -2 15 -4 18 -5 2 -1 8 -3
12 -3 4 0 10 -1 14 -2 8 -1 12 0 20 6 l7 5 6 0 c4 -1 7 -1 9 0 7 3 29 -15 37
-29 2 -3 5 -8 6 -10 6 -7 12 -30 10 -40 -1 -4 -1 -4 0 -5 6 -3 9 -7 9 -11 1
-7 12 -20 23 -26 7 -4 11 -10 15 -26 1 -5 3 -6 10 -5 5 1 5 3 1 15 -2 9 -2 16
0 18 1 1 4 2 12 1 19 0 25 -2 32 -8 2 -2 7 -6 11 -9 4 -3 9 -8 12 -12 8 -10
15 -17 39 -39 19 -17 20 -22 2 -23 -5 -1 -8 -1 -10 -3 -4 -3 -11 -3 -30 2 -2
1 -8 1 -14 2 -7 0 -12 1 -15 3 -2 1 -5 2 -6 2 -4 1 -9 8 -15 19 -8 14 -7 13
-13 11 -6 -3 -7 -5 -4 -9 3 -4 15 -26 15 -28 0 -1 -2 -4 -5 -6 -6 -5 -6 -6 -6
-10 0 -6 2 -7 12 -6 4 1 8 1 8 0 1 0 4 1 7 2 7 2 12 2 17 -1 3 -1 14 -1 24 1
10 2 26 1 34 -1 9 -3 9 -3 14 1 5 3 5 3 12 2 3 -1 7 -2 8 -2 1 0 6 -2 11 -2 9
-2 10 -2 12 -1 2 1 5 2 9 2 17 0 23 0 32 1 6 1 16 2 23 2 6 0 14 0 18 1 10 2
34 1 38 -1 4 -2 6 -1 6 6 l1 5 -4 2 c-3 1 -5 1 -14 0 -13 -1 -19 -1 -36 0 -14
0 -18 0 -24 -2 -5 -2 -9 -1 -18 3 -4 2 -18 17 -21 23 -1 1 -2 4 -4 5 -1 1 -2
3 -2 4 0 2 -8 7 -13 8 -23 6 -31 11 -45 26 -5 5 -15 15 -22 22 -13 14 -16 19
-17 27 0 5 0 6 5 11 6 7 7 9 6 14 0 5 -2 5 -11 1 -14 -5 -34 -4 -41 3 -1 1 -3
2 -5 3 -2 1 -6 3 -8 5 -3 3 -7 6 -9 8 -7 6 -5 10 4 10 4 -1 5 0 7 2 1 1 2 2 3
2 1 0 2 1 4 3 5 7 9 13 12 17 6 6 6 5 -8 14 -7 4 -8 6 -7 9 1 3 3 3 9 1 3 -1
7 -2 9 -2 1 0 6 -1 10 -3 5 -2 8 -3 13 -3 6 0 8 0 11 -2 1 -2 4 -2 6 -3 5 0
15 -3 19 -6 2 -1 6 -2 15 -3 9 -1 18 -5 34 -12 2 -1 6 -2 9 -2 5 -1 15 -5 17
-7 1 -1 2 -2 3 -2 2 0 6 -1 9 -3 4 -2 8 -4 9 -4 3 -2 4 -7 1 -10 -3 -4 -37 -4
-43 -1 l-5 3 -6 -3 c-6 -3 -6 -3 -21 -3 -18 0 -23 -2 -26 -7 -2 -4 -1 -5 7
-11 6 -5 6 -5 18 -6 22 -3 35 -1 45 7 7 5 13 7 17 5 2 -1 4 -1 7 0 3 0 4 0 7
-1 1 -1 4 -1 6 0 4 0 23 1 41 1 4 0 27 0 52 0 39 0 46 0 50 2 3 1 5 1 7 0 2
-1 4 -1 6 0 4 1 32 4 41 4 4 0 35 -2 43 -3 5 0 9 0 14 1 3 1 9 2 12 2 4 1 9 2
12 3 4 1 9 2 13 2 3 0 8 0 10 1 2 1 5 1 7 0 5 -1 6 -1 36 3 12 2 20 3 30 6 5
1 10 6 10 8 0 6 -4 7 -11 4 -6 -2 -15 -1 -17 2 0 2 3 6 7 10 3 1 4 3 4 6 1 4
0 7 -6 12 -5 5 -5 8 1 10 3 1 4 2 4 3 0 3 5 6 9 6 2 0 3 1 3 2 1 0 3 2 5 3 2
1 5 2 6 4 5 4 7 2 5 -4 0 -1 -1 -2 -2 -2 -1 0 -4 -1 -6 -3 -1 -1 -3 -3 -4 -3
-3 -1 -2 -5 2 -8 6 -4 7 -4 12 2 5 6 11 7 14 3 1 -1 3 -2 5 -2 5 -2 7 -4 7 -9
0 -5 3 -10 8 -11 7 -1 9 6 4 16 -4 8 -6 15 -4 17 2 3 1 4 -12 15 -6 6 -12 13
-13 15 -2 4 -18 20 -23 22 -6 4 -20 10 -24 10 -3 1 -5 2 -6 2 0 1 -4 1 -8 2
-4 0 -9 1 -10 2 -1 0 -3 1 -4 1 -4 0 -16 3 -23 6 -4 2 -8 3 -8 3 -5 0 -25 12
-25 15 0 1 -1 2 -2 3 -3 1 -13 9 -15 13 -1 1 -2 4 -4 5 -1 2 -2 3 -2 4 -1 1
-13 3 -13 2 0 -2 2 -5 6 -11 7 -8 9 -19 6 -21 -2 -1 -7 -1 -9 0 -1 0 -3 0 -6
-1 -3 -1 -9 -1 -16 -1 -10 0 -12 0 -14 -2 -3 -1 -9 -2 -21 -1 -3 0 -8 0 -11 0
-4 0 -12 0 -19 0 -7 0 -21 0 -31 -1 -11 -1 -27 -1 -35 -2 -9 0 -21 0 -26 -1
-5 0 -25 -1 -44 -2 -20 -1 -44 -2 -54 -2 -11 -1 -28 -1 -38 -2 -15 0 -20 0
-21 -1 -3 -3 -6 -3 -10 -1 -3 2 -8 2 -31 1 -9 0 -17 -1 -18 -2 -2 -1 -13 -1
-31 -1 -16 0 -31 0 -34 -1 -3 0 -13 -1 -23 0 -24 0 -38 -1 -46 -4 -6 -2 -7 -2
-11 -1 -9 2 -17 4 -18 3 -1 -1 -5 -1 -8 -2 l-7 0 -3 5 c-5 7 -7 15 -10 32 -1
7 -3 16 -4 20 -1 4 -2 14 -2 24 0 9 -1 18 -2 19 -1 2 0 4 1 7 2 6 2 7 1 9 -1
2 -1 3 1 5 1 2 3 6 3 9 1 4 3 8 4 10 2 3 2 4 1 7 -2 6 3 9 7 4 0 -2 3 -4 6 -5
l5 -2 15 1 c9 1 18 3 22 3 4 1 10 2 15 2 4 1 12 2 18 3 15 2 47 4 62 5 8 0 17
0 20 1 7 1 28 2 68 4 12 1 26 1 31 2 5 0 11 0 13 0 1 -1 10 -1 20 -2 10 0 19
0 20 -1 2 0 3 0 3 1 1 1 5 1 10 1 5 0 11 1 15 1 5 1 6 0 8 -1 3 -2 10 -3 12 0
1 1 3 1 4 0 4 -1 23 -2 34 -1 4 0 9 0 11 0 1 0 7 0 12 0 4 0 10 -1 11 -1 1 -1
7 -1 12 -1 9 -1 9 -1 7 1 -2 1 -4 2 -5 3 -4 3 -13 7 -16 6 -1 0 -4 1 -8 3 -11
6 -14 6 -41 7 -19 0 -26 0 -29 2 -3 1 -10 1 -30 1 -21 0 -27 0 -29 2 -2 0 -5
1 -10 1 -5 0 -8 -1 -10 -1 -2 -2 -14 -2 -74 -2 l-72 0 -5 4 c-7 7 -14 10 -17
7z m522 -259 l3 -2 -4 -4 c-3 -3 -6 -4 -10 -5 l-6 -1 -4 3 c-4 5 -4 6 -1 8 8
4 19 5 22 1z m-306 -11 c11 -3 14 -6 8 -8 -6 -3 -17 -2 -23 2 l-2 2 3 3 c3 4
5 4 14 1z m344 -35 c3 -3 17 -6 20 -6 5 2 2 -2 -5 -5 -8 -4 -21 -5 -26 -3 -4
2 -4 3 1 10 3 5 6 6 10 4z"/><path d="M136 545 c-1 0 -8 -1 -16 -1 -16 0 -29 -1 -34 -3 -3 -2 -8 -2 -19 -2
-18 0 -24 -1 -24 -6 0 -2 1 -3 4 -2 1 1 3 0 7 -1 4 -2 5 -2 8 -1 2 1 4 1 6 0
3 -1 9 -1 18 1 6 1 12 0 18 -3 5 -2 5 -2 7 0 4 4 25 6 31 2 2 -1 2 -1 7 2 5 4
9 4 9 2 1 -1 3 -1 10 0 4 1 9 6 9 10 0 2 -6 3 -16 2 -6 0 -11 0 -12 0 -1 0 -4
0 -7 1 -3 0 -6 0 -6 -1z"/><path d="M209 545 c-3 0 -3 -2 1 -5 2 -2 3 -3 5 -2 3 0 10 5 10 7 0 1 -12 1
-16 0z"/><path d="M212 271 c-2 -1 -2 -3 -2 -7 l1 -4 6 -2 c7 -2 11 -1 13 2 1 2 1 6 1
6 0 0 -4 1 -8 3 -8 3 -9 4 -11 2z"/><path d="M583 271 c-8 0 -8 0 -8 -3 -1 -6 4 -13 9 -13 2 0 5 -1 7 -1 1 -1 3
-1 5 -1 1 0 7 -1 13 -3 8 -3 14 -4 18 -4 4 0 6 0 7 -1 2 -3 6 -2 7 2 2 5 0 7
-4 7 -1 0 -4 1 -5 3 -3 2 -4 2 -9 2 -5 0 -6 1 -12 4 -5 3 -8 5 -10 4 -2 0 -4
1 -6 2 -2 2 -4 3 -4 3 0 0 -4 -1 -8 -1z"/><path d="M1133 260 c-2 -1 -3 -2 -3 -3 0 -1 -1 -3 -2 -3 -1 -1 -2 -3 -2 -4 0
-1 -1 -3 -2 -5 -2 -3 -3 -5 -2 -8 1 -12 1 -17 0 -19 0 -1 -3 -8 -4 -15 -11
-38 -20 -63 -31 -74 -6 -7 -9 -8 -19 -8 -11 1 -14 -3 -9 -12 4 -9 10 -9 30 0
7 3 9 4 10 6 1 2 3 6 5 9 1 3 3 6 3 8 0 3 8 20 13 27 5 6 7 10 8 18 1 6 3 11
6 15 2 3 2 4 1 7 -1 5 -1 11 1 23 1 7 2 13 2 15 -1 2 0 5 1 8 4 9 4 11 2 14
-2 3 -4 4 -8 1z"/><path d="M174 136 c-14 -9 -12 -15 7 -22 3 -2 8 -4 11 -5 2 -1 6 -2 9 -2 3 -1
7 -2 10 -3 2 -1 6 -2 9 -2 2 0 6 -1 10 -2 4 -1 9 -2 14 -2 3 0 11 -1 17 -2 6
-1 15 -3 21 -4 5 0 12 -2 16 -3 6 -1 6 -1 8 1 1 2 1 5 0 8 -3 6 -33 15 -51 14
-4 0 -9 1 -19 4 -32 10 -37 12 -41 17 -5 7 -14 8 -21 3z"/><path d="M1014 93 c-4 0 -8 -1 -9 -2 -2 -1 -12 -2 -22 -3 -39 -2 -42 -3 -42
-9 0 -5 6 -9 10 -6 3 1 16 3 34 3 3 1 7 1 8 2 3 2 15 2 20 0 3 -1 5 -1 10 1
l6 2 -1 5 c0 8 -1 9 -14 7z"/><path d="M845 81 c-3 -1 -13 -1 -23 -1 -20 -1 -21 -1 -23 -7 l-1 -5 5 -2 c4
-2 5 -2 10 -2 7 1 8 1 16 1 6 -1 7 -1 10 1 5 2 7 2 12 1 4 -2 5 -2 10 1 6 4 6
4 1 9 -5 5 -6 6 -17 4z"/><path d="M903 79 c-4 -5 -4 -6 1 -9 4 -2 4 -2 6 0 4 2 4 6 1 10 -4 3 -4 3 -8
-1z"/></g><g transform="translate(0.000000,576.000000) scale(1.000000,-1.000000)" fill="#EBEBEB"><path d="M493 554 c-1 -1 -11 -2 -41 -2 -22 0 -41 0 -43 -1 -2 0 -3 0 -3 0 0
0 -2 -1 -5 -2 -3 -1 -5 -2 -7 -2 -1 1 -4 1 -7 1 -2 0 -6 0 -7 1 -4 2 -12 0
-20 -5 -7 -5 -8 -6 -10 -11 -2 -6 -7 -6 -14 1 -2 3 -2 3 -1 6 2 5 2 9 -2 9 -4
0 -6 -2 -6 -5 0 -5 -7 -3 -12 3 -2 2 -3 2 -9 2 l-7 0 1 -3 c0 -4 -3 -8 -7 -8
-9 0 -10 -2 -6 -10 2 -5 3 -6 7 -7 16 -4 24 -11 28 -23 l3 -7 8 -1 c11 -1 12
-1 15 11 1 3 3 8 4 10 2 3 2 4 1 7 -2 6 3 9 7 4 0 -2 3 -4 6 -5 l5 -2 15 1 c9
1 18 3 22 3 4 1 10 2 15 2 4 1 12 2 18 3 15 2 47 4 62 5 8 0 17 0 20 1 6 1 36
3 58 4 17 0 49 2 50 3 0 0 1 2 2 5 2 4 2 6 -1 11 l-1 2 -68 0 c-52 0 -69 0
-70 -1z"/><path d="M664 554 c0 -1 9 -12 13 -15 5 -4 5 -4 12 -4 12 0 19 1 21 4 4 3 9 3
11 0 1 -1 3 -3 5 -3 2 -1 20 -3 26 -3 1 0 4 0 7 0 8 0 12 2 12 5 0 2 -6 12 -8
13 -2 1 -32 1 -32 0 0 -1 -6 -4 -9 -4 -2 0 -4 1 -7 4 l-4 4 -23 0 c-13 0 -24
0 -24 -1z"/><path d="M133 545 c-3 -1 -9 -1 -15 0 -6 0 -11 0 -13 -1 l-4 -1 2 -4 c1 -1 3
-3 3 -3 1 0 3 -2 5 -4 l3 -3 8 1 c9 2 16 2 20 -1 2 -1 2 -1 6 1 5 3 5 4 2 10
-3 6 -7 7 -17 5z"/><path d="M161 545 c-1 0 -2 -2 -2 -4 -2 -9 -1 -10 8 -8 5 1 6 2 8 5 1 2 2 4 2
5 0 2 -10 4 -16 2z"/><path d="M209 545 c-3 0 -3 -2 1 -5 2 -2 3 -3 5 -2 3 0 10 5 10 7 0 1 -12 1
-16 0z"/><path d="M793 542 c-2 0 -2 -1 -2 -2 0 -1 0 -2 0 -4 0 -3 4 -4 16 -4 9 -1 9
-1 7 1 -2 1 -4 2 -5 3 -5 4 -13 7 -16 6z"/><path d="M50 538 c-3 -2 -1 -6 3 -8 8 -3 10 -2 11 5 l1 4 -7 0 c-4 0 -8 0 -8
-1z"/><path d="M208 497 c-4 -4 -9 -8 -13 -10 -7 -4 -8 -6 -4 -10 3 -4 5 -3 12 3 2
3 8 7 12 10 3 2 7 4 7 5 1 0 -5 8 -6 8 -1 0 -5 -3 -8 -6z"/><path d="M331 475 c0 -3 1 -4 5 -3 3 0 4 1 4 3 0 3 -7 3 -9 0z"/><path d="M933 427 c0 -2 2 -5 6 -11 5 -6 7 -11 7 -17 l0 -4 4 -1 c10 -1 24 6
17 9 -3 1 -13 9 -15 13 -1 1 -2 4 -4 5 -1 2 -2 3 -2 4 -1 1 -13 3 -13 2z"/><path d="M151 424 c-10 -4 -10 -3 -6 -7 5 -7 9 -9 17 -9 8 1 8 2 5 12 -3 8 -5
8 -16 4z"/><path d="M129 400 c-2 -2 -2 -3 0 -5 2 -3 3 -3 6 0 2 3 2 3 0 5 -2 3 -3 2 -6
0z"/><path d="M108 397 c-4 -2 -8 -3 -9 -4 l-3 -2 3 -2 c5 -2 11 0 15 4 4 6 3 7 -6
4z"/><path d="M86 381 c-7 -9 -7 -10 -9 -19 0 -5 -3 -12 -6 -19 -8 -17 -8 -21 3
-29 3 -1 8 -7 13 -12 10 -12 13 -14 17 -12 1 1 3 3 4 4 1 0 4 3 7 4 2 2 7 7
11 11 11 13 24 25 31 27 3 1 5 1 11 0 11 -2 13 -4 14 -7 2 -3 2 -3 -2 -10 l-3
-7 2 -2 c2 -1 3 -2 5 -1 2 1 7 1 11 2 4 0 7 1 7 1 0 4 17 5 25 2 2 -1 5 -2 7
-2 3 0 6 -1 8 -3 9 -5 15 -7 22 -8 3 0 9 -1 13 -3 3 -1 11 -3 18 -5 7 -2 15
-4 18 -5 2 -1 8 -3 12 -3 4 0 10 -1 14 -2 8 -1 12 0 20 6 l7 5 6 -1 c10 -1 12
1 12 8 2 12 1 19 -1 24 -2 5 -4 5 -10 -1 -2 -1 -5 -3 -6 -3 0 0 -2 -1 -4 -2
-4 -3 -8 -3 -18 -1 -11 3 -15 5 -26 19 -4 4 -5 5 -11 5 -6 1 -7 1 -11 -3 -6
-5 -9 -5 -15 -1 -2 2 -5 4 -5 4 -1 1 -3 0 -6 -2 -3 -2 -7 -3 -8 -3 -5 0 -29 6
-37 10 -5 2 -12 4 -15 5 -16 5 -24 8 -33 12 -11 5 -13 6 -18 2 -2 0 -6 -1 -11
-2 -6 -1 -11 -2 -14 -3 -6 -3 -7 -3 -16 5 -4 3 -10 8 -14 12 -5 3 -9 7 -10 8
-3 3 -4 3 -9 -5z"/><path d="M1008 378 c-1 -1 -3 -2 -6 -3 -2 0 -6 -1 -9 -2 -4 -1 -9 -2 -12 -3
-4 -1 -11 -4 -16 -6 l-10 -5 -11 2 c-10 2 -11 2 -21 1 -6 -1 -15 -2 -21 -2 -6
-1 -15 -1 -21 -2 -12 -1 -13 -1 -20 6 -10 8 -15 9 -23 3 -9 -8 -16 -8 -27 0
l-5 3 -14 -1 c-12 0 -14 -1 -19 -3 -8 -5 -18 -4 -29 1 l-7 4 -21 -1 c-17 -1
-23 0 -27 1 -4 1 -9 1 -15 0 -5 0 -11 0 -14 1 -5 1 -8 0 -16 -1 -9 -2 -17 -2
-41 -3 -18 0 -32 -1 -34 -2 -2 0 -7 -1 -13 0 -23 1 -39 0 -43 -4 -2 -2 -3 -4
-3 -5 0 -2 0 -2 -8 -2 -5 1 -11 2 -13 2 -4 2 -8 2 -18 1 -11 0 -14 0 -20 2 -6
1 -11 2 -17 2 -9 0 -9 0 -12 -3 l-3 -3 2 -3 c1 -2 3 -4 5 -5 1 -1 3 -3 3 -3 1
-1 3 -3 6 -5 3 -2 8 -6 11 -9 4 -5 7 -7 14 -9 4 -2 11 -6 14 -8 8 -6 20 -13
23 -13 3 -1 7 2 7 5 0 3 -7 10 -17 17 -14 10 -17 14 -10 16 1 0 3 0 5 -2 5 -5
14 -12 20 -15 5 -3 15 -15 15 -19 0 -2 1 -3 8 -5 8 -3 10 -3 13 3 6 11 13 12
22 2 3 -3 3 -4 3 -8 1 -6 4 -9 10 -9 3 0 3 0 4 3 3 8 7 9 13 4 4 -4 7 -5 13
-3 7 2 15 -3 17 -11 2 -5 5 -5 9 -1 3 2 4 3 7 3 15 0 26 4 33 13 2 3 4 4 6 4
5 0 16 -4 19 -6 9 -8 20 -11 28 -8 3 2 3 2 1 11 0 4 0 4 3 7 2 3 3 3 10 3 8
-1 14 -3 22 -10 5 -3 7 -4 13 -1 4 1 5 1 10 -1 6 -1 6 -1 9 1 5 4 11 8 13 8 1
0 4 1 8 3 12 5 18 4 26 -6 3 -3 7 -6 8 -7 4 -2 29 -2 47 0 12 1 18 1 23 0 17
-3 32 0 42 7 13 10 28 14 33 8 2 -1 3 -2 5 -2 1 0 2 -1 3 -2 4 -2 15 -5 22 -5
10 0 13 2 17 11 2 3 6 9 9 13 3 3 6 8 7 10 1 2 3 8 6 13 6 10 6 12 3 18 -2 5
-2 5 -8 6 -3 1 -6 2 -7 2 0 1 -4 1 -8 2 -4 0 -9 1 -10 2 -1 0 -3 1 -5 1 -1 0
-4 0 -6 1 -5 2 -8 2 -10 1z m-482 -31 c10 -3 13 -7 10 -10 -4 -3 -16 0 -22 4
-2 2 -2 2 -1 5 2 5 2 5 13 1z m304 -2 c1 -4 -5 -7 -8 -4 -3 4 2 9 5 7 2 -1 3
-2 3 -3z m125 -1 c3 -1 8 -1 11 -1 9 0 14 -7 9 -13 -3 -5 -8 -5 -42 1 -12 2
-33 4 -45 4 -10 0 -14 4 -10 9 l2 2 35 -1 c19 0 37 -1 40 -1z"/><path d="M378 373 c-1 0 -5 -1 -8 -2 -8 0 -9 -2 -8 -11 0 -3 0 -4 -1 -4 -1 0
0 -1 1 -1 1 0 4 -2 6 -3 2 -1 5 -2 7 -2 2 0 5 -1 8 -2 3 -2 4 -2 10 0 4 0 8 1
9 2 4 0 5 4 4 8 -1 1 -3 3 -3 4 -1 1 -2 2 -2 4 -1 3 -3 4 -14 6 -2 0 -5 1 -6
1 -1 1 -2 1 -3 0z"/><path d="M334 372 c0 -2 3 -7 4 -7 1 0 3 -1 5 -2 1 -2 3 -3 4 -3 0 0 0 1 -1 1
-1 1 -2 2 -2 4 -2 4 -10 11 -10 7z"/><path d="M1120 314 c-2 -1 -1 -4 1 -6 3 -3 6 -1 4 3 -1 2 -4 4 -5 3z"/><path d="M1091 313 c0 0 -1 -2 -1 -4 -1 -3 -2 -4 -3 -4 -1 0 -4 -1 -6 -3 -1
-1 -3 -3 -4 -3 -3 -1 -2 -5 2 -8 6 -4 7 -4 12 2 4 4 5 5 8 5 3 0 4 0 5 3 1 5
1 7 -3 10 -3 3 -7 4 -10 2z"/><path d="M1036 300 c0 -4 2 -5 9 -6 3 0 6 0 7 -1 3 -2 9 1 9 4 0 2 -3 3 -8 2
-3 0 -6 0 -14 3 -3 1 -3 1 -3 -2z"/><path d="M964 300 c-2 -1 -2 -5 -1 -7 2 -1 6 -1 7 1 2 1 2 1 -1 5 -3 3 -3 4
-5 1z"/><path d="M508 293 c-9 -7 -11 -9 -12 -14 0 -4 0 -6 1 -7 3 -5 3 -7 0 -8 -4 0
-8 -4 -9 -8 -1 -5 -4 -7 -14 -8 -11 -2 -24 -1 -29 2 -5 2 -14 4 -16 2 -1 -1
-1 -2 1 -7 3 -10 5 -24 4 -30 -1 -4 -1 -4 0 -5 6 -3 9 -7 9 -11 1 -7 12 -20
23 -26 7 -4 11 -10 15 -26 1 -5 3 -6 10 -5 5 1 5 3 1 15 -2 9 -2 16 0 18 1 1
4 2 12 1 19 0 25 -2 32 -8 2 -2 7 -6 11 -9 4 -3 9 -8 12 -12 8 -10 15 -17 39
-39 19 -17 20 -22 2 -23 -5 -1 -8 -1 -10 -3 -4 -3 -11 -3 -30 2 -2 1 -8 1 -14
2 -7 0 -12 1 -15 3 -2 1 -5 2 -6 2 -4 1 -9 8 -15 19 -8 14 -7 13 -13 11 -6 -3
-7 -5 -4 -9 3 -4 15 -26 15 -28 0 -1 -2 -4 -5 -6 -6 -5 -6 -6 -6 -10 0 -6 2
-7 12 -6 4 1 8 1 8 0 1 0 4 1 7 2 7 2 12 2 17 -1 3 -1 14 -1 24 1 10 2 26 1
34 -1 9 -3 9 -3 14 1 5 3 5 3 12 2 3 -1 7 -2 8 -2 1 0 6 -2 11 -2 9 -2 10 -2
12 -1 2 1 5 2 9 2 17 0 23 0 32 1 6 1 16 2 23 2 6 0 14 0 18 1 10 2 34 1 38
-1 4 -2 6 -1 6 6 l1 5 -4 2 c-3 1 -5 1 -14 0 -13 -1 -19 -1 -36 0 -14 0 -18 0
-24 -2 -5 -2 -9 -1 -18 3 -4 2 -18 17 -21 23 -1 1 -2 4 -4 5 -1 1 -2 3 -2 4 0
2 -8 7 -13 8 -23 6 -31 11 -45 26 -5 5 -15 15 -22 22 -13 14 -16 19 -17 27 0
5 0 6 5 11 6 7 7 9 6 14 0 5 -2 5 -11 1 -14 -5 -34 -4 -41 3 -1 1 -3 2 -5 3
-2 1 -6 3 -8 5 -3 3 -7 6 -9 8 -7 6 -5 10 4 10 4 -1 5 0 7 2 1 1 2 2 3 2 1 0
2 1 4 3 5 7 9 13 12 17 6 6 6 5 -8 14 -6 4 -8 6 -8 8 2 2 0 1 -6 -3z"/><path d="M1121 292 c-4 -2 -4 -2 -4 -7 0 -5 3 -10 8 -11 7 -1 9 5 5 15 -3 6
-4 6 -9 3z"/><path d="M1045 284 c-9 -6 -24 -20 -22 -21 6 -4 22 -9 25 -8 1 1 2 1 2 0 0 -1
-3 -3 -7 -5 -9 -4 -21 -5 -26 -2 -4 2 -4 2 -7 0 -3 -2 -9 -9 -10 -13 -1 -3 6
-4 16 -3 32 4 40 6 53 9 5 1 10 6 10 8 0 6 -4 7 -11 5 -6 -3 -15 -2 -17 1 0 2
3 6 7 10 4 3 6 8 3 12 -1 2 -9 10 -10 10 0 0 -3 -2 -6 -3z"/><path d="M212 271 c-2 -1 -2 -3 -2 -7 l1 -4 6 -2 c7 -2 11 -1 13 2 1 2 1 6 1
6 0 0 -4 1 -8 3 -8 3 -9 4 -11 2z"/><path d="M583 271 c-8 0 -8 0 -8 -3 -1 -6 4 -13 9 -13 2 0 5 -1 7 -1 1 -1 3
-1 5 -1 1 0 7 -1 13 -3 7 -3 14 -4 17 -4 6 0 6 0 7 4 2 4 2 4 -1 6 -3 3 -4 3
-9 3 -5 0 -6 1 -12 4 -5 3 -8 5 -10 4 -2 0 -4 1 -6 2 -2 2 -4 3 -4 3 0 0 -4
-1 -8 -1z"/><path d="M1133 260 c-2 -1 -3 -2 -3 -3 0 -1 -1 -3 -2 -3 -1 -1 -2 -3 -2 -4 0
-1 -1 -3 -2 -5 -2 -3 -3 -5 -2 -8 1 -12 1 -17 0 -19 0 -1 -3 -8 -4 -15 -11
-38 -20 -63 -31 -74 -6 -7 -9 -8 -19 -8 -11 1 -14 -3 -9 -12 4 -9 10 -9 30 0
7 3 9 4 10 6 1 2 3 6 5 9 1 3 3 6 3 8 0 3 8 20 13 27 5 6 7 10 8 18 1 6 3 11
6 15 2 3 2 4 1 7 -1 5 -1 11 1 23 1 7 2 13 2 15 -1 2 0 5 1 8 4 9 4 11 2 14
-2 3 -4 4 -8 1z"/><path d="M863 254 c-10 -2 -12 -6 -13 -14 -1 -3 -2 -7 -4 -10 -2 -2 -3 -5 -3
-6 0 -2 4 -3 8 -2 4 1 19 3 31 3 9 1 10 2 9 5 -1 1 -4 6 -6 11 -6 12 -11 15
-22 13z"/><path d="M691 242 c0 -3 0 -4 -3 -7 -4 -4 -3 -14 1 -16 5 -2 12 -1 12 4 0 3 1
4 6 7 5 2 6 4 4 8 -2 3 -11 7 -17 7 -4 0 -4 0 -3 -3z"/><path d="M635 235 c-6 -3 -6 -3 -21 -3 -18 0 -23 -2 -26 -7 -2 -4 -1 -5 7 -11
6 -5 6 -5 18 -6 22 -3 36 0 45 7 2 2 6 4 8 5 5 1 6 4 6 10 l0 3 -11 0 c-10 0
-12 0 -16 3 -2 1 -4 2 -4 2 0 0 -3 -2 -6 -3z"/><path d="M950 236 c-1 0 -4 -1 -8 -3 -3 -2 -6 -3 -7 -3 -3 0 -12 -5 -11 -5 2
-2 18 -2 25 -1 3 1 9 2 13 3 7 0 12 2 6 2 -1 0 -3 1 -4 1 -2 2 -10 7 -11 7 -1
0 -2 0 -3 -1z"/><path d="M174 136 c-14 -9 -12 -15 7 -22 3 -2 8 -4 11 -5 2 -1 6 -2 9 -2 3 -1
7 -2 10 -3 2 -1 6 -2 9 -2 2 0 6 -1 10 -2 4 -1 9 -2 14 -2 3 0 11 -1 17 -2 6
-1 15 -3 21 -4 5 0 12 -2 16 -3 6 -1 6 -1 8 1 1 2 1 5 0 8 -3 6 -33 15 -51 14
-4 0 -9 1 -19 4 -32 10 -37 12 -41 17 -5 7 -14 8 -21 3z"/><path d="M1014 93 c-4 0 -8 -1 -9 -2 -2 -1 -12 -2 -22 -3 -39 -2 -42 -3 -42
-9 0 -5 6 -9 10 -6 3 1 16 3 34 3 3 1 7 1 8 2 3 2 15 2 20 0 3 -1 5 -1 10 1
l6 2 -1 5 c0 8 -1 9 -14 7z"/><path d="M845 81 c-3 -1 -13 -1 -23 -1 -20 -1 -21 -1 -23 -7 l-1 -5 5 -2 c4
-2 5 -2 10 -2 7 1 8 1 16 1 6 -1 7 -1 10 1 5 2 7 2 12 1 4 -2 5 -2 10 1 6 4 6
4 1 9 -5 5 -6 6 -17 4z"/><path d="M903 79 c-4 -5 -4 -6 1 -9 4 -2 4 -2 6 0 4 2 4 6 1 10 -4 3 -4 3 -8
-1z"/></g><g transform="translate(0.000000,576.000000) scale(1.000000,-1.000000)" fill="#C5C6C4"><path d="M329 548 c-4 -2 -1 -10 4 -10 2 0 4 5 3 8 0 3 -4 4 -7 2z"/><path d="M161 545 c-1 0 -2 -2 -2 -4 -2 -9 -1 -10 8 -8 5 1 6 2 8 5 1 2 2 4 2
5 0 2 -10 4 -16 2z"/><path d="M209 545 c-3 0 -3 -2 1 -5 2 -2 3 -3 5 -2 3 0 10 5 10 7 0 1 -12 1
-16 0z"/><path d="M793 542 c-2 0 -2 -1 -2 -2 0 -1 0 -2 0 -4 0 -3 4 -4 16 -4 9 -1 9
-1 7 1 -2 1 -4 2 -5 3 -5 4 -13 7 -16 6z"/><path d="M208 497 c-4 -4 -9 -8 -13 -10 -7 -4 -8 -6 -4 -10 3 -4 5 -3 12 3 2
3 8 7 12 10 3 2 7 4 7 5 1 0 -5 8 -6 8 -1 0 -5 -3 -8 -6z"/><path d="M933 427 c0 -2 2 -5 6 -11 5 -6 7 -11 7 -17 l0 -4 4 -1 c10 -1 24 6
17 9 -3 1 -13 9 -15 13 -1 1 -2 4 -4 5 -1 2 -2 3 -2 4 -1 1 -13 3 -13 2z"/><path d="M151 424 c-10 -4 -10 -3 -6 -7 5 -7 9 -9 17 -9 8 1 8 2 5 12 -3 8 -5
8 -16 4z"/><path d="M129 400 c-2 -2 -2 -3 0 -5 2 -3 3 -3 6 0 2 3 2 3 0 5 -2 3 -3 2 -6
0z"/><path d="M86 381 c-7 -9 -7 -10 -9 -19 0 -5 -3 -12 -6 -19 -8 -17 -8 -21 3
-29 3 -1 8 -7 13 -12 10 -12 13 -14 17 -12 1 1 3 3 4 4 1 0 4 3 7 4 2 2 7 7
11 11 11 13 24 25 31 27 3 1 5 1 11 0 11 -2 13 -4 14 -7 2 -3 2 -3 -2 -10 l-3
-7 2 -2 c2 -1 3 -2 5 -1 2 1 7 1 11 2 4 0 7 1 7 1 0 4 17 5 25 2 2 -1 5 -2 7
-2 3 0 6 -1 8 -3 9 -5 15 -7 22 -8 3 0 9 -1 13 -3 3 -1 11 -3 18 -5 7 -2 15
-4 18 -5 2 -1 8 -3 12 -3 4 0 10 -1 14 -2 8 -1 12 0 20 6 l7 5 6 -1 c10 -1 12
1 12 8 2 12 1 19 -1 24 -2 5 -4 5 -10 -1 -2 -1 -5 -3 -6 -3 0 0 -2 -1 -4 -2
-4 -3 -8 -3 -18 -1 -11 3 -15 5 -26 19 -4 4 -5 5 -11 5 -6 1 -7 1 -11 -3 -6
-5 -9 -5 -15 -1 -2 2 -5 4 -5 4 -1 1 -3 0 -6 -2 -3 -2 -7 -3 -8 -3 -5 0 -29 6
-37 10 -5 2 -12 4 -15 5 -16 5 -24 8 -33 12 -11 5 -13 6 -18 2 -2 0 -6 -1 -11
-2 -6 -1 -11 -2 -14 -3 -6 -3 -7 -3 -16 5 -4 3 -10 8 -14 12 -5 3 -9 7 -10 8
-3 3 -4 3 -9 -5z"/><path d="M334 372 c0 -2 3 -7 4 -7 1 0 3 -1 5 -2 1 -2 3 -3 4 -3 0 0 0 1 -1 1
-1 1 -2 2 -2 4 -2 4 -10 11 -10 7z"/><path d="M422 359 l-3 -3 2 -3 c3 -6 5 -6 12 -4 7 3 14 3 25 0 6 -1 13 -2 19
-2 7 0 12 -1 19 -2 14 -4 15 -4 17 1 2 6 -1 9 -11 9 -5 1 -11 2 -13 2 -4 2 -8
2 -18 1 -11 0 -14 0 -20 2 -6 1 -11 2 -17 2 -9 0 -9 0 -12 -3z"/><path d="M1120 314 c-2 -1 -1 -4 1 -6 3 -3 6 -1 4 3 -1 2 -4 4 -5 3z"/><path d="M1081 302 c-1 -1 -3 -3 -4 -3 -3 -1 -2 -5 2 -8 6 -4 7 -4 12 2 4 4 4
4 3 6 -3 7 -8 8 -13 3z"/><path d="M1036 300 c0 -4 2 -5 9 -6 3 0 6 0 7 -1 3 -2 9 1 9 4 0 2 -3 3 -8 2
-3 0 -6 0 -14 3 -3 1 -3 1 -3 -2z"/><path d="M964 300 c-2 -1 -2 -5 -1 -7 2 -1 6 -1 7 1 2 1 2 1 -1 5 -3 3 -3 4
-5 1z"/><path d="M1121 292 c-4 -2 -4 -2 -4 -7 0 -5 3 -10 8 -11 7 -1 9 5 5 15 -3 6
-4 6 -9 3z"/><path d="M1045 284 c-9 -6 -24 -20 -22 -21 6 -4 22 -9 25 -8 1 1 2 1 2 0 0 -1
-3 -3 -7 -5 -9 -4 -21 -5 -26 -2 -4 2 -4 2 -7 0 -3 -2 -9 -9 -10 -13 -1 -3 6
-4 16 -3 32 4 40 6 53 9 5 1 10 6 10 8 0 6 -4 7 -11 5 -6 -3 -15 -2 -17 1 0 2
3 6 7 10 4 3 6 8 3 12 -1 2 -9 10 -10 10 0 0 -3 -2 -6 -3z"/><path d="M212 271 c-2 -1 -2 -3 -2 -7 l1 -4 6 -2 c7 -2 11 -1 13 2 1 2 1 6 1
6 0 0 -4 1 -8 3 -8 3 -9 4 -11 2z"/><path d="M583 271 c-8 0 -8 0 -8 -3 -1 -6 4 -13 9 -13 2 0 5 -1 7 -1 1 -1 3
-1 5 -1 1 0 7 -1 13 -3 7 -3 14 -4 17 -4 6 0 6 0 7 4 2 4 2 4 -1 6 -3 3 -4 3
-9 3 -5 0 -6 1 -12 4 -5 3 -8 5 -10 4 -2 0 -4 1 -6 2 -2 2 -4 3 -4 3 0 0 -4
-1 -8 -1z"/><path d="M497 264 c-4 0 -8 -4 -9 -8 -1 -5 -4 -7 -14 -8 -11 -2 -24 -1 -29 2
-5 2 -14 4 -16 2 -1 -1 -1 -2 1 -7 3 -10 5 -24 4 -30 -1 -4 -1 -4 0 -5 6 -3 9
-7 9 -11 1 -7 12 -20 23 -26 7 -4 11 -10 15 -26 1 -5 3 -6 10 -5 5 1 5 3 1 15
-2 9 -2 16 0 18 1 1 4 2 12 1 19 0 25 -2 32 -8 2 -2 7 -6 11 -9 4 -3 9 -8 12
-12 8 -10 15 -17 39 -39 19 -17 20 -22 2 -23 -5 -1 -8 -1 -10 -3 -4 -3 -11 -3
-30 2 -2 1 -8 1 -14 2 -7 0 -12 1 -15 3 -2 1 -5 2 -6 2 -4 1 -9 8 -15 19 -8
14 -7 13 -13 11 -6 -3 -7 -5 -4 -9 3 -4 15 -26 15 -28 0 -1 -2 -4 -5 -6 -6 -5
-6 -6 -6 -10 0 -6 2 -7 12 -6 4 1 8 1 8 0 1 0 4 1 7 2 7 2 12 2 17 -1 3 -1 14
-1 24 1 10 2 26 1 34 -1 9 -3 9 -3 14 1 5 3 5 3 12 2 3 -1 7 -2 8 -2 1 0 6 -2
11 -2 9 -2 10 -2 12 -1 2 1 5 2 9 2 17 0 23 0 32 1 6 1 16 2 23 2 6 0 14 0 18
1 10 2 34 1 38 -1 4 -2 6 -1 6 6 l1 5 -4 2 c-3 1 -5 1 -14 0 -13 -1 -19 -1
-36 0 -14 0 -18 0 -24 -2 -5 -2 -9 -1 -18 3 -4 2 -18 17 -21 23 -1 1 -2 4 -4
5 -1 1 -2 3 -2 4 0 2 -8 7 -13 8 -23 6 -31 11 -45 26 -5 5 -15 15 -22 22 -13
14 -16 19 -17 27 0 5 0 6 5 11 6 7 7 9 6 14 0 5 -2 5 -11 1 -14 -5 -34 -4 -41
3 -1 1 -3 2 -5 3 -2 1 -6 3 -8 5 -3 3 -7 6 -9 8 -7 6 -5 10 4 10 4 -1 5 0 7 2
1 1 2 2 3 2 4 0 3 3 -2 4 -2 1 -6 2 -8 4 -2 2 -4 3 -4 3 0 0 -2 0 -3 -1z"/><path d="M1133 260 c-2 -1 -3 -2 -3 -3 0 -1 -1 -3 -2 -3 -1 -1 -2 -3 -2 -4 0
-1 -1 -3 -2 -5 -2 -3 -3 -5 -2 -8 1 -12 1 -17 0 -19 0 -1 -3 -8 -4 -15 -11
-38 -20 -63 -31 -74 -6 -7 -9 -8 -19 -8 -11 1 -14 -3 -9 -12 4 -9 10 -9 30 0
7 3 9 4 10 6 1 2 3 6 5 9 1 3 3 6 3 8 0 3 8 20 13 27 5 6 7 10 8 18 1 6 3 11
6 15 2 3 2 4 1 7 -1 5 -1 11 1 23 1 7 2 13 2 15 -1 2 0 5 1 8 4 9 4 11 2 14
-2 3 -4 4 -8 1z"/><path d="M863 254 c-10 -2 -12 -6 -13 -14 -1 -3 -2 -7 -4 -10 -2 -2 -3 -5 -3
-6 0 -2 4 -3 8 -2 4 1 19 3 31 3 9 1 10 2 9 5 -1 1 -4 6 -6 11 -6 12 -11 15
-22 13z"/><path d="M691 242 c0 -3 0 -4 -3 -7 -4 -4 -3 -14 1 -16 5 -2 12 -1 12 4 0 3 1
4 6 7 5 2 6 4 4 8 -2 3 -11 7 -17 7 -4 0 -4 0 -3 -3z"/><path d="M635 235 c-6 -3 -6 -3 -21 -3 -18 0 -23 -2 -26 -7 -2 -4 -1 -5 7 -11
6 -5 6 -5 18 -6 22 -3 36 0 45 7 2 2 6 4 8 5 5 1 6 4 6 10 l0 3 -11 0 c-10 0
-12 0 -16 3 -2 1 -4 2 -4 2 0 0 -3 -2 -6 -3z"/><path d="M950 236 c-1 0 -4 -1 -8 -3 -3 -2 -6 -3 -7 -3 -3 0 -12 -5 -11 -5 2
-2 18 -2 25 -1 3 1 9 2 13 3 7 0 12 2 6 2 -1 0 -3 1 -4 1 -2 2 -10 7 -11 7 -1
0 -2 0 -3 -1z"/><path d="M174 136 c-14 -9 -12 -15 7 -22 3 -2 8 -4 11 -5 2 -1 6 -2 9 -2 3 -1
7 -2 10 -3 2 -1 6 -2 9 -2 2 0 6 -1 10 -2 4 -1 9 -2 14 -2 3 0 11 -1 17 -2 6
-1 15 -3 21 -4 5 0 12 -2 16 -3 6 -1 6 -1 8 1 1 2 1 5 0 8 -3 6 -33 15 -51 14
-4 0 -9 1 -19 4 -32 10 -37 12 -41 17 -5 7 -14 8 -21 3z"/><path d="M1014 93 c-4 0 -8 -1 -9 -2 -2 -1 -12 -2 -22 -3 -39 -2 -42 -3 -42
-9 0 -5 6 -9 10 -6 3 1 16 3 34 3 3 1 7 1 8 2 3 2 15 2 20 0 3 -1 5 -1 10 1
l6 2 -1 5 c0 8 -1 9 -14 7z"/><path d="M845 81 c-3 -1 -13 -1 -23 -1 -20 -1 -21 -1 -23 -7 l-1 -5 5 -2 c4
-2 5 -2 10 -2 7 1 8 1 16 1 6 -1 7 -1 10 1 5 2 7 2 12 1 4 -2 5 -2 10 1 6 4 6
4 1 9 -5 5 -6 6 -17 4z"/><path d="M903 79 c-4 -5 -4 -6 1 -9 4 -2 4 -2 6 0 4 2 4 6 1 10 -4 3 -4 3 -8
-1z"/></g>
  </g>
  <!-- オーナー（グッジョブ！） -->
  <g class="hop">
    <!-- 上げた腕＋サムズアップ（振り上げアニメーション） -->
    <g class="cheer">
      <path d="M654 242 L676 222 L690 202" fill="none" stroke="#C9A227" stroke-width="17" stroke-linecap="round"/>
      <path d="M654 242 L676 222 L690 202" fill="none" stroke="#1E1E24" stroke-width="12" stroke-linecap="round"/>
      <g transform="rotate(-14 692 192)">
        <rect x="680" y="182" width="25" height="24" rx="8" fill="#E8C39E"/>
        <rect x="678" y="160" width="11" height="26" rx="5.5" fill="#E8C39E"/>
      </g>
    </g>
    <!-- 頭 -->
    <circle cx="640" cy="196" r="21" fill="#E8C39E"/>
    <path d="M619 192 a21 21 0 0 1 42 0 l-6 -4 q-4 -8 -12 -9 q-14 -1 -18 8 z" fill="#2A2320"/>
    <!-- にっこり -->
    <path d="M632 202 q8 7 16 0" fill="none" stroke="#7A5A3A" stroke-width="2.5" stroke-linecap="round"/>
    <circle cx="632" cy="193" r="2.2" fill="#3A2E24"/><circle cx="649" cy="193" r="2.2" fill="#3A2E24"/>
    <!-- 体（ジャケット） -->
    <path d="M622 222 h36 q10 0 12 12 l6 60 q0 10 -10 10 h-52 q-10 0 -10 -10 l6 -60 q2 -12 12 -12z" fill="#1E1E24" stroke="#C9A227" stroke-width="2"/>
    <line x1="640" y1="226" x2="640" y2="302" stroke="#C9A227" stroke-width="2"/>
    <!-- 下げた腕 -->
    <path d="M616 232 L606 268 L610 296" fill="none" stroke="#C9A227" stroke-width="17" stroke-linecap="round"/>
    <path d="M616 232 L606 268 L610 296" fill="none" stroke="#1E1E24" stroke-width="12" stroke-linecap="round"/>
    <circle cx="611" cy="302" r="8" fill="#E8C39E"/>
    <!-- 脚 -->
    <path d="M628 304 L626 398 M652 304 L654 398" stroke="#26262E" stroke-width="15" stroke-linecap="round"/>
    <path d="M618 402 h18 v-8 q-14 -4 -18 2 z M646 394 q4 -6 18 -2 v8 h-18 z" fill="#0B0B0D" stroke="#C9A227" stroke-width="1.5"/>
  </g>

  <!-- サムズアップ強調スパーク -->
  <g fill="#E8D9A0">
    <path class="spark" d="M718 168l5 13 13 5-13 5-5 13-5-13-13-5 13-5z"/>
    <path class="spark d2" d="M186 150l6 16 16 6-16 6-6 16-6-16-16-6 16-6z"/>
    <path class="spark d3" d="M560 130l5 13 13 5-13 5-5 13-5-13-13-5 13-5z"/>
  </g>

  <text x="400" y="446" text-anchor="middle" fill="#E8D9A0" font-size="28" letter-spacing="10">PURCHASE &amp; TRADE-IN</text>
  <text x="400" y="472" text-anchor="middle" fill="#8A8A8A" font-size="13" letter-spacing="6">FREE APPRAISAL</text>
</svg>
