<svg xmlns="http://www.w3.org/2000/svg" viewBox="0 0 800 500" font-family="Georgia, 'Times New Roman', serif">
  <style>
    .spark{animation:tw 2.2s ease-in-out infinite;transform-box:fill-box;transform-origin:center}
    .spark.d2{animation-delay:.7s}.spark.d3{animation-delay:1.4s}
    @keyframes tw{0%,100%{opacity:0;transform:scale(.3)}50%{opacity:1;transform:scale(1)}}
    .cheer{animation:cheer 1.5s ease-in-out infinite;transform-origin:656px 242px}
    @keyframes cheer{0%,100%{transform:rotate(0deg)}50%{transform:rotate(-10deg)}}
    .hop{animation:hop 1.5s ease-in-out infinite}
    @keyframes hop{0%,100%{transform:translateY(0)}50%{transform:translateY(-4px)}}
    @media (prefers-reduced-motion:reduce){*{animation:none!important}}
  </style>

  <rect width="800" height="500" fill="#0B0B0D"/>
  <radialGradient id="bg" cx="50%" cy="45%" r="75%">
    <stop offset="0" stop-color="#181410"/><stop offset="1" stop-color="#0B0B0D"/>
  </radialGradient>
  <rect width="800" height="500" fill="url(#bg)"/>
  <rect x="18" y="18" width="764" height="464" fill="none" stroke="#C9A227" stroke-opacity=".35" stroke-width="2"/>

  <!-- 地面 -->
  <ellipse cx="360" cy="408" rx="300" ry="22" fill="#15151A"/>
  <ellipse cx="648" cy="410" rx="66" ry="10" fill="#15151A"/>

  <!-- 納車された86（写真トレース・簡素化フラットベクター） -->
  <g transform="translate(118 183.2) scale(0.3833)">
<g transform="translate(0.000000,576.000000) scale(1.000000,-1.000000)" fill="#909290"><path d="M468 566 c0 -1 -2 -4 -3 -6 -4 -9 0 -8 -47 -8 -34 0 -41 0 -44 -1 -5
-3 -23 -3 -29 -1 -4 2 -4 2 -7 0 -2 -1 -8 -1 -34 -1 -25 0 -32 0 -35 -1 -3 -2
-10 -2 -31 -2 -20 0 -27 0 -30 -2 -6 -2 -26 -2 -32 1 -6 2 -65 2 -71 0 -2 -1
-6 -2 -10 -2 -3 -1 -7 -2 -9 -2 -3 -2 -8 -2 -20 -2 -12 0 -17 0 -19 -1 -2 -2
-6 -2 -16 -2 -19 0 -19 0 -19 -15 0 -6 0 -11 -1 -11 -4 -3 4 -10 10 -10 5 0
11 7 11 13 0 9 5 10 49 10 30 0 37 0 39 2 4 2 34 2 38 0 5 -3 10 -11 12 -17 1
-4 3 -9 5 -14 4 -11 1 -30 -8 -39 -3 -2 -6 -6 -7 -8 -1 -2 -3 -5 -5 -6 -2 -2
-4 -5 -5 -7 -4 -8 -34 -35 -41 -37 -4 -1 -7 -3 -9 -4 -1 0 -3 -1 -4 -1 -5 0
-28 -13 -31 -18 -2 -4 -6 -15 -7 -21 0 -3 -2 -8 -3 -11 -5 -10 -10 -27 -10
-31 0 -2 -1 -6 -1 -8 -1 -2 -2 -5 -2 -8 0 -3 -1 -8 -2 -11 -1 -3 -2 -8 -2 -12
0 -3 -1 -7 -1 -9 -3 -6 -3 -125 0 -131 1 -2 1 -7 1 -14 0 -9 0 -11 3 -20 2 -6
4 -12 4 -13 0 -2 1 -5 1 -6 1 -1 2 -4 2 -5 0 -8 9 -22 17 -26 7 -3 39 -5 46
-2 2 1 11 2 30 2 32 1 30 0 35 10 5 9 5 9 22 10 10 0 15 0 19 -1 3 -1 10 -2
16 -2 6 -1 12 -2 15 -2 2 -1 7 -2 14 -2 6 0 11 -1 13 -1 3 -2 9 -2 28 -2 16 0
25 0 27 -1 1 -1 8 -2 14 -2 13 -1 17 -3 21 -13 7 -22 22 -33 43 -29 6 1 12 5
23 15 9 8 9 8 26 8 10 0 18 1 19 2 5 2 73 1 80 -1 4 -1 6 -1 15 1 9 1 25 1 53
0 4 -1 22 -1 40 -2 24 0 31 -1 33 -2 4 -2 31 -2 37 0 5 2 9 2 43 2 29 0 39 0
40 1 2 1 22 2 84 2 44 1 83 1 87 1 11 1 20 -3 29 -11 8 -6 13 -8 26 -9 5 0 11
-1 14 -2 5 -1 18 -1 25 0 3 1 8 2 12 2 4 0 8 1 10 2 2 0 5 1 7 1 12 0 32 15
41 31 3 5 9 10 15 10 6 1 11 6 10 9 -1 1 -1 4 -2 6 0 3 -2 8 -4 12 -1 3 -3 9
-3 11 0 2 -1 5 -2 7 -1 1 -1 8 -1 18 -1 20 1 23 10 24 18 2 21 14 10 35 -5 10
-8 18 -10 26 0 1 -1 3 -2 5 0 1 -1 3 -1 6 -1 2 -2 6 -4 8 -3 4 -9 15 -9 19 -1
1 -2 5 -4 8 -2 4 -3 7 -3 8 0 2 -4 10 -8 16 -3 4 -7 11 -9 16 -5 8 -6 10 -19
22 -8 7 -15 15 -16 17 -2 4 -18 20 -23 22 -6 4 -20 10 -24 10 -3 1 -5 2 -6 2
0 1 -4 1 -8 2 -4 0 -9 1 -10 2 -1 0 -3 1 -5 1 -1 0 -5 1 -7 2 -2 0 -5 1 -6 1
-2 0 -6 1 -9 3 -4 2 -8 3 -8 3 -3 0 -18 8 -19 10 -4 7 0 15 7 15 7 0 13 3 16
7 2 5 0 6 -11 7 -8 1 -11 1 -21 4 -3 1 -5 1 -8 0 -20 -6 -22 -5 -63 39 -5 6
-12 12 -15 14 -3 2 -12 10 -21 18 -8 8 -15 15 -16 15 -1 0 -4 2 -6 4 -8 6 -15
10 -22 14 -3 2 -6 3 -6 4 -2 2 -10 6 -18 8 -4 1 -9 3 -11 3 -11 5 -14 5 -38 5
-19 0 -24 0 -27 2 -3 1 -9 1 -30 1 -21 0 -27 0 -29 2 -2 0 -5 1 -10 1 -5 0 -8
-1 -10 -1 -2 -2 -14 -2 -74 -2 -72 0 -72 0 -77 4 -7 7 -14 10 -17 7z m-234
-46 c0 -5 0 -5 -3 -7 -2 -1 -7 -4 -11 -7 -17 -10 -32 -6 -32 10 0 6 1 8 5 9 1
1 10 1 21 1 20 0 20 0 20 -6z"/></g><g transform="translate(0.000000,576.000000) scale(1.000000,-1.000000)" fill="#E1E2E1"><path d="M468 566 c0 -1 -2 -4 -3 -6 -4 -9 0 -8 -47 -8 -34 0 -41 0 -44 -1 -5
-3 -23 -3 -29 -1 -4 2 -4 2 -7 0 -2 -1 -9 -1 -35 -1 -21 0 -28 -1 -22 -1 18
-1 13 -7 -16 -17 -14 -4 -31 -13 -31 -15 0 0 -1 -2 -3 -3 -3 -2 -3 -2 1 -4 5
-5 14 -3 30 4 36 15 66 -3 60 -36 -1 -11 -1 -11 1 -22 1 -7 2 -16 2 -21 0 -5
1 -13 2 -17 0 -5 1 -12 1 -16 0 -23 11 -38 36 -47 15 -6 20 -17 14 -25 -6 -8
-15 -10 -19 -5 -6 7 -13 9 -18 4 -6 -5 -14 -2 -24 10 -5 5 -5 6 3 12 11 7 13
11 7 17 -9 8 -34 1 -46 -15 -3 -3 -5 -3 -11 2 -2 2 -7 6 -11 8 -11 9 -11 10 3
17 6 3 18 14 18 17 0 6 -9 9 -16 5 -4 -1 -12 0 -16 2 -14 7 -31 -5 -27 -19 1
-3 1 -3 -2 -4 -14 -6 -43 10 -52 29 -5 10 -6 11 -17 14 -5 1 -5 1 -4 4 1 2 1
2 -3 -1 -2 -3 -4 -5 -3 -5 0 -1 0 -1 -1 -1 -1 1 -3 -1 -15 -13 -7 -7 -10 -8
-15 -10 -4 -1 -7 -3 -9 -4 -1 0 -3 -1 -4 -1 -2 0 -17 -7 -23 -12 -7 -4 -10 -9
-11 -14 -1 -3 -1 -3 1 0 4 8 10 13 17 15 3 1 -1 -15 -7 -31 -7 -20 -7 -24 1
-36 15 -21 30 -22 52 -3 28 23 30 25 39 24 12 -1 36 -11 41 -17 3 -3 3 -3 0
-9 -10 -18 -1 -36 20 -38 13 -1 17 6 17 25 -1 12 0 12 13 7 7 -3 14 -4 23 -5
3 -1 9 -2 13 -4 27 -9 56 -11 68 -5 8 4 23 4 30 1 17 -8 37 -37 37 -54 0 -4
-5 1 -13 13 -8 11 -13 15 -18 14 -1 0 -3 1 -5 2 -5 2 -9 2 -13 1 -1 -1 -4 -1
-5 -2 -10 0 -21 -20 -21 -36 0 -7 -1 -9 -2 -12 -3 -4 -3 -12 -1 -25 1 -6 1
-10 0 -16 -1 -10 -1 -16 3 -29 2 -11 3 -13 0 -19 -1 -4 -1 -9 2 -15 5 -13 6
-17 3 -24 -1 -2 -1 -4 0 -6 1 -3 1 -4 -3 -12 -3 -4 -5 -9 -6 -10 0 -3 -7 -3
-22 -1 -7 1 -19 3 -25 3 -7 1 -24 2 -38 4 -14 2 -32 4 -39 4 -14 2 -15 2 -24
7 -12 6 -16 6 -22 3 -5 -3 -9 -3 -32 2 -18 5 -21 8 -27 31 -3 8 -5 16 -6 18
-1 2 -2 4 -1 5 0 1 -1 6 -2 10 -2 8 -2 8 -1 20 3 13 2 17 -2 30 -2 4 -3 9 -3
11 2 16 -13 68 -23 77 -7 7 -18 10 -26 7 -7 -3 -11 -1 -12 5 -1 6 -1 6 -1 0 0
-3 -1 -9 -2 -12 -1 -3 -2 -8 -2 -12 0 -3 -1 -7 -1 -9 -3 -6 -3 -125 0 -131 1
-2 1 -7 1 -14 0 -9 0 -11 3 -20 2 -6 4 -12 4 -13 0 -2 1 -5 1 -6 1 -1 2 -4 2
-5 0 -8 9 -22 17 -26 7 -3 39 -5 46 -2 2 1 11 2 30 2 32 1 30 0 35 10 5 9 5 9
22 10 10 0 15 0 19 -1 3 -1 10 -2 16 -2 6 -1 12 -2 15 -2 2 -1 7 -2 14 -2 6 0
11 -1 13 -1 3 -2 9 -2 28 -2 16 0 25 0 27 -1 1 -1 8 -2 14 -2 13 -1 17 -3 21
-13 7 -22 22 -33 43 -29 6 1 12 5 23 15 9 8 9 8 26 8 10 0 18 1 19 2 5 2 73 1
80 -1 4 -1 6 -1 15 1 9 1 25 1 53 0 4 -1 22 -1 40 -2 24 0 31 -1 33 -2 4 -2
31 -2 37 0 5 2 9 2 43 2 29 0 39 0 40 1 2 1 22 2 84 2 44 1 83 1 87 1 11 1 20
-3 29 -11 8 -6 13 -8 26 -9 5 0 11 -1 14 -2 5 -1 18 -1 25 0 3 1 8 2 12 2 4 0
8 1 10 2 2 0 5 1 7 1 12 0 32 15 41 31 3 5 9 10 15 10 6 1 11 6 10 9 -1 1 -1
4 -2 6 0 3 -2 8 -4 12 -1 3 -2 9 -3 11 -1 8 -3 9 -3 2 0 -7 0 -7 -7 -10 -14
-7 -17 -7 -52 -9 -10 0 -20 -1 -22 -2 -2 0 -7 -1 -10 -1 -7 0 -16 -2 -21 -5
-3 -2 -5 -3 -12 -3 -5 0 -11 0 -13 -1 -2 -1 -4 -1 -6 0 -4 2 -21 1 -31 -1 -5
-1 -13 -2 -24 -2 -49 0 -45 1 -52 -2 -7 -3 -7 -3 -51 -3 -43 -1 -44 -1 -48 -3
-3 -1 -6 -2 -8 -2 -2 0 -5 -1 -7 -1 -5 -2 -19 -2 -22 0 -8 5 -14 7 -20 7 -11
-2 -22 -3 -37 -4 -9 -1 -17 -2 -18 -3 -2 -1 -3 -1 -8 1 -2 0 -7 2 -9 2 -8 2
-11 7 -8 14 3 7 3 7 7 6 2 0 28 0 58 0 39 0 55 -1 64 -2 10 -1 12 -1 21 0 7 2
18 3 32 3 11 0 23 1 25 2 8 2 24 2 32 1 5 -1 9 -1 12 0 2 1 11 1 18 2 7 1 17
2 21 2 4 1 15 2 23 3 31 2 37 4 45 12 16 14 16 24 3 52 -12 24 -26 31 -63 29
-21 0 -34 1 -38 4 -1 1 -6 3 -10 5 -9 2 -9 2 -21 -2 -4 -2 -5 -2 -7 0 -8 5
-52 3 -56 -2 -2 -2 -2 -2 -8 0 -11 2 -26 -1 -34 -8 -4 -4 -10 -5 -36 -6 -38
-1 -45 -3 -57 -10 -13 -9 -12 -9 -18 -4 -29 24 -47 -4 -20 -33 3 -3 3 -3 -1
-11 -7 -14 -6 -14 -20 -4 -9 6 -11 7 -22 10 -10 2 -13 3 -21 14 -4 4 -10 11
-15 15 -21 19 -24 22 -34 42 -7 15 -10 17 -17 19 -3 0 -6 2 -10 5 -3 2 -8 6
-11 7 -9 5 -16 13 -16 17 1 4 30 33 37 37 14 7 31 7 48 1 13 -5 17 -9 17 -19
-1 -3 -1 -7 -1 -9 0 -1 -1 -2 -2 -3 -13 -3 -12 -15 1 -21 3 -2 4 -4 4 -9 0
-11 15 -15 31 -9 12 5 16 5 26 4 13 -1 22 0 32 2 6 1 12 2 14 2 2 0 7 1 11 1
6 1 7 1 15 -1 9 -3 9 -3 28 -3 11 1 29 1 41 1 22 0 27 1 36 5 9 4 40 6 53 3
27 -6 66 -4 90 4 12 3 17 4 29 2 9 -2 15 -2 28 3 16 5 19 12 6 13 -18 0 -21
12 -5 17 9 3 12 6 12 15 0 24 20 31 48 17 11 -6 13 -6 21 0 3 2 5 4 5 3 1 -1
2 -1 3 -2 6 -3 -4 9 -17 22 -8 7 -15 15 -16 17 -2 4 -18 20 -23 22 -6 4 -20
10 -24 10 -3 1 -5 2 -6 2 0 1 -4 1 -8 2 -4 0 -9 1 -10 2 -1 0 -3 1 -5 1 -1 0
-5 1 -7 2 -2 0 -5 1 -6 1 -2 0 -6 1 -9 3 -4 2 -8 3 -8 3 -3 0 -18 8 -19 10 -4
7 0 15 7 15 7 0 13 3 16 7 2 5 0 6 -11 7 -8 1 -11 1 -21 4 -3 1 -5 1 -7 0 -2
0 -6 -1 -9 -2 -3 0 -5 0 -5 -1 0 -3 13 -18 16 -18 1 0 3 -1 4 -3 3 -2 3 -2 -1
0 -4 3 -3 3 -8 -1 -9 -7 -25 -11 -39 -11 -9 1 -14 1 -22 -1 -12 -1 -66 -2 -77
-1 -6 1 -8 1 -14 -1 -6 -2 -8 -2 -19 -2 -8 1 -15 1 -17 0 -3 0 -10 -1 -17 -1
-7 -1 -22 -2 -33 -2 -11 -1 -23 -1 -27 -1 -12 1 -22 0 -36 -1 -8 -1 -17 -2
-19 -1 -3 0 -8 0 -13 -1 -8 -2 -10 -2 -17 -1 -6 1 -9 1 -16 -1 -6 -1 -11 -1
-15 -1 -8 1 -23 0 -29 -1 -6 -1 -77 -1 -98 0 -11 1 -16 0 -21 -1 -24 -5 -45
-5 -52 -1 -5 2 -5 2 -2 9 3 7 3 10 -9 29 -2 4 -6 5 -10 4 -4 -3 -4 -3 -6 2 -1
3 -2 7 -2 13 0 5 0 11 -1 14 -1 5 -2 29 -2 42 0 5 5 15 10 22 7 7 12 9 29 10
9 1 19 1 23 2 4 1 11 1 16 1 5 0 13 1 20 2 20 4 41 5 66 5 16 1 24 1 27 2 5 1
10 2 50 2 13 1 28 1 32 2 7 1 44 0 56 -2 3 0 8 0 12 2 6 1 8 1 17 0 6 -1 17
-1 26 -1 8 0 18 0 21 0 14 0 29 4 32 8 1 1 3 2 6 2 3 1 3 1 1 1 -2 1 -5 2 -7
2 -11 5 -14 5 -38 5 -19 0 -24 0 -27 2 -3 1 -9 1 -30 1 -21 0 -27 0 -29 2 -2
0 -5 1 -10 1 -5 0 -8 -1 -10 -1 -2 -2 -14 -2 -74 -2 -72 0 -72 0 -77 4 -7 7
-14 10 -17 7z m202 -311 c10 -5 14 -10 10 -15 -4 -3 -7 -4 -18 -4 -7 0 -12 0
-16 -1 -12 -4 -22 -2 -23 4 -1 3 -1 6 -2 8 -1 9 31 14 49 8z m-212 -69 c15
-10 15 -10 24 -11 9 -2 13 -4 13 -5 -3 -8 -3 -9 -2 -13 6 -15 10 -26 13 -29 2
-3 3 -5 3 -8 0 -3 1 -5 3 -8 2 -2 5 -5 6 -7 5 -8 9 -13 11 -14 2 -1 2 -1 -1 0
-2 0 -3 -1 -8 -6 -7 -7 -8 -10 -3 -17 3 -6 -2 -10 -18 -11 -4 -1 -10 -2 -13
-4 -9 -2 -13 -1 -24 8 -3 4 -7 6 -7 6 -1 0 -3 9 -4 20 -3 27 -1 29 16 31 20 2
18 13 -6 37 -9 8 -15 21 -15 29 0 10 1 10 12 2z m65 -12 c17 -4 30 -19 24 -28
-3 -4 -14 -11 -17 -10 -4 0 -14 13 -18 22 -1 4 -3 8 -5 9 -3 6 -3 6 5 7 1 1 3
1 3 1 1 0 4 -1 8 -1z m87 -86 c11 -17 10 -25 -4 -25 -3 0 -8 -1 -13 -1 -6 -1
-10 -1 -13 -1 -3 1 -11 1 -17 1 -13 0 -19 1 -15 2 6 3 13 18 9 21 -2 1 4 3 7
2 7 -2 22 -1 32 2 5 2 10 3 10 3 1 0 2 -2 4 -4z"/><path d="M106 545 c-1 -1 -6 -2 -10 -2 -4 -1 -8 -2 -10 -3 -3 -1 -8 -1 -21 -1
-11 0 -16 0 -15 -1 0 -1 2 -1 4 -1 3 0 4 0 3 -1 -1 -4 10 -11 18 -11 6 0 6 0
-2 -1 -6 -1 -4 -1 7 -1 10 0 13 1 9 1 -4 0 -4 1 -2 1 1 0 5 1 8 2 7 3 19 0 14
-3 -2 -1 -2 -1 3 -1 3 0 7 1 8 2 4 2 34 2 38 0 5 -3 10 -11 12 -17 1 -4 3 -9
5 -14 0 -2 1 -7 1 -12 0 -9 0 -9 5 -3 2 4 6 7 7 8 3 1 20 12 21 13 0 1 -3 1
-6 1 -10 0 -15 5 -15 15 0 9 1 9 18 10 7 0 13 1 12 1 -4 1 -42 3 -43 2 -1 0
-6 0 -11 0 -9 0 -10 0 -6 1 5 1 5 2 6 7 0 6 0 6 5 7 1 0 3 1 4 1 0 1 -64 1
-67 0z"/><path d="M14 534 c-2 -3 -2 -4 -2 -13 0 -6 0 -11 -1 -11 -4 -3 4 -10 10 -10 5
0 11 7 11 13 0 4 4 8 8 9 5 1 5 1 2 6 -1 3 -2 5 -2 5 0 1 1 1 3 2 1 1 -2 1
-12 1 -14 0 -14 0 -17 -2z"/><path d="M1125 239 c-3 -2 -4 -7 -7 -23 0 -6 -3 -19 -6 -29 -5 -20 -4 -23 4
-28 3 -2 3 -2 0 -9 -4 -11 -6 -18 -6 -23 0 -3 -1 -5 -1 -6 -6 -5 2 -13 9 -9 1
1 3 1 6 0 9 -2 18 2 25 10 5 6 13 3 15 -6 1 -3 1 1 1 12 -1 19 1 22 10 23 18
2 21 14 10 35 -5 10 -8 18 -10 26 0 1 -1 3 -2 5 0 1 -1 3 -1 6 -1 3 -2 6 -4 8
-2 2 -3 4 -3 5 0 0 -1 1 -1 3 -2 1 -2 1 0 -2 3 -9 3 -15 0 -17 -3 -3 -6 -13
-6 -20 0 -11 -3 -16 -21 -31 -9 -8 -11 -3 -4 16 4 9 4 10 4 23 0 28 -4 38 -12
31z"/><path d="M180 137 c-18 -11 -7 -24 28 -32 23 -5 23 -5 26 -3 13 6 10 13 -6 17
-14 3 -19 5 -30 12 -11 8 -13 9 -18 6z"/></g><g transform="translate(0.000000,576.000000) scale(1.000000,-1.000000)" fill="#000000"><path d="M14 534 c-2 -3 -2 -4 -2 -13 0 -6 0 -11 -1 -11 -4 -3 4 -10 10 -10 5
0 11 7 11 13 0 4 4 8 8 9 5 1 5 1 2 6 -1 3 -2 5 -2 5 0 1 1 1 3 2 1 1 -2 1
-12 1 -14 0 -14 0 -17 -2z"/><path d="M175 529 c-1 0 -9 0 -18 -1 -26 0 -36 -2 -17 -2 20 0 26 -4 30 -18 1
-4 3 -9 5 -14 0 -2 1 -7 1 -12 0 -9 0 -9 5 -3 2 4 6 7 7 8 3 1 20 12 21 13 0
1 -3 1 -6 1 -10 0 -15 5 -15 15 0 9 1 9 18 10 17 1 14 2 -9 3 -22 1 -21 1 -22
0z"/><path d="M958 428 c-1 0 -4 -1 -7 -2 -3 0 -6 0 -6 -1 0 -3 13 -18 16 -18 1 0
3 -2 5 -3 7 -7 8 -7 8 -2 0 6 2 8 8 8 7 0 13 3 16 7 2 5 0 6 -11 7 -8 1 -12 2
-21 4 -3 1 -6 1 -8 0z"/><path d="M353 415 c-3 -2 -3 -2 -2 -12 3 -16 7 -23 17 -25 6 -2 9 11 5 19 -7
12 -10 16 -12 18 -4 2 -4 2 -8 0z"/><path d="M231 403 c-12 -3 -14 -19 -4 -26 8 -6 21 -8 26 -4 2 2 6 4 9 6 6 3
18 14 18 17 0 6 -9 9 -16 5 -4 -1 -12 0 -16 2 -3 1 -13 1 -17 0z"/><path d="M302 368 c-5 -1 -17 -11 -22 -16 -6 -7 7 -13 20 -10 2 1 6 2 9 2 2 0
4 0 5 1 0 1 3 3 5 4 11 7 13 12 8 18 -4 3 -18 4 -25 1z"/><path d="M211 315 c-5 -1 -10 -18 -9 -27 3 -12 24 -22 34 -15 6 4 9 23 6 32
-2 6 -23 12 -31 10z"/><path d="M42 296 c0 -3 -1 -9 -2 -12 -1 -3 -2 -8 -2 -12 0 -3 -1 -7 -1 -9 -3
-6 -3 -125 -1 -131 2 -2 2 -7 2 -14 0 -9 0 -11 3 -20 2 -6 4 -12 4 -13 0 -2 1
-5 2 -6 0 -1 1 -4 1 -5 0 -8 9 -22 17 -26 7 -3 39 -5 46 -2 2 1 11 2 30 2 32
1 30 0 35 10 5 9 5 9 22 10 10 0 15 0 19 -1 3 -1 10 -2 16 -2 6 -1 12 -2 15
-2 2 -1 7 -2 14 -2 6 0 11 -1 13 -1 3 -2 9 -2 28 -2 16 0 25 0 27 -1 1 -1 8
-2 14 -2 13 -1 17 -3 21 -13 7 -22 22 -33 43 -29 6 1 12 5 23 15 9 8 9 8 26 8
10 0 18 1 19 2 5 2 73 1 80 -1 4 -1 6 -1 15 1 9 1 25 1 53 0 4 -1 22 -1 40 -2
24 0 31 -1 33 -2 4 -2 31 -2 37 0 5 2 9 2 43 2 29 0 39 0 40 1 2 1 22 2 84 2
44 1 83 1 87 1 11 1 20 -3 29 -11 8 -6 13 -8 26 -9 5 0 11 -1 14 -2 5 -1 18
-1 25 1 3 0 8 1 12 1 4 0 8 1 10 2 2 0 5 1 7 1 12 0 32 15 41 31 3 5 9 10 15
10 6 1 11 6 10 9 -1 1 -1 4 -2 6 0 3 -2 8 -4 12 -1 3 -2 9 -3 11 -1 8 -3 9 -3
2 0 -7 0 -7 -7 -10 -14 -7 -17 -7 -52 -9 -10 0 -20 -1 -22 -2 -2 0 -7 -1 -10
-1 -7 0 -16 -2 -21 -5 -3 -2 -5 -3 -12 -3 -5 0 -11 0 -13 -1 -2 -1 -4 -1 -6 0
-4 2 -21 1 -31 -1 -5 -1 -13 -2 -24 -2 -49 0 -45 1 -52 -2 -7 -3 -7 -3 -51 -3
-43 -1 -44 -1 -48 -3 -3 -1 -6 -2 -8 -2 -2 0 -5 -1 -7 -1 -5 -2 -19 -2 -22 0
-8 5 -14 7 -20 7 -11 -2 -22 -3 -37 -4 -9 -1 -17 -2 -18 -3 -2 -1 -3 -1 -8 1
-2 0 -7 2 -9 2 -3 1 -5 2 -7 4 -2 3 -2 3 -7 1 -7 -3 -44 -4 -51 -1 -3 1 -4 1
-8 -1 -2 -1 -6 -2 -8 -2 -3 0 -9 -1 -13 -1 -5 -1 -10 -2 -10 -1 -1 0 -34 2
-53 2 -11 1 -12 1 -16 -2 -3 -3 -5 -3 -13 -4 -5 -1 -12 -2 -15 -4 -9 -2 -13
-1 -24 8 -3 4 -7 6 -7 6 -1 0 -3 9 -4 20 -3 27 -1 29 16 31 20 2 18 13 -6 37
-9 9 -15 21 -15 30 0 7 0 7 -4 14 -5 6 -8 13 -13 26 -1 6 -3 9 -6 12 -2 2 -6
7 -9 12 -8 11 -13 15 -18 14 -1 0 -3 1 -5 2 -5 2 -9 2 -13 1 -1 -1 -4 -1 -5
-2 -10 0 -21 -20 -21 -36 0 -7 -1 -9 -2 -12 -3 -4 -3 -12 -1 -25 1 -6 1 -10 0
-16 -1 -10 -1 -16 3 -29 2 -11 3 -13 0 -19 -1 -4 -1 -9 2 -15 5 -13 6 -17 3
-24 -1 -2 -1 -4 0 -6 1 -3 1 -4 -3 -12 -3 -4 -5 -9 -6 -10 0 -3 -7 -3 -22 -1
-7 1 -19 3 -25 3 -7 1 -24 2 -38 4 -14 2 -32 4 -39 4 -14 2 -15 2 -24 7 -12 6
-16 6 -22 3 -5 -3 -9 -3 -32 2 -18 5 -21 8 -27 31 -3 8 -5 16 -6 18 -1 2 -2 4
-1 5 0 1 -1 6 -2 10 -2 8 -2 8 -1 20 3 13 2 17 -2 30 -2 4 -3 9 -3 11 2 16
-13 68 -23 77 -7 7 -18 10 -26 7 -7 -3 -11 -1 -12 5 -1 6 -1 6 -1 0z"/><path d="M1164 237 c3 -9 3 -15 0 -17 -3 -3 -6 -13 -6 -20 0 -11 -3 -16 -21
-31 -3 -2 -6 -4 -7 -4 0 0 -3 -1 -5 -3 -1 -2 -4 -3 -4 -4 -3 -1 -11 -24 -11
-31 0 -3 -1 -5 -1 -6 -6 -5 2 -13 9 -9 1 1 3 1 6 0 9 -2 18 2 25 10 5 6 13 3
15 -6 1 -3 1 1 1 12 -1 19 1 22 10 23 18 2 21 14 10 35 -5 10 -8 18 -10 26 0
1 -1 3 -2 5 0 1 -1 3 -1 6 -1 3 -2 6 -4 8 -2 2 -3 4 -3 5 0 0 -1 1 -1 3 -2 1
-2 1 0 -2z"/><path d="M916 196 c-3 -1 -6 -3 -8 -3 -4 -2 -5 -2 -7 0 -8 5 -52 3 -56 -2 -2
-2 -2 -2 -8 0 -11 2 -26 -1 -34 -8 -4 -4 -10 -5 -36 -6 -38 -1 -45 -3 -57 -10
-13 -9 -12 -9 -18 -4 -29 25 -47 -4 -20 -33 3 -3 3 -3 -2 -13 -6 -12 -6 -11 6
-26 8 -10 3 -9 70 -9 38 0 53 -1 62 -2 10 -1 12 -1 21 0 7 2 18 3 32 3 11 0
23 1 25 2 8 2 24 2 32 1 5 -1 9 -1 12 0 2 1 11 1 18 2 7 1 17 2 21 2 4 1 15 2
23 3 31 2 37 4 45 12 16 14 16 24 3 52 -12 24 -26 31 -63 29 -21 0 -34 1 -38
4 -2 2 -16 7 -18 7 -1 0 -3 -1 -5 -1z"/><path d="M498 172 c-4 -1 -7 -9 -5 -15 5 -13 10 -26 13 -29 2 -3 3 -5 3 -8 0
-3 1 -5 3 -8 2 -2 5 -5 6 -7 6 -9 9 -13 13 -14 4 -3 25 -5 28 -4 1 1 3 1 5 0
7 -2 21 -1 31 2 12 3 11 2 9 8 -1 6 -2 7 -19 23 -8 7 -20 17 -27 21 -2 1 -5 4
-6 5 -1 4 -2 4 -5 0 -2 -4 -14 -11 -17 -10 -4 0 -14 13 -18 22 -1 4 -3 8 -5
10 -1 2 -2 4 -2 4 -1 0 -5 1 -7 0z"/></g><g transform="translate(0.000000,576.000000) scale(1.000000,-1.000000)" fill="#1D2923"><path d="M173 529 c-4 -1 -4 -3 0 -7 4 -6 8 -17 10 -26 3 -11 3 -11 14 -4 13
8 14 9 6 9 -10 0 -15 5 -15 15 0 9 1 9 18 10 17 1 14 2 -9 3 -21 1 -21 1 -24
0z"/><path d="M353 415 c-3 -2 -3 -2 -2 -12 3 -16 7 -23 17 -25 6 -2 9 11 5 19 -7
12 -10 16 -12 18 -4 2 -4 2 -8 0z"/><path d="M302 368 c-5 -1 -17 -11 -22 -16 -6 -7 7 -13 20 -10 2 1 6 2 9 2 2 0
4 0 5 1 0 1 3 3 5 4 11 7 13 12 8 18 -4 3 -18 4 -25 1z"/><path d="M211 315 c-5 -1 -10 -18 -9 -27 3 -12 24 -22 34 -15 6 4 9 23 6 32
-2 6 -23 12 -31 10z"/><path d="M55 290 c-2 -1 -4 -1 -7 0 -5 1 -5 1 -7 -4 -5 -10 0 -15 7 -6 4 5 9
4 14 -4 4 -7 4 -13 -1 -23 -5 -12 -2 -18 10 -20 7 -2 11 -4 15 -11 8 -13 17
-19 19 -13 1 7 -11 54 -18 67 -6 12 -21 19 -32 14z"/><path d="M395 263 c-3 -2 4 -18 14 -31 4 -6 9 -13 11 -16 2 -4 6 -11 10 -15 4
-5 9 -12 11 -15 5 -8 5 -8 5 0 0 6 0 6 -4 12 -5 7 -8 14 -13 27 -1 6 -3 9 -6
12 -2 2 -6 7 -9 12 -8 11 -15 16 -19 14z"/><path d="M1164 219 c-3 -2 -6 -12 -6 -19 0 -9 -3 -15 -11 -22 -16 -14 -15 -13
-12 -15 1 -1 4 -4 7 -6 7 -6 10 -12 10 -23 0 -9 1 -10 9 -10 1 0 3 5 3 13 1 9
4 12 10 14 3 0 6 2 5 4 -4 5 -6 31 -3 37 2 4 2 4 -1 12 -5 15 -7 18 -11 15z"/><path d="M851 194 c-7 -2 -9 -4 -7 -8 3 -6 26 -8 48 -4 6 1 11 6 11 9 0 4 -42
6 -52 3z"/><path d="M498 172 c-5 -1 -7 -10 -4 -18 2 -4 4 -10 6 -15 5 -14 7 -15 17 -10
11 7 11 7 5 13 -6 7 -7 9 -10 16 -1 4 -3 8 -5 10 -1 2 -2 4 -2 4 -1 0 -5 1 -7
0z"/><path d="M664 171 c-9 -6 -5 -26 8 -40 4 -5 6 -3 17 13 8 12 9 14 6 17 -12 10
-24 14 -31 10z"/><path d="M454 154 c-5 -16 -3 -39 3 -38 1 1 5 2 10 2 18 2 19 8 3 27 -12 15
-14 16 -16 9z"/><path d="M73 152 c-2 -1 -5 -6 -5 -8 0 -1 -1 -5 -3 -10 -2 -7 -2 -8 -2 -16 1
-5 1 -11 1 -12 0 -4 -7 -15 -12 -21 -5 -4 -5 -9 -2 -13 9 -15 28 2 31 27 1 6
2 13 3 17 4 12 2 29 -4 34 -3 3 -4 3 -7 2z"/><path d="M392 121 c-2 -1 -4 -3 -5 -4 -1 -5 0 -16 1 -19 1 -2 1 -4 0 -10 -1
-7 -1 -7 4 -10 12 -8 14 -7 24 18 3 6 3 6 -4 16 -9 12 -13 14 -20 9z"/><path d="M1156 93 c-12 -5 -28 -8 -52 -8 -5 0 -13 -1 -17 -2 -5 0 -11 -1 -13
-1 -10 0 -25 -6 -25 -9 0 -4 8 -19 12 -21 9 -5 50 0 61 8 5 3 10 4 14 1 4 -2
17 -1 22 3 9 6 14 20 9 29 -1 2 -2 4 -2 4 0 0 -4 -2 -9 -4z"/><path d="M997 72 c-13 -2 -38 -3 -46 -2 -12 2 -28 1 -36 -3 -7 -2 -7 -2 -51
-2 -38 -1 -44 -1 -47 -2 -14 -6 16 -15 42 -13 10 1 16 0 21 -4 3 -3 6 -4 34
-4 30 -1 40 0 46 7 14 13 24 17 41 13 9 -1 9 -1 14 2 2 2 5 3 6 3 3 0 3 4 1 6
-2 1 -15 1 -25 -1z"/><path d="M672 67 c-6 -3 -44 -3 -50 -1 -3 1 -4 1 -8 -1 -2 -1 -6 -2 -8 -2 -3
0 -9 -1 -13 -1 -5 -1 -10 -2 -10 -1 -1 0 -34 2 -53 2 -11 1 -12 1 -16 -2 -3
-3 -5 -3 -12 -4 -9 -1 -21 -4 -22 -6 -3 -4 3 -9 11 -9 3 0 8 -1 12 -2 6 -1 30
-2 32 -1 0 1 7 1 14 0 14 -1 21 0 25 3 2 2 4 3 6 1 2 -2 5 -3 32 -5 51 -3 62
-2 61 3 -1 3 1 11 5 16 5 6 5 6 2 9 -3 3 -2 3 -8 1z"/><path d="M756 65 c-1 0 -10 -1 -35 -3 -16 -1 -20 -3 -19 -6 1 -2 1 -3 11 -3 8
-1 12 -1 16 -3 11 -5 19 -7 25 -4 2 1 6 3 9 3 9 1 20 7 17 10 -6 4 -22 9 -24
6z"/></g>
  </g>
  <!-- オーナー（グッジョブ！） -->
  <g class="hop">
    <!-- 上げた腕＋サムズアップ（振り上げアニメーション） -->
    <g class="cheer">
      <path d="M654 242 L676 222 L690 202" fill="none" stroke="#C9A227" stroke-width="17" stroke-linecap="round"/>
      <path d="M654 242 L676 222 L690 202" fill="none" stroke="#1E1E24" stroke-width="12" stroke-linecap="round"/>
      <g transform="rotate(-14 692 192)">
        <rect x="680" y="182" width="25" height="24" rx="8" fill="#E8C39E"/>
        <rect x="678" y="160" width="11" height="26" rx="5.5" fill="#E8C39E"/>
      </g>
    </g>
    <!-- 頭 -->
    <circle cx="640" cy="196" r="21" fill="#E8C39E"/>
    <path d="M619 192 a21 21 0 0 1 42 0 l-6 -4 q-4 -8 -12 -9 q-14 -1 -18 8 z" fill="#2A2320"/>
    <!-- にっこり -->
    <path d="M632 202 q8 7 16 0" fill="none" stroke="#7A5A3A" stroke-width="2.5" stroke-linecap="round"/>
    <circle cx="632" cy="193" r="2.2" fill="#3A2E24"/><circle cx="649" cy="193" r="2.2" fill="#3A2E24"/>
    <!-- 体（ジャケット） -->
    <path d="M622 222 h36 q10 0 12 12 l6 60 q0 10 -10 10 h-52 q-10 0 -10 -10 l6 -60 q2 -12 12 -12z" fill="#1E1E24" stroke="#C9A227" stroke-width="2"/>
    <line x1="640" y1="226" x2="640" y2="302" stroke="#C9A227" stroke-width="2"/>
    <!-- 下げた腕 -->
    <path d="M616 232 L606 268 L610 296" fill="none" stroke="#C9A227" stroke-width="17" stroke-linecap="round"/>
    <path d="M616 232 L606 268 L610 296" fill="none" stroke="#1E1E24" stroke-width="12" stroke-linecap="round"/>
    <circle cx="611" cy="302" r="8" fill="#E8C39E"/>
    <!-- 脚 -->
    <path d="M628 304 L626 398 M652 304 L654 398" stroke="#26262E" stroke-width="15" stroke-linecap="round"/>
    <path d="M618 402 h18 v-8 q-14 -4 -18 2 z M646 394 q4 -6 18 -2 v8 h-18 z" fill="#0B0B0D" stroke="#C9A227" stroke-width="1.5"/>
  </g>

  <!-- サムズアップ強調スパーク -->
  <g fill="#E8D9A0">
    <path class="spark" d="M718 168l5 13 13 5-13 5-5 13-5-13-13-5 13-5z"/>
    <path class="spark d2" d="M186 150l6 16 16 6-16 6-6 16-6-16-16-6 16-6z"/>
    <path class="spark d3" d="M560 130l5 13 13 5-13 5-5 13-5-13-13-5 13-5z"/>
  </g>

  <text x="400" y="446" text-anchor="middle" fill="#E8D9A0" font-size="28" letter-spacing="10">PURCHASE &amp; TRADE-IN</text>
  <text x="400" y="472" text-anchor="middle" fill="#8A8A8A" font-size="13" letter-spacing="6">FREE APPRAISAL</text>
</svg>
