<svg xmlns="http://www.w3.org/2000/svg" viewBox="0 0 800 500" font-family="Georgia, 'Times New Roman', serif">
  <style>
    .wheel{animation:spin .8s linear infinite;transform-box:fill-box;transform-origin:center}
    @keyframes spin{to{transform:rotate(360deg)}}
    .dashes{animation:dash 1.1s linear infinite}
    @keyframes dash{to{transform:translateX(-160px)}}
    .streak{animation:streak 1.6s linear infinite;opacity:0}
    .streak.s2{animation-delay:.5s}
    .streak.s3{animation-delay:1s}
    @keyframes streak{0%{transform:translateX(260px);opacity:0}15%{opacity:.85}85%{opacity:.85}100%{transform:translateX(-560px);opacity:0}}
    .beacon{animation:blink .7s steps(2,jump-none) infinite}
    @keyframes blink{50%{opacity:.15}}
    .glow{animation:glowp .7s steps(2,jump-none) infinite}
    @keyframes glowp{50%{opacity:0}}
    .bob{animation:bob 1.4s ease-in-out infinite}
    @keyframes bob{50%{transform:translateY(2.5px)}}
    @media (prefers-reduced-motion:reduce){*{animation:none!important}}
  </style>

  <rect width="800" height="500" fill="#0B0B0D"/>
  <radialGradient id="bg" cx="50%" cy="42%" r="75%">
    <stop offset="0" stop-color="#1B1710"/><stop offset="1" stop-color="#0B0B0D"/>
  </radialGradient>
  <rect width="800" height="500" fill="url(#bg)"/>
  <rect x="18" y="18" width="764" height="464" fill="none" stroke="#C9A227" stroke-opacity=".35" stroke-width="2"/>

  <!-- 流れる光跡 -->
  <g stroke-linecap="round">
    <line class="streak" x1="120" y1="120" x2="330" y2="120" stroke="#21D4FD" stroke-width="3" opacity=".8"/>
    <line class="streak s2" x1="380" y1="165" x2="560" y2="165" stroke="#C24BF5" stroke-width="2.5"/>
    <line class="streak s3" x1="200" y1="90" x2="360" y2="90" stroke="#E8D9A0" stroke-width="2"/>
  </g>

  <!-- 路面 -->
  <rect x="0" y="392" width="800" height="108" fill="#111114"/>
  <line x1="0" y1="392" x2="800" y2="392" stroke="#2A2A2A" stroke-width="2"/>
  <g class="dashes">
    <g fill="#C9A227" opacity=".55">
      <rect x="-40" y="438" width="70" height="7" rx="3.5"/><rect x="120" y="438" width="70" height="7" rx="3.5"/>
      <rect x="280" y="438" width="70" height="7" rx="3.5"/><rect x="440" y="438" width="70" height="7" rx="3.5"/>
      <rect x="600" y="438" width="70" height="7" rx="3.5"/><rect x="760" y="438" width="70" height="7" rx="3.5"/>
      <rect x="920" y="438" width="70" height="7" rx="3.5"/>
    </g>
  </g>

  <!-- レッカー車（フラットベッド） -->
  <g class="bob">
    <!-- ビーコンの光 -->
    <ellipse class="glow" cx="612" cy="212" rx="60" ry="30" fill="#F39800" opacity=".22"/>
    <rect class="beacon" x="598" y="206" width="28" height="14" rx="5" fill="#F39800"/>
    <!-- キャブ -->
    <path d="M560 226h100c8 0 14 6 14 14v96H560z" fill="#1E1E24" stroke="#C9A227" stroke-width="3"/>
    <path d="M576 240h56v40h-56z" fill="#0E1B22" stroke="#C9A227" stroke-width="2.5"/>
    <rect x="660" y="300" width="18" height="36" fill="#C9A227"/>
    <!-- 荷台 -->
    <path d="M120 336l40-22h400v22z" fill="#26262E" stroke="#C9A227" stroke-width="3"/>
    <rect x="120" y="336" width="560" height="14" fill="#15151A" stroke="#C9A227" stroke-width="2"/>
    <!-- 積載されたスポーツカー（718 Cayman GT4 RS／カーマインレッド・右向き＝前向き積載） -->
    <g transform="translate(638 0) scale(-1 1)">
      <g transform="translate(148.19 226.93) scale(0.3564)">
<defs>
<linearGradient id="bodyG" x1="0" y1="95" x2="0" y2="292" gradientUnits="userSpaceOnUse">
  <stop offset="0" stop-color="#E25A74"/>
  <stop offset=".16" stop-color="#C93B57"/>
  <stop offset=".45" stop-color="#AB1631"/>
  <stop offset=".78" stop-color="#7C1024"/>
  <stop offset="1" stop-color="#4E0817"/>
</linearGradient>
<linearGradient id="glassG" x1="0" y1="98" x2="0" y2="166" gradientUnits="userSpaceOnUse">
  <stop offset="0" stop-color="#5A6E84"/>
  <stop offset=".45" stop-color="#22303E"/>
  <stop offset="1" stop-color="#0C1319"/>
</linearGradient>
<linearGradient id="wingG" x1="0" y1="106" x2="0" y2="128" gradientUnits="userSpaceOnUse">
  <stop offset="0" stop-color="#D64C66"/>
  <stop offset=".5" stop-color="#AB1631"/>
  <stop offset="1" stop-color="#6E0E20"/>
</linearGradient>
<radialGradient id="tireG">
  <stop offset=".55" stop-color="#131418"/>
  <stop offset=".8" stop-color="#212329"/>
  <stop offset=".93" stop-color="#0B0C0E"/>
  <stop offset="1" stop-color="#050506"/>
</radialGradient>
<linearGradient id="rimG" x1="0" y1="0" x2="1" y2="1">
  <stop offset="0" stop-color="#EED98B"/>
  <stop offset=".5" stop-color="#C9A227"/>
  <stop offset="1" stop-color="#8A6E16"/>
</linearGradient>
<filter id="softG" x="-60%" y="-60%" width="220%" height="220%"><feGaussianBlur stdDeviation="6"/></filter>
<clipPath id="bodyClip"><path d="M75 246 C66 243 62 235 62 226 C62 219 64 213 68 209 C74 202 84 196 96 192 C114 184 138 177 164 172 C192 165 224 159 252 157 C282 155 312 156 338 159 C362 161 386 163 404 166 C436 152 470 133 504 120 C522 112 542 106 558 103 C586 97 616 94 644 96 C670 97 694 101 716 108 C728 115 740 123 750 132 C758 139 766 146 774 150 C786 155 798 157 808 160 C816 162 822 166 825 172 C828 182 829 198 827 212 C825 224 821 233 814 238 L788 243 C778 247 766 249 754 249 L726 250 A 70 70 0 0 0 586 250 L560 252 C520 253 480 253 440 252 L322 252 A 70 70 0 0 0 182 252 L118 250 C100 249 84 248 75 246 Z"/></clipPath>
<clipPath id="glassClip"><path d="M416 163 C446 147 480 131 510 120 C530 113 548 109 564 108 C590 102 620 101 646 102 C668 103 688 107 706 114 C718 121 730 128 740 136 L742 139 C716 142 690 144 660 146 C600 151 520 158 460 162 C444 163 428 164 416 163 Z"/></clipPath>
</defs>
<g class="body-bob">

<!-- スワンネックウイング -->
<path d="M778 156 C774 140 777 126 786 117 L796 117 C788 127 785 141 789 154 Z" fill="#1A1C20"/>
<path d="M806 152 C803 138 806 126 814 117 L823 117 C816 127 813 139 816 150 Z" fill="#1A1C20"/>
<path d="M745 116 L826 108 L830 120 L749 128 Z" fill="url(#wingG)" stroke="#5E0A1C" stroke-width="2"/>
<path d="M746 116 L826 108 L827 112 L747 120 Z" fill="#E88A9C" opacity=".55"/>
<!-- ボディ（写真トレース輪郭） -->
<path d="M75 246 C66 243 62 235 62 226 C62 219 64 213 68 209 C74 202 84 196 96 192 C114 184 138 177 164 172 C192 165 224 159 252 157 C282 155 312 156 338 159 C362 161 386 163 404 166 C436 152 470 133 504 120 C522 112 542 106 558 103 C586 97 616 94 644 96 C670 97 694 101 716 108 C728 115 740 123 750 132 C758 139 766 146 774 150 C786 155 798 157 808 160 C816 162 822 166 825 172 C828 182 829 198 827 212 C825 224 821 233 814 238 L788 243 C778 247 766 249 754 249 L726 250 A 70 70 0 0 0 586 250 L560 252 C520 253 480 253 440 252 L322 252 A 70 70 0 0 0 182 252 L118 250 C100 249 84 248 75 246 Z" fill="url(#bodyG)" stroke="#4E0817" stroke-width="2.5"/>
<g clip-path="url(#bodyClip)">
  <rect x="50" y="222" width="850" height="40" fill="#000" opacity=".32"/>
  <circle cx="252" cy="248" r="74" fill="none" stroke="#000" stroke-width="14" opacity=".4"/>
  <circle cx="656" cy="248" r="74" fill="none" stroke="#000" stroke-width="14" opacity=".4"/>
  <path d="M96 194 C150 178 220 165 300 160 L300 167 C224 170 154 182 100 198 Z" fill="#FFF" opacity=".12"/>
  <path d="M420 168 C510 162 620 154 730 147 L730 152 C620 160 510 168 420 173 Z" fill="#FFF" opacity=".10"/>
  <path d="M556 152 C596 142 640 136 686 138 C712 140 734 146 750 154 L748 158 C730 150 710 145 686 143 C642 141 598 147 560 156 Z" fill="#FFF" opacity=".10"/>
  <rect x="50" y="150" width="34" height="110" fill="#000" opacity=".16"/>
</g>
<!-- パネルシーム（フランク・ドア） -->
<g fill="none" stroke="#6E0E20" stroke-width="1.8" opacity=".9">
  <path d="M176 180 C232 163 292 157 348 160"/>
  <path d="M432 168 C430 196 430 224 433 250"/>
  <path d="M570 152 C570 184 572 218 576 248"/>
</g>
<!-- DLOガラス -->
<path d="M416 163 C446 147 480 131 510 120 C530 113 548 109 564 108 C590 102 620 101 646 102 C668 103 688 107 706 114 C718 121 730 128 740 136 L742 139 C716 142 690 144 660 146 C600 151 520 158 460 162 C444 163 428 164 416 163 Z" fill="url(#glassG)" stroke="#98A0AA" stroke-width="2"/>
<g clip-path="url(#glassClip)">
  <path d="M470 130 L502 122 L448 164 L420 164 Z" fill="#FFF" opacity=".14"/>
  <path d="M560 108 L580 107 L520 158 L498 160 Z" fill="#FFF" opacity=".10"/>
</g>
<line x1="660" y1="107" x2="668" y2="145" stroke="#38424C" stroke-width="3"/>
<!-- リアクォーターインテーク -->
<path d="M582 196 L640 188 L650 244 L596 249 Z" fill="#0C0D10"/>
<path d="M590 202 L636 196 M592 216 L640 210 M594 230 L644 224" stroke="#1E2126" stroke-width="3" fill="none"/>
<path d="M582 196 L640 188 L641 193 L583 201 Z" fill="#FFF" opacity=".12"/>
<!-- ドアハンドル・ミラー -->
<rect x="494" y="168" width="26" height="7" rx="3.5" fill="#C43350" stroke="#7C1024" stroke-width="1.2"/>
<path d="M424 162 L415 153" stroke="#1A1C20" stroke-width="3"/>
<rect x="398" y="145" width="20" height="12" rx="4" fill="#B91F3B" stroke="#7C1024" stroke-width="1.2" transform="rotate(-12 408 151)"/>
<rect x="399" y="148" width="9" height="7" rx="2" fill="#141A20" transform="rotate(-12 403 151)"/>
<!-- フロント：ヘッドライト・インテーク・スプリッター -->
<path d="M120 208 C118 200 122 192 130 188 C144 182 158 179 168 181 C174 183 176 188 173 193 C166 202 148 210 132 212 C127 212 122 211 120 208 Z" fill="#E8D9A0" stroke="#B9A75E" stroke-width="2"/>
<circle cx="138" cy="197" r="5.5" fill="#FFF7DE" stroke="#8A7A3C" stroke-width="1.5"/>
<circle cx="157" cy="190" r="4.5" fill="#FFF7DE" stroke="#8A7A3C" stroke-width="1.2"/>
<path d="M76 219 L128 213 L132 238 L80 242 Z" fill="#0C0D10"/>
<path d="M82 222 L126 217 M83 230 L128 225" stroke="#1E2126" stroke-width="2.5" fill="none"/>
<path d="M64 240 L160 240 L166 248 L72 250 Z" fill="#050607"/>
<!-- リア：テールランプ・ディフューザー -->
<path d="M796 168 C806 166 816 166 823 169 L824 184 C817 181 807 180 797 182 Z" fill="#F35B45" opacity=".5" filter="url(#softG)"/>
<path d="M796 168 C806 166 816 166 823 169 L824 184 C817 181 807 180 797 182 Z" fill="#F35B45" stroke="#A03428" stroke-width="1"/>
<path d="M752 240 L810 236 C814 244 811 250 803 252 L758 254 C752 250 750 245 752 240 Z" fill="#0C0D10"/>
<path d="M766 242 L766 252 M780 241 L780 251 M794 240 L794 250" stroke="#1E2126" stroke-width="2.5" fill="none"/>
<!-- ロッカー -->
<path d="M330 248 L566 250 L566 255 L330 254 Z" fill="#0C0D10"/>
</g>
<g>
<circle cx="252" cy="240" r="52.0" fill="url(#tireG)"/>
<circle cx="252" cy="240" r="52.0" fill="none" stroke="#000" stroke-width="1.3" opacity=".6"/>
<circle cx="252" cy="240" r="34.4" fill="#08090B"/>
<circle cx="252" cy="240" r="21.1" fill="#575B60"/>
<circle cx="252" cy="240" r="21.1" fill="none" stroke="#3E4247" stroke-width="1.8"/>
<circle cx="252" cy="240" r="11.6" fill="#34373B"/>
<rect x="228.2" y="232.1" width="6.2" height="15.9" rx="2.6" fill="#C9A227" stroke="#7E6414" stroke-width="1.1"/>
<g class="wheel">
<circle cx="252" cy="240" r="31.7" fill="none" stroke="url(#rimG)" stroke-width="4.0"/>
<line x1="259.4" y1="241.3" x2="282.3" y2="237.9" stroke="url(#rimG)" stroke-width="2.8" stroke-linecap="round"/>
<line x1="257.2" y1="245.4" x2="277.8" y2="256.1" stroke="url(#rimG)" stroke-width="2.8" stroke-linecap="round"/>
<line x1="253.0" y1="247.4" x2="263.4" y2="268.2" stroke="url(#rimG)" stroke-width="2.8" stroke-linecap="round"/>
<line x1="248.5" y1="246.6" x2="244.6" y2="269.5" stroke="url(#rimG)" stroke-width="2.8" stroke-linecap="round"/>
<line x1="245.3" y1="243.3" x2="228.7" y2="259.5" stroke="url(#rimG)" stroke-width="2.8" stroke-linecap="round"/>
<line x1="244.6" y1="238.7" x2="221.7" y2="242.1" stroke="url(#rimG)" stroke-width="2.8" stroke-linecap="round"/>
<line x1="246.8" y1="234.6" x2="226.2" y2="223.9" stroke="url(#rimG)" stroke-width="2.8" stroke-linecap="round"/>
<line x1="251.0" y1="232.6" x2="240.6" y2="211.8" stroke="url(#rimG)" stroke-width="2.8" stroke-linecap="round"/>
<line x1="255.5" y1="233.4" x2="259.4" y2="210.5" stroke="url(#rimG)" stroke-width="2.8" stroke-linecap="round"/>
<line x1="258.7" y1="236.7" x2="275.3" y2="220.5" stroke="url(#rimG)" stroke-width="2.8" stroke-linecap="round"/>
<circle cx="252" cy="240" r="7.5" fill="#C9A227" stroke="#7E6414" stroke-width="1.3"/>
<circle cx="252" cy="240" r="3.1" fill="#3A3020"/>
</g></g>
<g>
<circle cx="656" cy="240" r="52.0" fill="url(#tireG)"/>
<circle cx="656" cy="240" r="52.0" fill="none" stroke="#000" stroke-width="1.3" opacity=".6"/>
<circle cx="656" cy="240" r="34.4" fill="#08090B"/>
<circle cx="656" cy="240" r="21.1" fill="#575B60"/>
<circle cx="656" cy="240" r="21.1" fill="none" stroke="#3E4247" stroke-width="1.8"/>
<circle cx="656" cy="240" r="11.6" fill="#34373B"/>
<rect x="632.2" y="232.1" width="6.2" height="15.9" rx="2.6" fill="#C9A227" stroke="#7E6414" stroke-width="1.1"/>
<g class="wheel">
<circle cx="656" cy="240" r="31.7" fill="none" stroke="url(#rimG)" stroke-width="4.0"/>
<line x1="663.4" y1="241.3" x2="686.3" y2="237.9" stroke="url(#rimG)" stroke-width="2.8" stroke-linecap="round"/>
<line x1="661.2" y1="245.4" x2="681.8" y2="256.1" stroke="url(#rimG)" stroke-width="2.8" stroke-linecap="round"/>
<line x1="657.0" y1="247.4" x2="667.4" y2="268.2" stroke="url(#rimG)" stroke-width="2.8" stroke-linecap="round"/>
<line x1="652.5" y1="246.6" x2="648.6" y2="269.5" stroke="url(#rimG)" stroke-width="2.8" stroke-linecap="round"/>
<line x1="649.3" y1="243.3" x2="632.7" y2="259.5" stroke="url(#rimG)" stroke-width="2.8" stroke-linecap="round"/>
<line x1="648.6" y1="238.7" x2="625.7" y2="242.1" stroke="url(#rimG)" stroke-width="2.8" stroke-linecap="round"/>
<line x1="650.8" y1="234.6" x2="630.2" y2="223.9" stroke="url(#rimG)" stroke-width="2.8" stroke-linecap="round"/>
<line x1="655.0" y1="232.6" x2="644.6" y2="211.8" stroke="url(#rimG)" stroke-width="2.8" stroke-linecap="round"/>
<line x1="659.5" y1="233.4" x2="663.4" y2="210.5" stroke="url(#rimG)" stroke-width="2.8" stroke-linecap="round"/>
<line x1="662.7" y1="236.7" x2="679.3" y2="220.5" stroke="url(#rimG)" stroke-width="2.8" stroke-linecap="round"/>
<circle cx="656" cy="240" r="7.5" fill="#C9A227" stroke="#7E6414" stroke-width="1.3"/>
<circle cx="656" cy="240" r="3.1" fill="#3A3020"/>
</g></g>
      </g>
    </g>
    <!-- ウインチワイヤー -->
    <path d="M452 306l88 8" stroke="#C9A227" stroke-width="2" stroke-dasharray="6 5"/>
  </g>

  <!-- ホイール（回転） -->
  <g>
    <circle cx="560" cy="392" r="34" fill="#0B0B0D" stroke="#3A3A3A" stroke-width="10"/>
    <g class="wheel" stroke="#C9A227" stroke-width="4" stroke-linecap="round">
      <circle cx="560" cy="392" r="22" fill="#15151A"/>
      <line x1="560" y1="374" x2="560" y2="410"/><line x1="542" y1="392" x2="578" y2="392"/>
      <line x1="547" y1="379" x2="573" y2="405"/><line x1="573" y1="379" x2="547" y2="405"/>
    </g>
    <circle cx="560" cy="392" r="5" fill="#E8D9A0"/>
  </g>
  <g>
    <circle cx="210" cy="392" r="34" fill="#0B0B0D" stroke="#3A3A3A" stroke-width="10"/>
    <g class="wheel" stroke="#C9A227" stroke-width="4" stroke-linecap="round">
      <circle cx="210" cy="392" r="22" fill="#15151A"/>
      <line x1="210" y1="374" x2="210" y2="410"/><line x1="192" y1="392" x2="228" y2="392"/>
      <line x1="197" y1="379" x2="223" y2="405"/><line x1="223" y1="379" x2="197" y2="405"/>
    </g>
    <circle cx="210" cy="392" r="5" fill="#E8D9A0"/>
  </g>

  <text x="400" y="78" text-anchor="middle" fill="#E8D9A0" font-size="30" letter-spacing="10">24H TOWING</text>
  <text x="400" y="106" text-anchor="middle" fill="#8A8A8A" font-size="13" letter-spacing="6">TRIDENT COMPANY</text>
</svg>
