<svg xmlns="http://www.w3.org/2000/svg" viewBox="0 0 800 500" font-family="Georgia, 'Times New Roman', serif">
  <style>
    .wheel{animation:spin .8s linear infinite;transform-box:fill-box;transform-origin:center}
    @keyframes spin{to{transform:rotate(360deg)}}
    .dashes{animation:dash 1.1s linear infinite}
    @keyframes dash{to{transform:translateX(-160px)}}
    .streak{animation:streak 1.6s linear infinite;opacity:0}
    .streak.s2{animation-delay:.5s}
    .streak.s3{animation-delay:1s}
    @keyframes streak{0%{transform:translateX(260px);opacity:0}15%{opacity:.85}85%{opacity:.85}100%{transform:translateX(-560px);opacity:0}}
    .beacon{animation:blink .7s steps(2,jump-none) infinite}
    @keyframes blink{50%{opacity:.15}}
    .glow{animation:glowp .7s steps(2,jump-none) infinite}
    @keyframes glowp{50%{opacity:0}}
    .bob{animation:bob 1.4s ease-in-out infinite}
    @keyframes bob{50%{transform:translateY(2.5px)}}
    @media (prefers-reduced-motion:reduce){*{animation:none!important}}
  </style>

  <rect width="800" height="500" fill="#0B0B0D"/>
  <radialGradient id="bg" cx="50%" cy="42%" r="75%">
    <stop offset="0" stop-color="#1B1710"/><stop offset="1" stop-color="#0B0B0D"/>
  </radialGradient>
  <rect width="800" height="500" fill="url(#bg)"/>
  <rect x="18" y="18" width="764" height="464" fill="none" stroke="#C9A227" stroke-opacity=".35" stroke-width="2"/>

  <!-- 流れる光跡 -->
  <g stroke-linecap="round">
    <line class="streak" x1="120" y1="120" x2="330" y2="120" stroke="#21D4FD" stroke-width="3" opacity=".8"/>
    <line class="streak s2" x1="380" y1="165" x2="560" y2="165" stroke="#C24BF5" stroke-width="2.5"/>
    <line class="streak s3" x1="200" y1="90" x2="360" y2="90" stroke="#E8D9A0" stroke-width="2"/>
  </g>

  <!-- 路面 -->
  <rect x="0" y="392" width="800" height="108" fill="#111114"/>
  <line x1="0" y1="392" x2="800" y2="392" stroke="#2A2A2A" stroke-width="2"/>
  <g class="dashes">
    <g fill="#C9A227" opacity=".55">
      <rect x="-40" y="438" width="70" height="7" rx="3.5"/><rect x="120" y="438" width="70" height="7" rx="3.5"/>
      <rect x="280" y="438" width="70" height="7" rx="3.5"/><rect x="440" y="438" width="70" height="7" rx="3.5"/>
      <rect x="600" y="438" width="70" height="7" rx="3.5"/><rect x="760" y="438" width="70" height="7" rx="3.5"/>
      <rect x="920" y="438" width="70" height="7" rx="3.5"/>
    </g>
  </g>

  <!-- レッカー車（フラットベッド） -->
  <g class="bob">
    <!-- ビーコンの光 -->
    <ellipse class="glow" cx="612" cy="212" rx="60" ry="30" fill="#F39800" opacity=".22"/>
    <rect class="beacon" x="598" y="206" width="28" height="14" rx="5" fill="#F39800"/>
    <!-- キャブ -->
    <path d="M560 226h100c8 0 14 6 14 14v96H560z" fill="#1E1E24" stroke="#C9A227" stroke-width="3"/>
    <path d="M576 240h56v40h-56z" fill="#0E1B22" stroke="#C9A227" stroke-width="2.5"/>
    <rect x="660" y="300" width="18" height="36" fill="#C9A227"/>
    <!-- 荷台 -->
    <path d="M120 336l40-22h400v22z" fill="#26262E" stroke="#C9A227" stroke-width="3"/>
    <rect x="120" y="336" width="560" height="14" fill="#15151A" stroke="#C9A227" stroke-width="2"/>
    <!-- 積載されたスポーツカー（718 Cayman GT4 RS／カーマインレッド・右向き＝前向き積載） -->
    <g transform="translate(638 0) scale(-1 1)">
      <!-- スワンネックウイング -->
      <path d="M369 256 L433 250 L435 259 L371 264 Z" fill="#141418" stroke="#3A3A3A" stroke-width="2"/>
      <rect x="430" y="247" width="7" height="14" rx="2" fill="#141418" stroke="#3A3A3A" stroke-width="1.5"/>
      <path d="M393 260 C390 266 389 273 391 280 M415 258 C412 264 411 270 413 276" fill="none" stroke="#26262A" stroke-width="4" stroke-linecap="round"/>
      <!-- ボディ（実車比率：ローノーズ＋ファストバック＋ダックテール） -->
      <path d="M178 317
               C176 316 175 313 176 311
               L177 304
               C178 300 180 296 183 294
               C187 290 193 288 200 286
               C209 284 220 283 232 283
               C241 283 250 285 257 287
               L259 288
               C267 278 276 269 286 263
               C292 260 298 258 304 258
               C310 259 315 261 319 264
               C328 269 337 274 345 278
               C353 281 361 284 368 285
               C379 287 390 287 401 285
               C410 284 419 282 425 281
               C430 280 433 281 435 284
               C436 290 437 296 436 301
               C435 308 433 314 429 316
               L426 318
               L404 318 A 22 22 0 0 0 360 318
               L260 318 A 22 22 0 0 0 216 318 Z"
            fill="#AB1631" stroke="#741024" stroke-width="2.5"/>
      <!-- フェンダーアーチの峰 -->
      <path d="M217 300 A 24 24 0 0 1 259 298 M361 297 A 24 24 0 0 1 403 295" fill="none" stroke="#741024" stroke-width="2" opacity=".65"/>
      <!-- キャビングラス -->
      <path d="M262 287 C270 278 278 269 288 263 C294 260 300 259 306 260 C312 261 317 263 321 266 C329 270 336 274 343 278 C317 282 288 285 262 287 Z" fill="#10171D" stroke="#5A6068" stroke-width="2"/>
      <line x1="316" y1="264" x2="319" y2="281" stroke="#5A6068" stroke-width="1.5"/>
      <!-- サイドインテーク・ドアライン -->
      <path d="M352 284 L369 282 L372 300 L356 302 Z" fill="#141418"/>
      <path d="M266 289 C264 298 264 308 266 316 M317 291 C316 300 316 309 318 317" fill="none" stroke="#7E1226" stroke-width="1.5"/>
      <ellipse cx="190" cy="295" rx="8" ry="4" fill="#E8D9A0" transform="rotate(-14 190 295)"/>
      <rect x="428" y="288" width="7" height="4" rx="2" fill="#F35B45"/>
      <circle cx="238" cy="314" r="17" fill="#0B0B0D" stroke="#C9A227" stroke-width="3"/>
      <circle cx="382" cy="314" r="17" fill="#0B0B0D" stroke="#C9A227" stroke-width="3"/>
    </g>
    <!-- ウインチワイヤー -->
    <path d="M452 306l88 8" stroke="#C9A227" stroke-width="2" stroke-dasharray="6 5"/>
  </g>

  <!-- ホイール（回転） -->
  <g>
    <circle cx="560" cy="392" r="34" fill="#0B0B0D" stroke="#3A3A3A" stroke-width="10"/>
    <g class="wheel" stroke="#C9A227" stroke-width="4" stroke-linecap="round">
      <circle cx="560" cy="392" r="22" fill="#15151A"/>
      <line x1="560" y1="374" x2="560" y2="410"/><line x1="542" y1="392" x2="578" y2="392"/>
      <line x1="547" y1="379" x2="573" y2="405"/><line x1="573" y1="379" x2="547" y2="405"/>
    </g>
    <circle cx="560" cy="392" r="5" fill="#E8D9A0"/>
  </g>
  <g>
    <circle cx="210" cy="392" r="34" fill="#0B0B0D" stroke="#3A3A3A" stroke-width="10"/>
    <g class="wheel" stroke="#C9A227" stroke-width="4" stroke-linecap="round">
      <circle cx="210" cy="392" r="22" fill="#15151A"/>
      <line x1="210" y1="374" x2="210" y2="410"/><line x1="192" y1="392" x2="228" y2="392"/>
      <line x1="197" y1="379" x2="223" y2="405"/><line x1="223" y1="379" x2="197" y2="405"/>
    </g>
    <circle cx="210" cy="392" r="5" fill="#E8D9A0"/>
  </g>

  <text x="400" y="78" text-anchor="middle" fill="#E8D9A0" font-size="30" letter-spacing="10">24H TOWING</text>
  <text x="400" y="106" text-anchor="middle" fill="#8A8A8A" font-size="13" letter-spacing="6">TRIDENT COMPANY</text>
</svg>
