<svg xmlns="http://www.w3.org/2000/svg" viewBox="0 0 800 500" font-family="Georgia, 'Times New Roman', serif">
  <style>
    .wheel{animation:spin .8s linear infinite;transform-box:fill-box;transform-origin:center}
    @keyframes spin{to{transform:rotate(360deg)}}
    .dashes{animation:dash 1.1s linear infinite}
    @keyframes dash{to{transform:translateX(-160px)}}
    .streak{animation:streak 1.6s linear infinite;opacity:0}
    .streak.s2{animation-delay:.5s}
    .streak.s3{animation-delay:1s}
    @keyframes streak{0%{transform:translateX(260px);opacity:0}15%{opacity:.85}85%{opacity:.85}100%{transform:translateX(-560px);opacity:0}}
    .beacon{animation:blink .7s steps(2,jump-none) infinite}
    @keyframes blink{50%{opacity:.15}}
    .glow{animation:glowp .7s steps(2,jump-none) infinite}
    @keyframes glowp{50%{opacity:0}}
    .bob{animation:bob 1.4s ease-in-out infinite}
    @keyframes bob{50%{transform:translateY(2.5px)}}
    @media (prefers-reduced-motion:reduce){*{animation:none!important}}
  </style>

  <rect width="800" height="500" fill="#0B0B0D"/>
  <radialGradient id="bg" cx="50%" cy="42%" r="75%">
    <stop offset="0" stop-color="#1B1710"/><stop offset="1" stop-color="#0B0B0D"/>
  </radialGradient>
  <rect width="800" height="500" fill="url(#bg)"/>
  <rect x="18" y="18" width="764" height="464" fill="none" stroke="#C9A227" stroke-opacity=".35" stroke-width="2"/>

  <!-- 流れる光跡 -->
  <g stroke-linecap="round">
    <line class="streak" x1="120" y1="120" x2="330" y2="120" stroke="#21D4FD" stroke-width="3" opacity=".8"/>
    <line class="streak s2" x1="380" y1="165" x2="560" y2="165" stroke="#C24BF5" stroke-width="2.5"/>
    <line class="streak s3" x1="200" y1="90" x2="360" y2="90" stroke="#E8D9A0" stroke-width="2"/>
  </g>

  <!-- 路面 -->
  <rect x="0" y="392" width="800" height="108" fill="#111114"/>
  <line x1="0" y1="392" x2="800" y2="392" stroke="#2A2A2A" stroke-width="2"/>
  <g class="dashes">
    <g fill="#C9A227" opacity=".55">
      <rect x="-40" y="438" width="70" height="7" rx="3.5"/><rect x="120" y="438" width="70" height="7" rx="3.5"/>
      <rect x="280" y="438" width="70" height="7" rx="3.5"/><rect x="440" y="438" width="70" height="7" rx="3.5"/>
      <rect x="600" y="438" width="70" height="7" rx="3.5"/><rect x="760" y="438" width="70" height="7" rx="3.5"/>
      <rect x="920" y="438" width="70" height="7" rx="3.5"/>
    </g>
  </g>

  <!-- レッカー車（フラットベッド） -->
  <g class="bob">
    <!-- ビーコンの光 -->
    <ellipse class="glow" cx="612" cy="212" rx="60" ry="30" fill="#F39800" opacity=".22"/>
    <rect class="beacon" x="598" y="206" width="28" height="14" rx="5" fill="#F39800"/>
    <!-- キャブ -->
    <path d="M560 226h100c8 0 14 6 14 14v96H560z" fill="#1E1E24" stroke="#C9A227" stroke-width="3"/>
    <path d="M576 240h56v40h-56z" fill="#0E1B22" stroke="#C9A227" stroke-width="2.5"/>
    <rect x="660" y="300" width="18" height="36" fill="#C9A227"/>
    <!-- 荷台 -->
    <path d="M120 336l40-22h400v22z" fill="#26262E" stroke="#C9A227" stroke-width="3"/>
    <rect x="120" y="336" width="560" height="14" fill="#15151A" stroke="#C9A227" stroke-width="2"/>
    <!-- 積載されたスポーツカー（718 Cayman GT4 RS／カーマインレッド・右向き＝前向き積載） -->
    <g transform="translate(638 0) scale(-1 1)">
      <!-- スワンネックウイング -->
      <path d="M362 246 L452 240 L455 249 L365 255 Z" fill="#141418" stroke="#3A3A3A" stroke-width="2"/>
      <rect x="449" y="237" width="7" height="16" rx="2" fill="#141418" stroke="#3A3A3A" stroke-width="1.5"/>
      <path d="M396 252 C393 260 392 268 394 276 M426 250 C423 257 422 264 424 271" fill="none" stroke="#26262A" stroke-width="4" stroke-linecap="round"/>
      <!-- ボディ（丸みのあるノーズ＋盛り上がるリアハンチ） -->
      <path d="M190 316
               C184 311 182 303 185 296
               C187 290 192 286 199 284
               C215 280 233 278 251 277
               L266 276
               C276 263 290 255 307 252
               C321 249 334 250 346 254
               C362 260 377 268 391 277
               C404 284 417 288 429 289
               C440 290 449 292 454 296
               C459 301 460 308 457 313
               C455 316 451 318 447 318
               L404 318 A 22 22 0 0 1 360 318
               L260 318 A 22 22 0 0 1 216 318 Z"
            fill="#AB1631" stroke="#741024" stroke-width="2.5"/>
      <!-- フェンダーアーチの峰 -->
      <path d="M214 292 A 26 26 0 0 1 262 290 M356 288 A 27 27 0 0 1 406 289" fill="none" stroke="#741024" stroke-width="2" opacity=".65"/>
      <!-- キャビングラス -->
      <path d="M272 276 C282 264 295 257 309 254 C322 251 334 252 345 256 C359 262 372 270 384 278 L352 282 C324 280 296 278 272 276 Z" fill="#10171D" stroke="#5A6068" stroke-width="2"/>
      <!-- サイドインテーク・ドアライン -->
      <path d="M346 288 L368 286 L371 308 L352 310 Z" fill="#141418"/>
      <path d="M300 286 C298 296 298 306 300 316" fill="none" stroke="#7E1226" stroke-width="1.5"/>
      <ellipse cx="200" cy="292" rx="7" ry="4.5" fill="#E8D9A0"/>
      <rect x="448" y="292" width="9" height="4" rx="2" fill="#F35B45"/>
      <circle cx="238" cy="314" r="17" fill="#0B0B0D" stroke="#C9A227" stroke-width="3"/>
      <circle cx="382" cy="314" r="17" fill="#0B0B0D" stroke="#C9A227" stroke-width="3"/>
    </g>
    <!-- ウインチワイヤー -->
    <path d="M452 306l88 8" stroke="#C9A227" stroke-width="2" stroke-dasharray="6 5"/>
  </g>

  <!-- ホイール（回転） -->
  <g>
    <circle cx="560" cy="392" r="34" fill="#0B0B0D" stroke="#3A3A3A" stroke-width="10"/>
    <g class="wheel" stroke="#C9A227" stroke-width="4" stroke-linecap="round">
      <circle cx="560" cy="392" r="22" fill="#15151A"/>
      <line x1="560" y1="374" x2="560" y2="410"/><line x1="542" y1="392" x2="578" y2="392"/>
      <line x1="547" y1="379" x2="573" y2="405"/><line x1="573" y1="379" x2="547" y2="405"/>
    </g>
    <circle cx="560" cy="392" r="5" fill="#E8D9A0"/>
  </g>
  <g>
    <circle cx="210" cy="392" r="34" fill="#0B0B0D" stroke="#3A3A3A" stroke-width="10"/>
    <g class="wheel" stroke="#C9A227" stroke-width="4" stroke-linecap="round">
      <circle cx="210" cy="392" r="22" fill="#15151A"/>
      <line x1="210" y1="374" x2="210" y2="410"/><line x1="192" y1="392" x2="228" y2="392"/>
      <line x1="197" y1="379" x2="223" y2="405"/><line x1="223" y1="379" x2="197" y2="405"/>
    </g>
    <circle cx="210" cy="392" r="5" fill="#E8D9A0"/>
  </g>

  <text x="400" y="78" text-anchor="middle" fill="#E8D9A0" font-size="30" letter-spacing="10">24H TOWING</text>
  <text x="400" y="106" text-anchor="middle" fill="#8A8A8A" font-size="13" letter-spacing="6">TRIDENT COMPANY</text>
</svg>
